<?xml version="1.0" encoding="UTF-8"?>
<svg xmlns="http://www.w3.org/2000/svg" viewBox="0 0 512 512" width="512" height="512"><defs><style>.cls-1{fill:#fff;}.cls-2{fill:#5ed4be;}.cls-3{fill:#fcc836;}.cls-4{fill:#ff3d81;}.cls-5{fill:#4c3ce3;}.cls-6{fill:#ff5800;}.cls-7{fill:#776cff;}.cls-8{fill:#0038a6;}</style></defs><g id="Stickers"><path class="cls-1" d="M468.76,198.5c-13.994,13.585-35.72-4.453-25.09-20.67a16.355,16.355,0,0,1-11.96-21.17,16.291,16.291,0,0,1-11.1-9l-1.58,1.58c1.48,6.45,2.63,12.81,3.47,19.03a24.307,24.307,0,0,1-16,26.16,209.208,209.208,0,0,1,7.39,191.04c30.462,51.9-20.976,113.149-77.55,88.34A209.042,209.042,0,0,1,83.88,452.62c-17.123,3.406-35.53-1.883-49.94-11.87-35.333-24.435-34.356-67.7-12.84-91.79A209.328,209.328,0,0,1,98.99,129.2c-8.548-43.7,29.526-78.928,71.02-73.7,18.92,2.43,36.33,14.77,46.44,32.33a208.5,208.5,0,0,1,72.2,10.07c14.983-12.789,38.086-32.821,52.03-46.61a24.257,24.257,0,0,1,37.39,3.97c4.22,6.5,10.19,16.27,16.37,28.24,1.39.08,2.77.2,4.15.34a16.319,16.319,0,0,1,6.4-22.64,16.364,16.364,0,0,1,6.26-27.34A16.354,16.354,0,0,1,429.6,7.17c38.178,19.036,72.114,46,76.07,88.31C508.358,124.249,488.366,179.384,468.76,198.5Z"/><path class="cls-2" d="M224.019,492.7c-107.84,0-195.575-87.735-195.575-195.575s87.735-195.575,195.575-195.575,195.575,87.735,195.575,195.575S331.859,492.7,224.019,492.7Zm0-386.15c-105.083,0-190.575,85.492-190.575,190.575S118.936,487.7,224.019,487.7s190.575-85.491,190.575-190.575S329.1,106.547,224.019,106.547Z"/><path class="cls-3" d="M208.652,137.483c-12.21,29.793-45.615,40.932-75.333,20.346-44.743-30.96-17.127-96,35.039-89.347C197.083,72.169,221.45,106.087,208.652,137.483Z"/><path class="cls-4" d="M208.652,137.483c-6.661,16.253-21.891,29.141-39.444,30.719-17.616,1.593-36.076-7.553-47.094-20.329a55.688,55.688,0,0,1,36.808-23.156C176.267,121.924,194.411,127.162,208.652,137.483Z"/><path class="cls-4" d="M162.6,82.088c-3.96-2.154-9.24-.318-11.987,3.255-7.613,9.9-.2,32.324,13.551,28.525,4.425-1.223,7.474-5.482,8.608-9.93C175.051,95.014,169.689,85.941,162.6,82.088Z"/><path class="cls-4" d="M116.719,409.648c-12.209,29.793-45.614,40.932-75.332,20.346-28.1-19.444-26.316-50.612-13.564-68.515,10.737-15.073,30.233-23.174,48.6-20.832C105.151,344.334,129.517,378.252,116.719,409.648Z"/><path class="cls-2" d="M116.719,409.648c-6.66,16.253-21.89,29.141-39.444,30.719C59.66,441.96,41.2,432.814,30.182,420.038a55.689,55.689,0,0,1,36.807-23.156C84.335,394.089,102.479,399.327,116.719,409.648Z"/><path class="cls-2" d="M70.671,354.253c-5.781-3.144-16.381,1.556-14.887,16.131,1.951,19.031,21.091,21.281,25.059,5.719C83.119,367.179,77.757,358.106,70.671,354.253Z"/><path class="cls-5" d="M409.922,416.91c.87,35.648-39.278,66.449-78.888,39.011-26.326-18.217-27.575-48.846-13.564-68.516,10.737-15.073,30.233-23.174,48.6-20.832C389.992,369.643,409.35,392.886,409.922,416.91Z"/><path class="cls-3" d="M406.367,435.574c-6.661,16.253-21.891,29.141-39.445,30.719-17.615,1.593-36.076-7.553-47.093-20.329C337.883,419.261,376.235,413.737,406.367,435.574Z"/><path class="cls-3" d="M360.318,380.179c-5.781-3.144-16.381,1.557-14.887,16.131,1.949,19.01,21.079,21.33,25.059,5.719C372.766,393.105,367.4,384.032,360.318,380.179Z"/><path class="cls-6" d="M197.934,349.914c37.509,16.053,76.96,7.9,88.134-18.23l9.259-19.043-6.951-2.964c-3.593-20.985-22.4-42.546-49.968-54.35s-56.187-10.518-73.866,1.364l-5.036-2.151c-.947,1.948,3.43-7.053-9.259,19.044C139.072,299.683,160.424,333.887,197.934,349.914Z"/><ellipse class="cls-3" cx="227.413" cy="283.589" rx="51.443" ry="73.872" transform="translate(-122.768 381.121) rotate(-66.837)"/><path class="cls-1" d="M249.107,310.474l-4.116-5.023a34.521,34.521,0,0,1-17.307,5.595,4.708,4.708,0,0,1-4.875-4.589c.033-.1-.645-5.051,4.011-5.262a26.155,26.155,0,0,0,12.024-3.244L227.905,284.6c-10.529,4.934-18.433,6.35-25.5-2.277-6.738-8.222-4.992-18.339,2.778-25.453l-2.819-3.44,4.151-3.4,2.876,3.509a32.547,32.547,0,0,1,12.761-5.292,4.687,4.687,0,0,1,5.431,4.149c-.024.1,1,4.676-3.353,5.44a25.467,25.467,0,0,0-8.692,3.2l10.6,12.935.194-.159c10.677-5.059,18.945-6.387,26.108,2.354,6.9,8.416,4.835,18.6-3.24,25.947l4.061,4.954Zm-39.469-35.458c3.09,3.77,6.618,2.888,11.331,1.123l-9.755-11.9C207.258,268.153,207.386,272.268,209.638,275.016Zm35.423,8.293c-3.246-3.961-7.132-2.894-12.046-.939l10.15,12.384C246.46,291.386,248.011,286.908,245.061,283.309Z"/><path class="cls-7" d="M306.149,195.237s12.254,34.036,31.21,52.28a9.308,9.308,0,0,1-.369,13.868l-9.462,7.952a9.26,9.26,0,0,1-12.6-.614,148.775,148.775,0,0,1-35.164-60.232Z"/><path class="cls-4" d="M401.355,182.334c-2.3.617-4.989,1.331-7.973,2.153-25.283,6.8-72.967,19.957-105.52,30.815-6.383,2.128-12.186,4.177-17.131,6.058a11.114,11.114,0,0,1-12.543-3.318l-31.015-37.465a11.168,11.168,0,0,1,1.539-15.769c5.447-4.434,13.112-10.717,22.064-18.091C277.581,124.584,315.85,92.5,340.17,69.875c3.559-3.313,6.832-6.436,9.707-9.276a11.172,11.172,0,0,1,17.232,1.809c12.548,19.334,36.134,60.752,42.423,107.6A11.174,11.174,0,0,1,401.355,182.334Z"/><path class="cls-7" d="M379.314,97.358a67.507,67.507,0,0,1,18.847-.41c1.948.232,2.619.6,3.76,2.683A101.785,101.785,0,0,1,409.4,116.9c1.984,6.072,1.344,8.17-2.046,12.952L395.342,146.8,377.59,102.884C375.253,97.1,378.852,96.791,379.314,97.358Z"/><path class="cls-8" d="M401.355,182.334c-2.3.617-4.989,1.331-7.973,2.153A245.69,245.69,0,0,0,340.17,69.875c3.559-3.313,6.832-6.436,9.707-9.276a11.172,11.172,0,0,1,17.232,1.809c12.548,19.334,36.134,60.752,42.423,107.6A11.174,11.174,0,0,1,401.355,182.334Z"/><path class="cls-8" d="M287.862,215.3c-6.383,2.128-12.186,4.177-17.131,6.058a11.114,11.114,0,0,1-12.543-3.318l-31.015-37.465a11.168,11.168,0,0,1,1.539-15.769c5.447-4.434,13.112-10.717,22.064-18.091C252.624,173.362,266.63,199.082,287.862,215.3Z"/><path class="cls-3" d="M434.034,142.815a2.5,2.5,0,0,1-.7-3.465c6.186-9.32,5.289-21.6,3.676-34.446A44.935,44.935,0,0,0,411.762,77.93a2.5,2.5,0,0,1,1.894-4.627,49.949,49.949,0,0,1,28.167,30.222c.257.757,4.861,24.752-4.324,38.589A2.5,2.5,0,0,1,434.034,142.815Z"/><path class="cls-3" d="M445.9,164a2.5,2.5,0,0,1-.831-3.437c13.581-22.236,23.466-48.478,12.453-72.225-8.1-17.453-26.116-28.106-42.373-36.72a2.5,2.5,0,0,1,2.341-4.418c16.976,9,35.82,20.173,44.568,39.035,11.8,25.445,1.784,53.184-12.722,76.934A2.5,2.5,0,0,1,445.9,164Z"/><path class="cls-3" d="M455.553,188.525a2.5,2.5,0,0,1,.046-3.535c14.67-14.291,33.559-63.558,31.3-87.75-3.289-35.151-34.022-57.4-65.712-73.2a2.5,2.5,0,0,1,2.232-4.475C456.854,36.241,488.4,59.7,491.873,96.774c2.464,26.339-17.273,76.686-32.785,91.8A2.5,2.5,0,0,1,455.553,188.525Z"/></g></svg>
