<?xml version="1.0" encoding="iso-8859-1"?>
<!-- Generator: Adobe Illustrator 19.0.0, SVG Export Plug-In . SVG Version: 6.00 Build 0)  -->
<svg version="1.1" id="Capa_1" xmlns="http://www.w3.org/2000/svg" xmlns:xlink="http://www.w3.org/1999/xlink" x="0px" y="0px"
	 viewBox="0 0 512 512" style="enable-background:new 0 0 512 512;" xml:space="preserve">
<circle style="fill:#beccd3;" cx="256" cy="256" r="256"/>
<path style="fill:#656D7A;" d="M110.312,188.232h294.484c12.684,0,22.968,10.284,22.968,22.968v222.52H87.344V211.2
	C87.344,198.516,97.624,188.232,110.312,188.232z"/>
<rect x="107.52" y="208.4" style="fill:#70B1E1;" width="300.08" height="205.12"/>
<polygon style="fill:#D2D2D4;" points="48.324,453.636 466.78,453.636 427.76,433.712 87.344,433.712 "/>
<rect x="48.32" y="453.64" style="fill:#656D7A;" width="418.44" height="17.716"/>
<path style="fill:#4D535F;" d="M66.044,489.072h383.02c9.784,0,17.716-7.932,17.716-17.716l0,0H48.324l0,0
	C48.324,481.14,56.256,489.072,66.044,489.072z"/>
<rect x="227.964" y="453.64" style="fill:#353944;" width="59.172" height="17.716"/>
<circle style="fill:#F5EA07;" cx="347.44" cy="269.48" r="38.772"/>
<g>
	<path style="fill:#E8BB20;" d="M347.444,302.704c-18.316,0-33.224-14.904-33.224-33.224s14.904-33.224,33.224-33.224
		s33.224,14.904,33.224,33.224S365.764,302.704,347.444,302.704z M347.444,242.116c-15.088,0-27.364,12.276-27.364,27.364
		s12.276,27.364,27.364,27.364s27.364-12.276,27.364-27.364C374.812,254.392,362.536,242.116,347.444,242.116z"/>
	<path style="fill:#E8BB20;" d="M346.38,289.568v-3.536c-4.428-0.452-8.4-2.212-11.924-5.28l3.536-4.216
		c2.716,2.36,5.512,3.764,8.384,4.216v-9.404c-3.652-0.872-6.324-2.02-8.02-3.44c-1.696-1.42-2.548-3.532-2.548-6.324
		c0-2.796,0.98-5.08,2.932-6.86c1.956-1.776,4.5-2.744,7.636-2.908v-2.424h3.104v2.472c3.552,0.26,6.916,1.472,10.08,3.636
		l-3.152,4.46c-2.132-1.52-4.444-2.456-6.932-2.812v9.112h0.144c3.716,0.872,6.444,2.052,8.192,3.536
		c1.744,1.488,2.616,3.644,2.616,6.472s-1,5.132-3.004,6.908c-2.004,1.78-4.652,2.748-7.948,2.908v3.488h-3.096V289.568z
		 M342.964,258.284c-0.824,0.724-1.236,1.632-1.236,2.712c0,1.084,0.32,1.94,0.968,2.568c0.648,0.632,1.872,1.236,3.684,1.82V257
		C344.928,257.128,343.788,257.556,342.964,258.284z M353.168,279.536c0.904-0.74,1.356-1.68,1.356-2.812
		c0-1.132-0.356-2.028-1.068-2.688s-2.036-1.284-3.972-1.864v8.724C351.032,280.732,352.26,280.28,353.168,279.536z"/>
</g>
<circle style="fill:#F5EA07;" cx="410.2" cy="203.84" r="38.772"/>
<g>
	<path style="fill:#E8BB20;" d="M386.724,227.332c-12.952-12.952-12.952-34.032,0-46.984s34.032-12.952,46.984,0
		s12.952,34.032,0,46.984C420.752,240.288,399.676,240.284,386.724,227.332z M429.564,184.492c-10.668-10.668-28.028-10.668-38.7,0
		s-10.668,28.028,0,38.7c10.668,10.668,28.028,10.668,38.7,0C440.236,212.52,440.232,195.16,429.564,184.492z"/>
	<path style="fill:#E8BB20;" d="M395.256,217.292l2.5-2.5c-2.812-3.448-4.376-7.504-4.696-12.164l5.484-0.48
		c0.252,3.588,1.236,6.556,2.948,8.912l6.648-6.648c-1.968-3.2-3.044-5.9-3.24-8.104c-0.192-2.204,0.696-4.296,2.672-6.272
		c1.976-1.976,4.284-2.9,6.924-2.776s5.124,1.24,7.452,3.344l1.712-1.712l2.192,2.192l-1.748,1.748
		c2.328,2.696,3.848,5.928,4.556,9.7l-5.38,0.924c-0.432-2.58-1.404-4.876-2.912-6.888l-6.444,6.444l0.104,0.104
		c2.008,3.244,3.104,6.008,3.288,8.292s-0.728,4.428-2.724,6.424c-2,2-4.336,2.92-7.008,2.76c-2.676-0.16-5.232-1.348-7.676-3.564
		l-2.468,2.468L395.256,217.292z M414.96,192.756c-1.096-0.068-2.028,0.28-2.792,1.044c-0.764,0.764-1.144,1.6-1.132,2.5
		c0.012,0.904,0.452,2.2,1.32,3.892l5.928-5.928C417.168,193.328,416.06,192.824,414.96,192.756z M407.148,215
		c1.164,0.116,2.148-0.228,2.948-1.028s1.18-1.684,1.148-2.656c-0.032-0.972-0.532-2.348-1.492-4.128l-6.168,6.168
		C404.796,214.336,405.984,214.884,407.148,215z"/>
</g>
<circle style="fill:#F5EA07;" cx="386.04" cy="112.12" r="38.772"/>
<g>
	<path style="fill:#E8BB20;" d="M409.544,135.624c-12.952,12.952-34.032,12.952-46.984,0s-12.952-34.032,0-46.984
		s34.032-12.952,46.984,0C422.496,101.596,422.496,122.672,409.544,135.624z M366.7,92.784c-10.668,10.668-10.668,28.028,0,38.7
		c10.668,10.668,28.028,10.668,38.7,0c10.668-10.668,10.668-28.028,0-38.7C394.732,82.112,377.372,82.112,366.7,92.784z"/>
	<path style="fill:#E8BB20;" d="M399.504,127.092l-2.5-2.5c-3.452,2.812-7.504,4.376-12.164,4.696l-0.48-5.484
		c3.588-0.252,6.556-1.236,8.912-2.948l-6.648-6.648c-3.2,1.968-5.9,3.044-8.104,3.24c-2.204,0.192-4.296-0.696-6.272-2.672
		s-2.9-4.284-2.776-6.924c0.124-2.64,1.24-5.124,3.344-7.452l-1.712-1.712l2.192-2.192l1.748,1.748
		c2.696-2.328,5.928-3.848,9.7-4.556l0.924,5.38c-2.58,0.432-4.876,1.404-6.888,2.912l6.444,6.444l0.104-0.104
		c3.244-2.008,6.008-3.104,8.292-3.288s4.428,0.728,6.424,2.724c2,2,2.92,4.336,2.76,7.008c-0.16,2.676-1.348,5.232-3.564,7.676
		l2.468,2.468L399.504,127.092z M374.964,107.388c-0.068,1.096,0.28,2.028,1.044,2.792s1.6,1.144,2.5,1.132
		c0.904-0.012,2.2-0.452,3.892-1.32l-5.928-5.928C375.536,105.18,375.036,106.288,374.964,107.388z M397.208,115.2
		c0.116-1.164-0.228-2.148-1.028-2.948c-0.8-0.8-1.684-1.18-2.656-1.148s-2.348,0.532-4.128,1.492l6.168,6.168
		C396.544,117.552,397.092,116.364,397.208,115.2z"/>
</g>
<path style="fill:#7EC359;" d="M53.404,269.784h149.06c4.52,0,8.184,3.576,8.184,7.988v93.512c0,4.412-3.664,7.988-8.184,7.988
	H53.404c-4.52,0-8.184-3.576-8.184-7.988v-93.512C45.22,273.36,48.884,269.784,53.404,269.784z"/>
<g>
	<path style="fill:#6BBE49;" d="M147.212,301.272c0.38,0.36,0.912,0.356,1.108,0.868c0.116,0.304-0.072,0.72,0.008,1.036
		c1.152,4.552,6.376,1.856,3.628-3.22c-0.324-0.6-0.812-1.252-0.784-1.964c0.032-0.812,0.752-1.348,0.908-2.1
		c0.184-0.876-0.428-1.788-0.2-2.628c0.3-1.108,0.884-0.62,1.636-0.9c0.444-0.164,0.932-0.88,1.044-1.308
		c0.252-0.944-0.352-1.312-1.12-1.46c-0.728-0.14-1.292-0.524-1.92-0.92c-0.452-0.288-0.436-0.592-0.74-0.92
		c-0.344-0.368-0.76-0.46-1.196-0.624c-0.704-0.264-1.428-0.588-2.192-0.592c-0.696-0.008-1.716,1.072-2.276,0.756
		c-0.756-0.428-0.36-1.88-1.616-2.012c-0.232-0.024-3.032,0.224-3.356,0.496c-0.632,0.528-0.088,1.756-0.62,2.136
		c-0.372,0.264-1.96,0-2.448,0.016c-0.308,0.788,0.208,1.76,0.58,2.424c0.38,0.672,1.276,1.036,1.496,1.544
		c0.244,0.564,0.104,1.352,0.204,1.96c0.092,0.564,0.712,2.06,1.128,2.4c0.32,0.264,0.644,0.064,0.928,0.496
		c0.26,0.404,0.112,0.768,0.172,1.208C141.904,300.296,145.764,299.668,147.212,301.272z"/>
	<path style="fill:#6BBE49;" d="M160.776,364.812c1.572,0,1.768,0.192,2.616-0.9c0.7-0.904,0.36-1.22,0.636-2.34
		c0.264-1.084,0.88-1.608,0.676-2.948c-0.132-0.864-0.364-1.28-0.28-2.208c0.172-1.86,0.708-3.512,0.572-5.444
		c-0.108-1.484-1.624-3.712-0.784-5.268c0.92-1.704,4.056-2.228,5.212-3.8c0.652-0.884,0.844-3.448,0.64-4.608
		c-0.184-1.048-1.316-1.904-1.38-2.888c-0.08-1.232,0.784-1.12,1.656-1.736c0.84-0.592,1.332-1.448,2.26-1.928
		c0.992-0.512,2.184-0.368,3.248-0.712c1.104-0.36,2.504-1.32,3.388-2.08c1.128-0.968,1-1.808,1.368-3.184
		c0.392-1.48,1.692-4.156,2.652-5.304c0.052,1.104-0.012,2.064-0.252,3.108c-0.188,0.808-0.996,2.324-0.772,2.984
		c1.48-0.712,1.356-2.504,1.828-3.836c0.628-1.776,3.088-4.592,3.02-6.564c-0.044-1.252-1.228-1.836-1.696-2.896
		c-0.212-0.484-0.484-1.596-0.42-2.116c0.132-1.076,0.468-0.772,0.964-1.6c0.644-1.076,0.632-2.28,0.588-3.524
		c-0.096-2.764,0.384-4.808,3.348-5.9c1.492-0.552,3.128,0.088,4.392,1.192c1.628,1.424,1.252,2.216,4.54,2.252
		c-0.268-1.452-3.436-1.164-3.084-3.076c2,0.1,2.624-3.16,1.428-4.272c-0.78-0.728-2.144-0.472-2.332-1.648
		c-0.088-0.54,0.636-1.26,0.548-2.1c-0.7-0.136-2.472,0.156-2.912-0.516c-0.688-1.056,0.92-1.832-0.776-2.468
		c-0.756-0.284-2.176-0.34-3-0.432c-0.808-0.092-1.808-0.088-2.616,0c-1.516,0.164-2.128,0.768-3.048,1.824
		c-0.536,0.616-1.04,1.8-1.692,2.312c-1.336,1.048-3.676-0.204-5.136,0.644c-1.048,0.612-0.884,1.776-1.68,2.556
		c-0.692,0.676-1.64,0.432-2.592,0.692c2.432-0.024,2.308-1,2.228-2.668c-0.092-1.896,0.596-1.62,2.404-1.72
		c-0.388-0.904-1.272-0.48-1.948-0.924c-0.368-0.244-0.78-1.564-0.876-1.604c-0.38-0.16-1.892,0.884-2.276,1.276
		c-0.448,0.452-0.532,1.6-0.936,1.836c-0.572,0.332-1.476-0.504-1.864-0.272c-0.912,0.54-0.128,1.112-0.06,1.612
		c0.144,1.012,0.344,1.076,0.72,1.76c0.328,0.596,0.992,0.392,0.472,1.528c-1.324,0.024-1.352,0.132-1.956-0.752
		c-0.428-0.628,0.396-1.572-1.104-1.336c-0.012,0.528-0.008,1.056-0.16,1.5c-0.872-0.952,0.072-1.852-0.244-2.88
		c0.704,1.132,1.816,0.364,1.204-0.704c-0.76-1.324-5.22,0.512-3.696-1.456c0.628-0.812,2.112,0.388,2.188-1.06
		c1.508,0.552,2.812-0.16,4.556-0.048c0.192-0.564-0.052-1.184-0.164-1.664c0.66,0.004,1.3-0.28,1.772-0.7
		c-0.356,0.032-0.664-0.136-0.98-0.156c0-0.088-0.004-0.176-0.008-0.264c-0.584-0.248-1.452-0.52-2.1-0.204
		c-0.888,0.428-0.744,1.408-1.376,2.008c-0.132-1.024-0.056-3.104-1.576-2.808c-1.648,0.32-0.16,1.968-0.296,3.064
		c-0.728,0.436-1.3,0.164-2.088,0.24c-0.8,0.076-1.16,0.408-1.964,0.508c0.16,1.38-0.488,1.708-1.82,1.684
		c0.792-0.148,1.5-0.684,1.196-1.544c-0.684,0.136-1.22-0.248-1.056-0.908c-0.324-0.024-0.656-0.28-0.944-0.328
		c0.488-0.608,1.228-0.352,1.5-1.06c0.276-0.72-0.36-1.48-0.816-1.948c-1.088-1.108-2.216-1.036-3.62-1.26
		c-1.336-0.212-2.584-0.576-3.984-0.564c-1.536,0.016-1.964,0.904-3.408,1.264c0.48,0.42,0.984,0.96,1.52,1.248
		c0.372,0.2,0.82,0.216,1.164,0.42c0.284,0.168,0.424,0.528,0.676,0.704c0.512,0.36,1.192,0.404,1.796,0.404
		c0.988,0.004,1.576,0.108,2.484,0.412c-0.22,0.468-1.636,0.156-0.924,1.132c0.212,0.288,1.008,0.668,1.348,0.892
		c2.22,1.46,0.66,0.296,1.948,2.22c0.18,0.272,0.584,0.388-0.156,1.4c-0.316,0.432-0.988,0.704-1.324,1.128
		c-0.304,0.384-0.508,1.632-0.62,2.112c-0.112,0.476-0.312,0.56-0.54,0.956c-0.18,0.308-0.492,1.688-0.088,2.056
		c0.388,0.348,1.696,0.072,1.82-0.424c0.928,0.628-0.464,0.908-0.644,1.196c-0.424,0.676,0.704,1.404,1.212,1.504
		c1.192,0.224,1.824,0.168,2.08-2.552c0.392,0.084,0.836,0.088,1.22,0.036c0.032-0.12,0.032-0.332-0.004-0.448
		c-1.432-0.38-1.992-0.42-1.992-0.42c-0.092-0.068-0.54-1-0.568-1.188c-0.224-1.48,1.6,0.7,1.892-0.384
		c0.152-0.572-1.464-1.976,0.404-1.5c1.108,0.284,1.272,1.216,1.252,2.22c0.656,0.044,1.976-0.02,2.324,0.564
		c-0.28,0.192-1.232,0.38-1.412,0.656c-0.52,0.808,1.168,1.756,1.908,1.424c0.768-0.348,0.204-1.24,1.404-1.104
		c1.404,0.16,3.716,2.956,2.816,5.28c-0.692,1.788-2.412,1.008-3.012,2.308c-0.444,0.96-0.32,2.924-1.968,2.5
		c-1.228-0.32-0.172-2.552-0.544-3.42c-0.112-0.26-0.372-0.224-0.484-0.492c-0.1-0.248,0.008-0.792,0.008-1.052
		c-0.036-3.192-2.864-3.424-3.48-1.86c-0.164,0.412,0.16,1.208-0.064,1.604c-0.248,0.44-0.824,0.252-1.38,0.288
		c-0.112-0.352-0.504-0.856-0.872-0.92c-0.944-0.164-0.604,1-0.664,1.576c-0.1,0.948-0.176,1.252-0.9,1.688
		c-0.388,0.236-1.104,0.556-1.244,1.004c-0.192,0.604,0.376,0.78,0.56,1.276c0.58,1.564-1.824,1.172-1.144,2.952
		c0.3,0.784,2.312,0.908,2.8,0.26c0.412-0.548-0.044-1.644,0.7-2.096c0.684-0.416,2.34,0.012,3.02,0.272
		c-0.428,0.644-1.72,0.952-1.932,1.68c-0.204,0.692,0.484,1.624,1.088,1.82c1.248,0.396,2.256-1.38,3.02-0.208
		c0.9,1.388-0.428,0.1,0.928,1.932c0.432,0.584,0.768,1.28,1.3,1.756c0.516,0.46,1.016,0.824,1.328,1.448
		c0.28,0.564,0.308,1.3,0.66,1.828c0.196,0.292,0.66,0.548,0.896,0.904c0.82,1.228-0.3,0.792,0.144,2.348
		c1.484,0.292,1.16-2.932,3.044-3.276c0.912-0.168,2.064,0.032,2.964,0.076c0.656,0.036,1.464,0.032,1.736,0.752
		c0.292,0.764-0.24,1.64,0.06,2.46c0.248,0.672,0.648,0.96-0.032,1.528c-0.836,0.7-3.648,1.408-3.444-0.288
		c-1.592-0.688-0.404,1.652-0.408,1.96c-0.016,0.912-1.928,1.092-2.232,1.928c-0.352,0.968,0.112,1.636-1.132,2.048
		c-1.292,0.428-1.852,0.116-2.76-0.864c-1.636-0.44-3.308-0.42-4.824,0.316c-0.248,0.12-0.56,0.324-0.888,0.384
		c-0.244,0.044-0.488-0.076-0.72,0.06c-0.236,0.136-0.084,0.308-0.284,0.464c-0.428,0.324-1.976,0.616-1.484,1.5
		c-0.904,0.88-1.736-0.132-2.112,1.336c-0.112,0.432-0.264,0.82-0.164,1.328c0.084,0.412,0.324,0.744,0.26,1.204
		c-1.1,0.352-2.352,0.196-3.492,0.308c-0.456,0.044-1.164-0.048-1.576,0.188c-0.52,0.296-0.472,0.748-0.56,1.336
		c-0.228,1.52-0.152,3.1,0.308,4.54c0.348,1.088,1.144,1.936,1.496,3.02c0.408,0.032,0.932,0.62,1.324,0.856
		c0.468,0.284,0.664,0.156,1.104,0.32c0.596,0.228,0.572,0.824,0.628,1.396c0.08,0.792,0.224,1.368,0.708,2.028
		c0.584,0.796,1.556,1.132,2.128,1.964c1.072,1.556,2.608,2.836,3.068,4.64c0.172,0.676,0.024,0.948-0.104,1.524
		c-0.176,0.796,0.424,1.244,0.52,2.056c0.064,0.532,0.072,1.288-0.064,1.788C161.456,364.492,161.544,364.6,160.776,364.812z"/>
	<path style="fill:#6BBE49;" d="M111.704,332.224c-0.172-0.044-0.468-0.004-0.644,0.016c-0.692,2.188,1.712,3.044,3.26,4.308
		c0.436,0.356,1.28,0.768,1.592,1.2c0.648,0.9-0.376,2.072-0.508,3.028c-0.168,1.216-0.036,2.096,0.688,3.14
		c0.532,0.768,1.472,1.068,1.888,1.884c0.24,0.468,0.056,0.892,0.216,1.324c0.26,0.692,0.848,1.184,1.196,1.84
		c0.336,0.636,0.512,1.364,0.808,1.992c1.12,2.364,3.852,2.088,5.7,0.736c1.008-0.736,1.452-2.396,2.016-3.552
		c0.908-1.86,0.368-5.02,0.188-7.024c-0.132-1.452,0.484-1.96,0.908-3.188c0.46-1.332-0.356-2.296,1.432-2.696
		c0.284-0.064,0.964-0.024,1.188-0.2c0.472-0.368,0.212-1.052,0.852-1.392c0.936-0.496,2.652,0.42,3.616,0.484
		c5.676,0.392,7.38-13.044-2.816-15.144c-1.664-0.344-3.516,0.22-5.164,0.352c-0.108,2.196,0.704,2.396-1.592,2.396
		c-1.136,0-2.176-0.204-3.288-0.2c-1.124,0.004-3.052,0.332-4.048-0.18c-2.82-1.448,3.376-2.496,4.244-2.612
		c0.796-0.104,1.72,0.28,2.184-0.608c0.308-0.588-0.132-0.936,0.488-1.428c1.108-0.884,5.28-1.408,6.348-0.54
		c0.768,0.624,0.948,1.468,1.936,2.004c1.276,0.692,3.14,1.412,3.896-0.208c1.048-2.248-1.196-2.952-2.896-3.444
		c-0.52-0.152-1.488-0.316-1.404-1.14c0.036-0.336,0.348-0.368,0.44-0.584c0.084-0.2,0.32-1.088,0.444-1.224
		c0.496-0.544,1.636,0.2,2.208-0.216c1.844-1.336-2.176-8.16-2.928-4.232c-0.216,1.128,0.052,1.704-2.044,1.916
		c-2.876,0.292-0.62-1.916-0.496-3.216c0.108-1.144-0.488-1.62-1.16-2.476c-2.016-2.572-1.044-3.464-4.524-5.064
		c-5.196-2.388-4.368,1.248-8.444,1.256c-1.356,0.004-2.02-0.24-3.216-1.012c-0.58-0.376-1.184-1.016-1.848-1.188
		c-0.704-0.184-1.392,0.32-1.8-0.344c-0.416-0.676,0.392-1.704,0.3-2.412c-0.408-0.084-1.092-0.396-1.504-0.292
		c-0.468,0.12-0.356,0.54-0.744,0.72c-1.048,0.48-3.888-1.032-4.48-3.956c-0.52-2.584-2.932-3.68-3.8-3.116
		c-0.836,0.544-0.464,1.076-1.628,1.296c-0.948,0.18-1.444-0.2-1.532,0.836c-0.08,0.916,0.732,1.596,1.084,2.356
		c-0.708,0.076-1-0.452-1.5-0.788c-1.46-0.972-4.028,0.164-4.328-1.764c-1.7-0.4-1.94,1.292-3.204,1.752
		c-0.904,0.328-2.956-0.456-2.864-1.488c0.064-0.724,0.128-1.192,0.248-1.908c-1.736-0.748-2.924,0.152-4.448,0.516
		c-0.556,0.132-1.144,0.112-1.716,0.188c-1.864,0.252-1.068-1.556-3.264-1.092c-1.12,0.236-0.368,0.704-1.2,1.272
		c-0.536,0.368-1.672-0.124-2.1-0.336c-0.844-0.42-0.876-0.648-0.796-1.744c-3.424-0.932-11.548,0.392-9.2,3.332
		c0.676,0.844,1.044,0.368,1.976,0.66c2.092,0.66,1.02,2.372-0.788,2.332c-0.36,0.964,0.224,1.644,0.884,2.364
		c0.784,0.856,1.508,0.8,2.456,1.316c0.66,0.36,1.488,1.356,1.152,2.312c-0.264,0.744-1.156,0.76-1.4,1.792
		c-0.312,1.32-0.908,5.34,0.524,5.704c3.536,0.904,0.908-7.732,3.552-9.116c1.812-0.948,2,1.688,1.552,2.7
		c0.636,0.296,1.376,0.14,2.072,0.212c0.7,0.072,4.032,1.804,4.156,2.368c0.22,1.008-1.304,0.916-1.936,1.204
		c-2.112,0.968-1.864,1.688-2.036,5.688c-0.18,0.036-0.492,0.088-0.688,0.04c-0.384,1.084-0.036,2.812,0.992,3.428
		c0.912,0.548,1.648,0.868,1.86,2.032c0.196,1.084-0.72,1.332-1.148,2.176c-0.576,1.128,0.196,2.56,1.504,1.428
		c0.596-0.516,0.308-1.424,0.852-1.9c0.3-0.264,0.988-0.544,1.372-0.8c1.724-1.16,2.68,1.488,1.004,3.156
		c-0.432,0.428-1.14,0.864-1.316,1.496c-0.524,1.884,0.88,5.072,3.452,5.596c2.172,0.444,2.924,1.644,1.72,4.596
		c-0.24,0.588-0.94,0.988-0.116,1.44c1.212,0.664,3.444-0.872,3.78-1.832c0.048-0.14-0.14-0.332-0.072-0.496
		c0.072-0.176,0.356-0.184,0.456-0.336c1.528-2.364,1.1-0.548,2.952-3.212c0.436-0.628,0.676-0.664,1.412-0.208
		c2.644,1.64,4.768,3.064,3.42,5.868c-0.128,0.264-0.684,0.64-0.728,0.912c-0.128,0.816,1.328,0.696,1.888,0.492
		c0.856-0.312,1.188-1.052,1.46-1.852c0.256-0.756,0.772-1.32,0.988-2.052c0.212-0.728,0-1.3,0.5-1.964
		c0.64-0.856,1.288-1.576,2.264-1.992c0.656-0.28,1.324-0.808,1.96-0.948c1.652-0.36,3.392,0.644,4.632-0.716
		c0.548-0.6,1.044-1.08,1.752-1.364c-0.004,0.508-0.828,2.088-1.228,2.508c-0.712,0.744-1.696,0.492-2.64,0.544
		c-0.628,0.036-0.728-0.164-0.988,0.448c-0.74,1.736,3.168,2.908,4.944,3.74c1.7,0.796,1.976,0.34,2.448-1.456
		c0.484-1.848,2.492-4.372,4.384-4.98c0.844,3.364-3.092,5.256-5.336,7.768C113.192,332.164,112.612,331.84,111.704,332.224z"/>
	<path style="fill:#6BBE49;" d="M79.152,353.268c0.884,0.432,1.844,0.74,2.824,0.94c1.032,0.212,1.864,0.448,2.436-0.508
		c0.596-0.992,1.124-2.036,0.356-2.932c-0.28-0.328-0.468-0.312-0.648-0.756c-0.192-0.476-0.276-1.148-0.324-1.664
		c-0.128-1.32-0.948-1.844-2.088-2.312c-1.004-0.416-2.024-0.836-2.924-1.6c-0.804-0.688-1.228-1.46-2.24-1.796
		c-0.592-0.196-1.108-0.336-1.772-0.32c-0.692,0.012-1.092,0.028-1.628,0.508c-0.504,0.452-0.536,1.4-1.076,1.696
		c-1.156,0.632-1.904-1.428-1.984-2.192c-1.356-0.196-1.788,1.18-2.196,2.164c-0.484,1.16-1.392,2.244-1.544,3.492
		c-0.1,0.844-0.008,1.66-0.172,2.496c-0.2,1.008-0.056,1.444,0.3,2.4c0.264,0.712,0.24,1.736,0.688,2.36
		c0.208,0.288,0.632,0.432,0.88,0.72c0.336,0.392,0.388,0.804,0.816,1.128c1.14,0.864,2.352,0.572,3.512-0.012
		c1.348-0.68,1.936-0.928,2.412-2.512C75.42,352.416,77.692,352.452,79.152,353.268z"/>
</g>
<path style="fill:#F5EA07;" d="M167.816,313.72c0.376,2.108,2.212,3.696,4.428,3.696h17.992c2.212,0,4.052-1.588,4.428-3.696
	c0.052-0.248,0.072-0.516,0.072-0.784v-18.012c0-0.32-0.036-0.644-0.108-0.964c-0.428-2.016-2.232-3.536-4.392-3.536
	c-18.008,0-21.412-1.036-22.384,3.536C167.712,294.584,167.676,313.064,167.816,313.72z"/>
<path style="fill:#E8BB20;" d="M167.744,295.28h7.64c-0.768,2.64-1.196,3.964-1.268,7.908h-6.372v1.32h6.372
	c0.088,2.624,0.768,5.264,1.908,7.908h-8.284c0,0.44-0.02,0.884,0.072,1.304h26.848c0.052-0.248,0.072-0.516,0.072-0.784v-0.516
	h-8.816c1.144-2.64,1.82-5.284,1.912-7.908h6.908v-1.32h-6.908c-0.072-3.944-0.5-5.264-1.268-7.908h8.176v-0.356
	c0-0.32-0.036-0.644-0.108-0.964h-26.776C167.736,294.48,167.744,294.776,167.744,295.28z M175.436,303.1
	c0-2.696,0.5-5.176,1.376-7.82h8.3c0.892,2.64,1.392,5.124,1.392,7.82c0,3.464-0.784,6.676-2.14,9.316h-6.784
	C176.224,309.776,175.436,306.564,175.436,303.1z"/>
<circle style="fill:#FDFEFF;" cx="74.26" cy="306.6" r="12.384"/>
<path style="fill:#656D7A;" d="M89.844,318.976c6.84,0,12.384-5.544,12.384-12.384s-5.544-12.384-12.384-12.384
	C73.484,294.208,73.464,318.976,89.844,318.976z"/>
<g>
	<path style="fill:#FFFFFF;" d="M193.048,347.052c0.64,0.812,0.964,2.144,0.964,3.992c0,1.884-0.292,3.192-0.876,3.924
		c-0.584,0.736-1.352,1.1-2.308,1.1c-0.952,0-1.692-0.332-2.224-1.004c-0.644-0.812-0.964-2.148-0.964-4.004
		c0-1.86,0.32-3.192,0.956-3.996c0.536-0.68,1.28-1.016,2.228-1.016S192.516,346.38,193.048,347.052z M190.22,347.824
		c-0.176,0.144-0.324,0.432-0.44,0.864s-0.176,1.224-0.176,2.372c0,1.152,0.064,1.968,0.196,2.448c0.1,0.376,0.236,0.636,0.416,0.78
		c0.18,0.144,0.384,0.216,0.608,0.216c0.228,0,0.428-0.072,0.608-0.216c0.176-0.144,0.324-0.428,0.436-0.86
		c0.116-0.432,0.176-1.22,0.176-2.372s-0.064-1.972-0.196-2.456c-0.1-0.376-0.236-0.636-0.416-0.78
		c-0.18-0.144-0.38-0.216-0.608-0.216C190.6,347.608,190.396,347.68,190.22,347.824z"/>
	<path style="fill:#FFFFFF;" d="M185.424,347.052c0.64,0.812,0.964,2.144,0.964,3.992c0,1.884-0.292,3.192-0.876,3.924
		c-0.584,0.736-1.352,1.1-2.308,1.1c-0.952,0-1.692-0.332-2.224-1.004c-0.64-0.812-0.964-2.148-0.964-4.004
		c0-1.86,0.32-3.192,0.956-3.996c0.536-0.68,1.28-1.016,2.228-1.016C184.152,346.048,184.892,346.38,185.424,347.052z
		 M182.596,347.824c-0.176,0.144-0.324,0.432-0.44,0.864s-0.176,1.224-0.176,2.372c0,1.152,0.064,1.968,0.192,2.448
		c0.1,0.376,0.236,0.636,0.416,0.78c0.18,0.144,0.384,0.216,0.608,0.216c0.228,0,0.428-0.072,0.608-0.216
		c0.176-0.144,0.324-0.428,0.44-0.86c0.116-0.432,0.176-1.22,0.176-2.372s-0.064-1.972-0.192-2.456
		c-0.1-0.376-0.236-0.636-0.416-0.78c-0.18-0.144-0.38-0.216-0.608-0.216C182.976,347.608,182.772,347.68,182.596,347.824z"/>
	<path style="fill:#FFFFFF;" d="M177.8,347.052c0.64,0.812,0.964,2.144,0.964,3.992c0,1.884-0.292,3.192-0.876,3.924
		c-0.584,0.736-1.352,1.1-2.308,1.1c-0.948,0-1.692-0.332-2.224-1.004c-0.64-0.812-0.964-2.148-0.964-4.004
		c0-1.86,0.32-3.192,0.956-3.996c0.536-0.68,1.28-1.016,2.228-1.016C176.528,346.048,177.272,346.38,177.8,347.052z
		 M174.972,347.824c-0.176,0.144-0.324,0.432-0.44,0.864s-0.176,1.224-0.176,2.372c0,1.152,0.064,1.968,0.196,2.448
		c0.1,0.376,0.236,0.636,0.416,0.78c0.18,0.144,0.384,0.216,0.608,0.216c0.228,0,0.428-0.072,0.608-0.216
		c0.176-0.144,0.324-0.428,0.44-0.86c0.116-0.432,0.176-1.22,0.176-2.372s-0.064-1.972-0.196-2.456
		c-0.1-0.376-0.236-0.636-0.416-0.78c-0.18-0.144-0.38-0.216-0.608-0.216C175.352,347.608,175.148,347.68,174.972,347.824z"/>
	<path style="fill:#FFFFFF;" d="M170.176,347.052c0.64,0.812,0.964,2.144,0.964,3.992c0,1.884-0.292,3.192-0.876,3.924
		c-0.584,0.736-1.352,1.1-2.308,1.1c-0.952,0-1.692-0.332-2.224-1.004c-0.64-0.812-0.964-2.148-0.964-4.004
		c0-1.86,0.32-3.192,0.956-3.996c0.536-0.68,1.28-1.016,2.228-1.016C168.904,346.048,169.648,346.38,170.176,347.052z
		 M167.352,347.824c-0.176,0.144-0.324,0.432-0.44,0.864s-0.176,1.224-0.176,2.372c0,1.152,0.064,1.968,0.192,2.448
		c0.1,0.376,0.236,0.636,0.416,0.78c0.18,0.144,0.384,0.216,0.608,0.216c0.228,0,0.428-0.072,0.608-0.216
		c0.176-0.144,0.324-0.428,0.436-0.86c0.116-0.432,0.176-1.22,0.176-2.372s-0.064-1.972-0.192-2.456
		c-0.1-0.376-0.236-0.636-0.416-0.78c-0.18-0.144-0.38-0.216-0.608-0.216C167.728,347.608,167.524,347.68,167.352,347.824z"/>
	<path style="fill:#FFFFFF;" d="M158.744,347.052c0.64,0.812,0.964,2.144,0.964,3.992c0,1.884-0.292,3.192-0.876,3.924
		c-0.584,0.736-1.352,1.1-2.308,1.1c-0.952,0-1.692-0.332-2.224-1.004c-0.64-0.812-0.964-2.148-0.964-4.004
		c0-1.86,0.32-3.192,0.956-3.996C155.368,345.7,157.664,345.688,158.744,347.052z M155.916,347.824
		c-0.176,0.144-0.324,0.432-0.44,0.864s-0.176,1.224-0.176,2.372c0,1.152,0.064,1.968,0.192,2.448c0.1,0.376,0.236,0.636,0.416,0.78
		c0.18,0.144,0.384,0.216,0.608,0.216c0.228,0,0.428-0.072,0.608-0.216c0.176-0.144,0.324-0.428,0.44-0.86
		c0.116-0.432,0.176-1.22,0.176-2.372s-0.064-1.972-0.192-2.456C157.26,347.512,156.432,347.4,155.916,347.824z"/>
	<path style="fill:#FFFFFF;" d="M151.12,347.052c0.64,0.812,0.964,2.144,0.964,3.992c0,1.884-0.292,3.192-0.876,3.924
		c-0.584,0.736-1.352,1.1-2.308,1.1c-0.952,0-1.692-0.332-2.224-1.004c-0.64-0.812-0.964-2.148-0.964-4.004
		c0-1.86,0.32-3.192,0.956-3.996c0.536-0.68,1.28-1.016,2.228-1.016C149.848,346.048,150.592,346.38,151.12,347.052z
		 M148.296,347.824c-0.176,0.144-0.324,0.432-0.44,0.864s-0.176,1.224-0.176,2.372c0,1.152,0.064,1.968,0.196,2.448
		c0.1,0.376,0.236,0.636,0.416,0.78c0.18,0.144,0.384,0.216,0.608,0.216c0.228,0,0.428-0.072,0.608-0.216
		c0.176-0.144,0.324-0.428,0.436-0.86c0.116-0.432,0.176-1.22,0.176-2.372s-0.064-1.972-0.196-2.456
		c-0.1-0.376-0.236-0.636-0.416-0.78c-0.18-0.144-0.38-0.216-0.608-0.216C148.672,347.608,148.468,347.68,148.296,347.824z"/>
	<path style="fill:#FFFFFF;" d="M143.5,347.052c0.64,0.812,0.964,2.144,0.964,3.992c0,1.884-0.292,3.192-0.876,3.924
		c-0.584,0.736-1.352,1.1-2.308,1.1c-0.952,0-1.692-0.332-2.224-1.004c-0.64-0.812-0.964-2.148-0.964-4.004
		c0-1.86,0.32-3.192,0.956-3.996c0.536-0.68,1.28-1.016,2.228-1.016S142.968,346.38,143.5,347.052z M140.672,347.824
		c-0.176,0.144-0.324,0.432-0.44,0.864s-0.176,1.224-0.176,2.372c0,1.152,0.064,1.968,0.192,2.448c0.1,0.376,0.236,0.636,0.416,0.78
		c0.18,0.144,0.384,0.216,0.608,0.216c0.228,0,0.428-0.072,0.608-0.216c0.176-0.144,0.324-0.428,0.436-0.86
		c0.116-0.432,0.176-1.22,0.176-2.372s-0.064-1.972-0.192-2.456c-0.1-0.376-0.236-0.636-0.416-0.78
		c-0.18-0.144-0.38-0.216-0.608-0.216C141.048,347.608,140.848,347.68,140.672,347.824z"/>
	<path style="fill:#FFFFFF;" d="M135.876,347.052c0.64,0.812,0.964,2.144,0.964,3.992c0,1.884-0.292,3.192-0.876,3.924
		c-0.584,0.736-1.352,1.1-2.308,1.1c-0.948,0-1.692-0.332-2.224-1.004c-0.64-0.812-0.964-2.148-0.964-4.004
		c0-1.86,0.32-3.192,0.956-3.996c0.536-0.68,1.28-1.016,2.228-1.016C134.604,346.048,135.344,346.38,135.876,347.052z
		 M133.048,347.824c-0.176,0.144-0.324,0.432-0.44,0.864s-0.176,1.224-0.176,2.372c0,1.152,0.064,1.968,0.196,2.448
		c0.1,0.376,0.236,0.636,0.416,0.78c0.18,0.144,0.384,0.216,0.608,0.216c0.228,0,0.428-0.072,0.608-0.216
		c0.176-0.144,0.324-0.428,0.44-0.86c0.116-0.432,0.176-1.22,0.176-2.372s-0.064-1.972-0.196-2.456
		c-0.1-0.376-0.236-0.636-0.416-0.78c-0.18-0.144-0.38-0.216-0.608-0.216C133.424,347.608,133.224,347.68,133.048,347.824z"/>
	<path style="fill:#FFFFFF;" d="M124.444,347.052c0.64,0.812,0.964,2.144,0.964,3.992c0,1.884-0.292,3.192-0.876,3.924
		c-0.584,0.736-1.352,1.1-2.308,1.1c-0.952,0-1.692-0.332-2.224-1.004c-0.64-0.812-0.964-2.148-0.964-4.004
		c0-1.86,0.32-3.192,0.956-3.996c0.536-0.68,1.28-1.016,2.228-1.016C123.172,346.048,123.912,346.38,124.444,347.052z
		 M121.616,347.824c-0.176,0.144-0.324,0.432-0.44,0.864c-0.116,0.432-0.176,1.224-0.176,2.372c0,1.152,0.064,1.968,0.192,2.448
		c0.1,0.376,0.236,0.636,0.416,0.78s0.384,0.216,0.608,0.216c0.228,0,0.428-0.072,0.608-0.216c0.176-0.144,0.324-0.428,0.436-0.86
		c0.116-0.432,0.176-1.22,0.176-2.372s-0.064-1.972-0.196-2.456c-0.1-0.376-0.236-0.636-0.416-0.78s-0.38-0.216-0.608-0.216
		C121.992,347.608,121.792,347.68,121.616,347.824z"/>
	<path style="fill:#FFFFFF;" d="M116.82,347.052c0.64,0.812,0.964,2.144,0.964,3.992c0,1.884-0.292,3.192-0.876,3.924
		c-0.584,0.736-1.352,1.1-2.308,1.1c-0.952,0-1.692-0.332-2.224-1.004c-0.64-0.812-0.964-2.148-0.964-4.004
		c0-1.86,0.32-3.192,0.956-3.996c0.536-0.68,1.28-1.016,2.228-1.016C115.548,346.048,116.288,346.38,116.82,347.052z
		 M113.992,347.824c-0.176,0.144-0.324,0.432-0.44,0.864c-0.116,0.432-0.176,1.224-0.176,2.372c0,1.152,0.064,1.968,0.192,2.448
		c0.1,0.376,0.236,0.636,0.416,0.78s0.384,0.216,0.608,0.216c0.228,0,0.428-0.072,0.608-0.216c0.176-0.144,0.324-0.428,0.44-0.86
		c0.116-0.432,0.176-1.22,0.176-2.372s-0.064-1.972-0.192-2.456c-0.1-0.376-0.236-0.636-0.416-0.78s-0.38-0.216-0.608-0.216
		C114.368,347.608,114.168,347.68,113.992,347.824z"/>
	<path style="fill:#FFFFFF;" d="M109.196,347.052c0.64,0.812,0.964,2.144,0.964,3.992c0,1.884-0.292,3.192-0.876,3.924
		c-0.584,0.736-1.352,1.1-2.308,1.1c-0.948,0-1.692-0.332-2.224-1.004c-0.64-0.812-0.964-2.148-0.964-4.004
		c0-1.86,0.316-3.192,0.956-3.996c0.536-0.68,1.28-1.016,2.228-1.016C107.924,346.048,108.664,346.38,109.196,347.052z
		 M106.368,347.824c-0.176,0.144-0.324,0.432-0.44,0.864c-0.116,0.432-0.176,1.224-0.176,2.372c0,1.152,0.064,1.968,0.196,2.448
		c0.1,0.376,0.236,0.636,0.416,0.78s0.384,0.216,0.608,0.216c0.228,0,0.428-0.072,0.608-0.216c0.176-0.144,0.324-0.428,0.436-0.86
		c0.116-0.432,0.176-1.22,0.176-2.372s-0.064-1.972-0.196-2.456c-0.1-0.376-0.236-0.636-0.416-0.78s-0.38-0.216-0.608-0.216
		C106.748,347.608,106.544,347.68,106.368,347.824z"/>
	<path style="fill:#FFFFFF;" d="M101.572,347.052c0.64,0.812,0.964,2.144,0.964,3.992c0,1.884-0.292,3.192-0.876,3.924
		c-0.584,0.736-1.352,1.1-2.308,1.1c-0.952,0-1.692-0.332-2.224-1.004c-0.64-0.812-0.964-2.148-0.964-4.004
		c0-1.86,0.32-3.192,0.956-3.996c0.536-0.68,1.28-1.016,2.228-1.016C100.3,346.048,101.04,346.38,101.572,347.052z M98.744,347.824
		c-0.176,0.144-0.324,0.432-0.44,0.864c-0.116,0.432-0.176,1.224-0.176,2.372c0,1.152,0.064,1.968,0.192,2.448
		c0.1,0.376,0.236,0.636,0.416,0.78s0.384,0.216,0.608,0.216c0.228,0,0.428-0.072,0.608-0.216c0.176-0.144,0.324-0.428,0.436-0.86
		c0.116-0.432,0.176-1.22,0.176-2.372s-0.064-1.972-0.192-2.456c-0.1-0.376-0.236-0.636-0.416-0.78s-0.38-0.216-0.608-0.216
		C99.124,347.608,98.92,347.68,98.744,347.824z"/>
	<path style="fill:#FFFFFF;" d="M90.14,347.052c0.64,0.812,0.964,2.144,0.964,3.992c0,1.884-0.292,3.192-0.876,3.924
		c-0.584,0.736-1.352,1.1-2.308,1.1c-0.952,0-1.692-0.332-2.224-1.004c-0.64-0.812-0.964-2.148-0.964-4.004
		c0-1.86,0.32-3.192,0.956-3.996c0.536-0.68,1.28-1.016,2.228-1.016S89.608,346.38,90.14,347.052z M87.312,347.824
		c-0.176,0.144-0.324,0.432-0.44,0.864c-0.116,0.432-0.176,1.224-0.176,2.372c0,1.152,0.064,1.968,0.192,2.448
		c0.1,0.376,0.236,0.636,0.416,0.78s0.384,0.216,0.608,0.216c0.228,0,0.428-0.072,0.608-0.216c0.176-0.144,0.324-0.428,0.44-0.86
		c0.116-0.432,0.176-1.22,0.176-2.372s-0.064-1.972-0.192-2.456c-0.1-0.376-0.236-0.636-0.416-0.78s-0.38-0.216-0.608-0.216
		C87.692,347.608,87.488,347.68,87.312,347.824z"/>
	<path style="fill:#FFFFFF;" d="M82.516,347.052c0.64,0.812,0.964,2.144,0.964,3.992c0,1.884-0.292,3.192-0.876,3.924
		c-0.584,0.736-1.352,1.1-2.308,1.1c-0.952,0-1.692-0.332-2.224-1.004c-0.644-0.812-0.964-2.148-0.964-4.004
		c0-1.86,0.32-3.192,0.956-3.996c0.536-0.68,1.28-1.016,2.228-1.016C81.244,346.048,81.984,346.38,82.516,347.052z M79.688,347.824
		c-0.176,0.144-0.324,0.432-0.44,0.864c-0.116,0.432-0.176,1.224-0.176,2.372c0,1.152,0.064,1.968,0.196,2.448
		c0.1,0.376,0.236,0.636,0.416,0.78s0.384,0.216,0.608,0.216c0.228,0,0.428-0.072,0.608-0.216c0.176-0.144,0.324-0.428,0.436-0.86
		c0.116-0.432,0.176-1.22,0.176-2.372s-0.064-1.972-0.196-2.456c-0.1-0.376-0.236-0.636-0.416-0.78s-0.38-0.216-0.608-0.216
		C80.068,347.608,79.864,347.68,79.688,347.824z"/>
	<path style="fill:#FFFFFF;" d="M74.892,347.052c0.64,0.812,0.964,2.144,0.964,3.992c0,1.884-0.292,3.192-0.876,3.924
		c-0.584,0.736-1.352,1.1-2.308,1.1c-0.952,0-1.692-0.332-2.224-1.004c-0.64-0.812-0.964-2.148-0.964-4.004
		c0-1.86,0.32-3.192,0.956-3.996c0.536-0.68,1.28-1.016,2.228-1.016C73.62,346.048,74.364,346.38,74.892,347.052z M72.064,347.824
		c-0.176,0.144-0.324,0.432-0.44,0.864c-0.116,0.432-0.176,1.224-0.176,2.372c0,1.152,0.064,1.968,0.192,2.448
		c0.1,0.376,0.236,0.636,0.416,0.78s0.384,0.216,0.608,0.216c0.228,0,0.428-0.072,0.608-0.216c0.176-0.144,0.324-0.428,0.44-0.86
		c0.116-0.432,0.176-1.22,0.176-2.372s-0.064-1.972-0.192-2.456c-0.1-0.376-0.236-0.636-0.416-0.78s-0.38-0.216-0.608-0.216
		C72.444,347.608,72.24,347.68,72.064,347.824z"/>
	<path style="fill:#FFFFFF;" d="M67.268,347.052c0.64,0.812,0.964,2.144,0.964,3.992c0,1.884-0.292,3.192-0.876,3.924
		c-0.584,0.736-1.352,1.1-2.308,1.1c-0.948,0-1.692-0.332-2.224-1.004c-0.64-0.812-0.964-2.148-0.964-4.004
		c0-1.86,0.32-3.192,0.956-3.996c0.536-0.68,1.28-1.016,2.228-1.016C65.996,346.048,66.74,346.38,67.268,347.052z M64.444,347.824
		c-0.176,0.144-0.324,0.432-0.44,0.864c-0.116,0.432-0.176,1.224-0.176,2.372c0,1.152,0.064,1.968,0.196,2.448
		c0.1,0.376,0.236,0.636,0.416,0.78s0.384,0.216,0.608,0.216c0.228,0,0.428-0.072,0.608-0.216c0.176-0.144,0.324-0.428,0.436-0.86
		c0.116-0.432,0.176-1.22,0.176-2.372s-0.064-1.972-0.196-2.456c-0.1-0.376-0.236-0.636-0.416-0.78s-0.38-0.216-0.608-0.216
		C64.82,347.608,64.616,347.68,64.444,347.824z"/>
</g>
<path style="fill:#4D5BA5;" d="M336.236,378.696H232.608c-2.952,0-5.344,2.392-5.344,5.344s2.392,5.344,5.344,5.344h103.628
	c2.952,0,5.344-2.392,5.344-5.344S339.188,378.696,336.236,378.696z"/>
<path style="fill:#E8E7E8;" d="M284.344,60.696v158.012c0,7.568-6.148,13.716-13.716,13.716H192.9
	c-7.568,0-13.716-6.148-13.716-13.716V60.696l6.856,6.856l6.524-6.564l6.524,6.564l6.524-6.564l6.564,6.564l6.524-6.564l6.524,6.564
	l6.524-6.564l6.564,6.564l6.524-6.564l6.524,6.564l6.524-6.564l6.564,6.564l6.524-6.564l6.524,6.564L284.344,60.696z"/>
<path style="fill:#D2D2D4;" d="M220.336,113.588c-7.58,0-13.72,6.144-13.72,13.72v91.384c0,7.576-6.128,13.72-13.72,13.72h114.46
	c7.58,0,13.72-6.144,13.72-13.72V113.588H220.336z"/>
<path style="fill:#FDFEFF;" d="M321.068,113.584H220.332c7.592,0,13.72,6.148,13.72,13.72V384.04h100.736V127.304
	C334.788,119.728,328.644,113.584,321.068,113.584z"/>
<g>
	<rect x="244.12" y="143.256" style="fill:#D2D2D4;" width="80.6" height="6.052"/>
	<rect x="244.12" y="157.804" style="fill:#D2D2D4;" width="80.6" height="6.052"/>
	<rect x="244.12" y="172.36" style="fill:#D2D2D4;" width="53.132" height="6.052"/>
	<rect x="244.12" y="355.64" style="fill:#D2D2D4;" width="35.28" height="12.12"/>
	<rect x="244.12" y="330.2" style="fill:#D2D2D4;" width="35.28" height="12.12"/>
	<rect x="289.44" y="334.04" style="fill:#D2D2D4;" width="35.28" height="33.704"/>
	<rect x="244.12" y="200.04" style="fill:#D2D2D4;" width="80.6" height="6.052"/>
	<rect x="244.12" y="214.72" style="fill:#D2D2D4;" width="80.6" height="6.052"/>
	<rect x="244.12" y="229.4" style="fill:#D2D2D4;" width="80.6" height="6.052"/>
	<rect x="244.12" y="244.08" style="fill:#D2D2D4;" width="80.6" height="6.052"/>
	<rect x="244.12" y="258.8" style="fill:#D2D2D4;" width="57.592" height="6.052"/>
</g>
<g>
</g>
<g>
</g>
<g>
</g>
<g>
</g>
<g>
</g>
<g>
</g>
<g>
</g>
<g>
</g>
<g>
</g>
<g>
</g>
<g>
</g>
<g>
</g>
<g>
</g>
<g>
</g>
<g>
</g>
</svg>
