<svg height="512pt" viewBox="0 -50 512 512" width="512pt" xmlns="http://www.w3.org/2000/svg"><g fill="#40404c"><path d="m209.648438 133.386719h92.703124v150.402343h-92.703124zm0 0"/><path d="m299.59375 66.78125v-20.804688c0-25.390624 20.585938-45.976562 45.976562-45.976562 9.308594 0 18.152344 2.808594 25.570313 7.761719 7.40625 4.960937 13.378906 12.074219 16.929687 20.679687l7.425782 18.003906"/><path d="m280 119.570312v177.097657l132.699219-24.285157 91.808593-16.804687-68.832031-166.851563c-6.246093-15.144531-16.75-27.65625-29.785156-36.390624-13.046875-8.71875-28.609375-13.660157-44.996094-13.660157-1.378906 0-2.746093.03125-4.105469.105469-42.769531 2.128906-76.789062 37.496094-76.789062 80.789062zm0 0"/></g><path d="m356.789062 38.78125 55.910157 233.601562 91.808593-16.804687-68.832031-166.851563c-6.246093-15.144531-16.75-27.65625-29.785156-36.390624-13.046875-8.71875-28.609375-13.660157-44.996094-13.660157-1.378906 0-2.746093.03125-4.105469.105469zm0 0" fill="#5b5b68"/><path d="m512 296.664062c0 64.066407-51.9375 116-116 116-64.066406 0-116.003906-51.933593-116.003906-116 0-64.066406 51.9375-116 116.003906-116 64.0625 0 116 51.933594 116 116zm0 0" fill="#e4e4ef"/><path d="m478.023438 296.664062c0 45.300782-36.722657 82.023438-82.023438 82.023438-45.304688 0-82.027344-36.722656-82.027344-82.023438 0-45.300781 36.722656-82.027343 82.027344-82.027343 45.300781 0 82.023438 36.726562 82.023438 82.027343zm0 0" fill="#40404c"/><path d="m315.972656 278.589844c8.230469 36.605468 40.929688 63.960937 80.015625 63.960937 39.082031 0 71.796875-27.355469 80.027344-63.960937-8.230469-36.609375-40.933594-63.953125-80.015625-63.953125-39.097656 0-71.796875 27.34375-80.027344 63.953125zm0 0" fill="#589ce0"/><path d="m116.503906 46.445312 7.425782-18.003906c3.550781-8.605468 9.523437-15.71875 16.929687-20.679687 7.414063-4.953125 16.261719-7.761719 25.566406-7.761719 25.390625 0 45.976563 20.585938 45.976563 45.976562v20.804688" fill="#40404c"/><path d="m232 119.570312v177.097657l-132.699219-24.285157-91.808593-16.804687 68.828124-166.851563c6.246094-15.144531 16.753907-27.65625 29.789063-36.390624 13.046875-8.71875 28.609375-13.660157 44.996094-13.660157 1.378906 0 2.746093.03125 4.105469.105469 42.769531 2.128906 76.789062 37.496094 76.789062 80.789062zm0 0" fill="#5b5b68"/><path d="m155.210938 38.78125-55.910157 233.601562-91.808593-16.804687 68.828124-166.851563c6.246094-15.144531 16.753907-27.65625 29.789063-36.390624 13.046875-8.71875 28.609375-13.660157 44.996094-13.660157 1.378906 0 2.746093.03125 4.105469.105469zm0 0" fill="#40404c"/><path d="m232.003906 296.664062c0 64.066407-51.9375 116-116.003906 116-64.0625 0-116-51.933593-116-116 0-64.066406 51.9375-116 116-116 64.066406 0 116.003906 51.933594 116.003906 116zm0 0" fill="#e4e4ef"/><path d="m198.027344 296.664062c0 45.300782-36.722656 82.023438-82.027344 82.023438-45.300781 0-82.023438-36.722656-82.023438-82.023438 0-45.300781 36.722657-82.027343 82.023438-82.027343 45.304688 0 82.027344 36.726562 82.027344 82.027343zm0 0" fill="#40404c"/><path d="m196.027344 278.589844c-8.230469 36.605468-40.929688 63.960937-80.015625 63.960937-39.082031 0-71.796875-27.355469-80.027344-63.960937 8.230469-36.609375 40.933594-63.953125 80.015625-63.953125 39.097656 0 71.796875 27.34375 80.027344 63.953125zm0 0" fill="#589ce0"/><path d="m84.109375 296.667969c0 16.019531 4.585937 30.957031 12.535156 43.585937-30.175781-7.3125-53.832031-31.304687-60.664062-61.667968 8.230469-36.605469 40.933593-63.949219 80.015625-63.949219 8.742187 0 17.171875 1.367187 25.066406 3.90625-33.035156 10.589843-56.953125 41.558593-56.953125 78.125zm0 0" fill="#357fbc"/><path d="m364.101562 296.667969c0 16.019531 4.585938 30.957031 12.535157 43.585937-30.175781-7.3125-53.832031-31.304687-60.664063-61.667968 8.230469-36.605469 40.933594-63.949219 80.015625-63.949219 8.742188 0 17.171875 1.367187 25.066407 3.90625-33.035157 10.589843-56.953126 41.558593-56.953126 78.125zm0 0" fill="#357fbc"/></svg>