<svg id="Layer_1" enable-background="new 0 0 512 512" height="512" viewBox="0 0 512 512" width="512" xmlns="http://www.w3.org/2000/svg"><g><path d="m481.098 428h-450.196c-17.067 0-30.902-13.835-30.902-30.902v-282.196c0-17.067 13.835-30.902 30.902-30.902h450.196c17.067 0 30.902 13.835 30.902 30.902v282.196c0 17.067-13.835 30.902-30.902 30.902z" fill="#f74f68"/><path d="m481.095 84h-30.905c17.069 0 30.905 13.834 30.905 30.898v282.204c0 17.065-13.837 30.898-30.905 30.898h30.905c17.068 0 30.905-13.834 30.905-30.898v-282.204c0-17.064-13.837-30.898-30.905-30.898z" fill="#e83a53"/><path d="m248.789 178.736-24.724 76.233h-115.38l-24.725-76.233 39.15 21.962c1.776.996 4.013.546 5.265-1.059l38-48.717 38 48.717c1.252 1.605 3.489 2.056 5.265 1.059z" fill="#ffd54f"/><g><path d="m211.01 199.929-17.851 55.041h30.905l24.725-76.234z" fill="#ffc328"/></g><circle cx="166.374" cy="213.763" fill="#8bf0ff" r="16.483"/><path d="m228.185 285.875h-123.622c-5.69 0-10.302-4.612-10.302-10.302v-10.302c0-5.69 4.612-10.302 10.302-10.302h123.622c5.69 0 10.302 4.612 10.302 10.302v10.302c0 5.69-4.612 10.302-10.302 10.302z" fill="#ffc328"/><g fill="#ffb200"><path d="m228.185 254.97h-30.905c5.69 0 10.302 4.612 10.302 10.302v10.302c0 5.689-4.612 10.302-10.302 10.302h30.905c5.69 0 10.302-4.612 10.302-10.302v-10.302c0-5.69-4.612-10.302-10.302-10.302z"/><circle cx="80.869" cy="176.676" r="16.483"/><circle cx="251.879" cy="176.676" r="16.483"/><circle cx="166.374" cy="145.771" r="16.483"/></g><path d="m0 338.395v58.707c0 17.064 13.837 30.898 30.905 30.898h450.189c17.069 0 30.906-13.834 30.906-30.898v-58.707z" fill="#ffd54f"/><path d="m481.095 338.395v58.707c0 17.065-13.837 30.898-30.905 30.898h30.905c17.068 0 30.905-13.834 30.905-30.898v-58.707z" fill="#ffc328"/><path d="m434.221 163.284h-88.596c-8.534 0-15.453-6.918-15.453-15.453 0-8.534 6.918-15.453 15.453-15.453h88.596c8.534 0 15.453 6.918 15.453 15.453 0 8.534-6.918 15.453-15.453 15.453z" fill="#f3f3f3"/><path d="m434.221 225.095h-88.596c-8.534 0-15.453-6.918-15.453-15.453 0-8.534 6.918-15.453 15.453-15.453h88.596c8.534 0 15.453 6.918 15.453 15.453 0 8.534-6.918 15.453-15.453 15.453z" fill="#f3f3f3"/><path d="m434.221 286.905h-88.596c-8.534 0-15.453-6.918-15.453-15.453 0-8.534 6.918-15.453 15.453-15.453h88.596c8.534 0 15.453 6.918 15.453 15.453 0 8.535-6.918 15.453-15.453 15.453z" fill="#f3f3f3"/><path d="m441.433 353.867h-370.866c-8.534 0-15.453-6.918-15.453-15.453 0-8.534 6.918-15.453 15.453-15.453h370.865c8.534 0 15.453 6.918 15.453 15.453 0 8.535-6.918 15.453-15.452 15.453z" fill="#8bf0ff"/></g></svg>