<svg id="Layer_1" enable-background="new 0 0 464.076 464.076" height="512" viewBox="0 0 464.076 464.076" width="512" xmlns="http://www.w3.org/2000/svg"><path d="m232.076.026c-128.13 0-232 103.87-232 232 0 78.65 39.14 148.16 99 190.11v.01c79.688 55.841 186.224 55.902 266 0v-.01c59.86-41.95 99-111.46 99-190.11 0-128.129-103.87-232-232-232z" fill="#cbe3fa"/><path d="m243.862 53.626c-102.057 23.229-180.829 118.861-184.728 223.512-1.192 31.991-46.733 36.23-53.624 4.967-32.425-147.128 82.504-286.16 233.111-281.988 31.623.876 36.087 46.488 5.241 53.509z" fill="#eef7ff"/><path d="m333.236 367.086c-40.014-13.76-39.376-13.362-43.39-15.42-16.282-8.284-25.89-25.239-25.89-41.22 32.26-12.52 55.12-43.86 55.12-80.54v-2.73c12.918 0 22-10.025 22-21.39 0-2 0-43.6 0-43.6-.06-144.44-218-144.44-218 .06v43.54c0 11.348 9.06 21.39 22 21.39v2.73c0 36.62 22.78 67.91 54.95 80.47 0 18.57-12.049 37.054-31.75 43.86l-37.36 12.85c-19.05 6.55-31.84 24.47-31.84 44.62v10.44c79.688 55.841 186.224 55.902 266 0 0-6.108 0-4.359 0-10.44 0-20.149-12.791-38.069-31.84-44.62z" fill="#e0b7a3"/><path d="m341.076 162.186v43.6c0 11.348-9.06 21.39-22 21.39v-53.88c0-34.83-40.59-55.31-69.6-31.5-9.67 7.94-24.74 8.26-34.8 0-29.01-23.81-69.6-3.33-69.6 31.5v53.88c-12.918 0-22-10.025-22-21.39 0-1.95 0-41.73 0-43.54 0-144.5 217.94-144.5 218-.06z" fill="#42434d"/><path d="m365.076 411.706v10.44c-79.688 55.841-186.224 55.902-266 0 0-6.111 0-4.356 0-10.44 0-20.15 12.79-38.069 31.84-44.62 41.256-14.187 39.652-13.461 43.69-15.56 22.53 49.88 92.62 49.88 115.23.15.101-.101 1.592 1.028 6.04 2.56l37.36 12.85c19.05 6.551 31.84 24.47 31.84 44.62z" fill="#80aaff"/><path d="m458.966 61.106c6.75 6.98 6.75 18.05 0 25.03l-1.5 1.56c-3.86 3.99-5.67 9.53-4.89 15.03l.31 2.15c1.35 9.61-5.15 18.57-14.72 20.25l-2.13.37c-5.47.96-10.19 4.39-12.79 9.29l-1.01 1.91c-4.56 8.58-15.09 12-23.81 7.74l-1.94-.95c-4.99-2.44-10.83-2.44-15.82 0l-1.94.95c-8.72 4.26-19.25.84-23.81-7.74l-1.01-1.91c-2.6-4.9-7.32-8.33-12.79-9.29l-2.13-.37c-9.57-1.68-16.07-10.64-14.72-20.25l.31-2.15c.78-5.5-1.03-11.04-4.89-15.03l-1.5-1.56c-6.75-6.98-6.75-18.05 0-25.03l1.5-1.56c3.86-3.99 5.67-9.54 4.89-15.03l-.31-2.15c-1.35-9.61 5.15-18.57 14.72-20.25l2.13-.37c5.47-.96 10.19-4.39 12.79-9.29l1.01-1.92c4.56-8.57 15.09-11.99 23.81-7.73l1.94.95c4.99 2.44 10.83 2.44 15.82 0l1.94-.95c8.72-4.26 19.25-.84 23.81 7.73l1.01 1.92c2.6 4.9 7.32 8.33 12.79 9.29l2.13.37c9.57 1.68 16.07 10.64 14.72 20.25l-.31 2.15c-.78 5.49 1.03 11.04 4.89 15.03z" fill="#9cbcff"/><path d="m374.188 103.683-14.38-14.38c-3.124-3.124-3.124-8.189 0-11.313 3.125-3.124 8.189-3.124 11.314 0l8.362 8.362 33.376-37.773c2.926-3.311 7.981-3.623 11.292-.698 3.312 2.926 3.624 7.981.698 11.292l-39.011 44.15c-3.051 3.454-8.387 3.623-11.651.36z" fill="#fff"/><path d="m458.966 86.136c-.441.683-7.844 6.335-6.39 16.59l.31 2.15c1.35 9.61-5.15 18.57-14.72 20.25l-2.13.37c-5.47.96-10.19 4.39-12.79 9.29l-1.01 1.91c-4.56 8.58-15.09 12-23.81 7.74l-1.94-.95c-4.99-2.443-10.83-2.443-15.82 0l-1.94.95c-8.72 4.26-19.25.84-23.81-7.74-.463-.569-3.557-9.402-13.8-11.2-.258-.112-2.412-.218-5.129-1.181-3.675-1.303-1.859-6.84 1.895-5.788 52.815 14.807 103.889-25.137 103.033-79.435-.121-7.691 11.48-8.353 12.092-.686.103 1.295.067 2.621-.121 3.96.039.708-2.666 9.691 4.58 17.18l1.5 1.56c6.75 6.98 6.75 18.05 0 25.03z" fill="#80aaff"/><path d="m261.97 73.866c-42.995.029-85.967 22.55-102.154 67.56-8.87 7.45-14.74 18.62-14.74 31.87v53.88c-12.918 0-22-10.025-22-21.39v-43.54c0-86.622 78.324-121.317 141.074-104.093 9.012 2.475 7.166 15.707-2.18 15.713z" fill="#585966"/><path d="m220.078 285.647c15.531 8.591 5.689 32.262-11.432 27.583-36.845-10.072-63.57-43.695-63.57-83.323 0-61.474-.014-57.062.031-58.259.716-19.291 29.663-18.772 30.049.529.192 9.583.158 21.693-.079 37.73-.505 33.979 18.985 61.35 45.001 75.74z" fill="#f0ccb6"/><path d="m265.628 321.925c1.124 4.106-1.063 8.404-5.093 9.772-17.885 6.074-38.726 6.223-57.07-.052-3.973-1.359-6.141-5.578-5.051-9.633 1.67-6.216 1.511-10.769 1.613-11.635 20.068 7.849 43.611 7.955 63.93.07.028.234-.089 5.052 1.671 11.478z" fill="#c79a83"/><path d="m187.366 370.339c2.601 2.654 1.614 7.092-1.9 8.301l-24.551 8.447c-19.05 6.55-31.84 24.47-31.84 44.62 0 3.814-4.081 6.218-7.435 4.4-7.802-4.23-15.337-8.892-22.565-13.959v-10.44c0-20.15 12.803-38.033 31.84-44.62 37.236-12.884 38.461-12.842 43.69-15.56 3.32 7.352 7.677 13.623 12.761 18.811z" fill="#9cbcff"/></svg>