<svg id="svg8" height="512" viewBox="0 0 16.933333 16.933333" width="512" xmlns="http://www.w3.org/2000/svg" xmlns:svg="http://www.w3.org/2000/svg"><g id="layer2"><path id="path4112" d="m1.3218964 11.377083c-.1463273.000584-.2644024.119809-.2635588.266125v3.438598c0 .728298.5935845 1.32236 1.3219285 1.32236h12.1722839c.728345 0 1.322446-.594062 1.322446-1.32236v-3.438598c.000844-.146317-.117232-.265541-.263559-.266125z" fill="#5299d3" font-variant-ligatures="normal" font-variant-position="normal" font-variant-caps="normal" font-variant-numeric="normal" font-variant-alternates="normal" font-feature-settings="normal" text-indent="0" text-align="start" text-decoration-line="none" text-decoration-style="solid" text-decoration-color="#000000" text-transform="none" text-orientation="mixed" white-space="normal" shape-padding="0" isolation="auto" mix-blend-mode="normal" solid-color="#000000" solid-opacity="1" vector-effect="none"/><path id="path4249" d="m1.3218831 11.377083c-.1463273.000588-.2643984.119817-.2635498.266134v2.908866c0 .728296.5935388 1.3224 1.3218832 1.3224h10.3197835c.07042-.000013.137929-.0281.187585-.07803l2.987415-2.987416v-1.16582c.000849-.146317-.117223-.265546-.26355-.266134z" fill="#3587cb" font-variant-ligatures="normal" font-variant-position="normal" font-variant-caps="normal" font-variant-numeric="normal" font-variant-alternates="normal" font-feature-settings="normal" text-indent="0" text-align="start" text-decoration-line="none" text-decoration-style="solid" text-decoration-color="#000000" text-transform="none" text-orientation="mixed" white-space="normal" shape-padding="0" isolation="auto" mix-blend-mode="normal" solid-color="#000000" solid-opacity="1" vector-effect="none"/><path id="path4118" d="m2.3802661 1.8520833c-.7283443 0-1.3219285.5935457-1.3219285 1.3218428v10.8490789c0 .728296.5935842 1.322359 1.3219285 1.322359h10.0550279c.07042-.000013.137936-.0281.187592-.07803l3.174076-3.173869c.04994-.04965.07802-.117162.07803-.18758v-8.7319589c0-.7282971-.594101-1.3218428-1.322446-1.3218428-3.743234 0-8.4951918 0-12.1722799 0z" fill="#eee" font-variant-ligatures="normal" font-variant-position="normal" font-variant-caps="normal" font-variant-numeric="normal" font-variant-alternates="normal" font-feature-settings="normal" text-indent="0" text-align="start" text-decoration-line="none" text-decoration-style="solid" text-decoration-color="#000000" text-transform="none" text-orientation="mixed" white-space="normal" shape-padding="0" isolation="auto" mix-blend-mode="normal" solid-color="#000000" solid-opacity="1" vector-effect="none"/><path id="path4204" d="m2.3802165 1.8520833c-.7283444 0-1.3218832.593586-1.3218832 1.3218832v10.8489495c0 .728297.5935388 1.3224 1.3218832 1.3224h.5291667c-.7283444 0-1.3218832-.594103-1.3218832-1.3224v-10.8489495c0-.7282972.5935388-1.3218832 1.3218832-1.3218832z" fill="#d0d0d0" font-variant-ligatures="normal" font-variant-position="normal" font-variant-caps="normal" font-variant-numeric="normal" font-variant-alternates="normal" font-feature-settings="normal" text-indent="0" text-align="start" text-decoration-line="none" text-decoration-style="solid" text-decoration-color="#000000" text-transform="none" text-orientation="mixed" white-space="normal" shape-padding="0" isolation="auto" mix-blend-mode="normal" solid-color="#000000" solid-opacity="1" vector-effect="none"/><path id="path4120" d="m2.3802661 1.8520833c-.7283436 0-1.3219285.5935454-1.3219285 1.3218428v1.0604486c.0005809.1453088.1182406.2629609.2635588.2635419h14.2895406c.145318-.0005808.262978-.118233.263559-.2635419v-1.0604486c0-.7282974-.594101-1.3218428-1.322446-1.3218428z" fill="#ffca28" font-variant-ligatures="normal" font-variant-position="normal" font-variant-caps="normal" font-variant-numeric="normal" font-variant-alternates="normal" font-feature-settings="normal" text-indent="0" text-align="start" text-decoration-line="none" text-decoration-style="solid" text-decoration-color="#000000" text-transform="none" text-orientation="mixed" white-space="normal" shape-padding="0" isolation="auto" mix-blend-mode="normal" solid-color="#000000" solid-opacity="1" vector-effect="none"/><path id="path4122" d="m4.4975221.52916666c-.4351759 0-.7927437.35754453-.7927437.79269224v1.0588178c0 .4351477.3575678.7947592.7927437.7947592s.7932605-.3596115.7932605-.7947592v-1.0588178c0-.43514771-.3580846-.79269224-.7932605-.79269224z" fill="#5299d3" font-variant-ligatures="normal" font-variant-position="normal" font-variant-caps="normal" font-variant-numeric="normal" font-variant-alternates="normal" font-feature-settings="normal" text-indent="0" text-align="start" text-decoration-line="none" text-decoration-style="solid" text-decoration-color="#000000" text-transform="none" text-orientation="mixed" white-space="normal" shape-padding="0" isolation="auto" mix-blend-mode="normal" solid-color="#000000" solid-opacity="1" vector-effect="none"/><path id="path4193" d="m3.1755936 5.2909883c-.2885915 0-.5297016.2405775-.5297016.5291505v1.058301c0 .288573.2411098.5296672.5297016.5296672h1.0563026c.2885917 0 .5291848-.2410942.5291848-.5296672v-1.058301c0-.288573-.2405933-.5291505-.5291848-.5291505z" fill="#ffca28" font-variant-ligatures="normal" font-variant-position="normal" font-variant-caps="normal" font-variant-numeric="normal" font-variant-alternates="normal" font-feature-settings="normal" text-indent="0" text-align="start" text-decoration-line="none" text-decoration-style="solid" text-decoration-color="#000000" text-transform="none" text-orientation="mixed" white-space="normal" shape-padding="0" isolation="auto" mix-blend-mode="normal" solid-color="#000000" solid-opacity="1" vector-effect="none"/><path id="path4191" d="m6.3491522 5.2909883c-.2885917 0-.5291848.2405775-.5291848.5291505v1.058301c0 .288573.2405931.5296672.5291848.5296672h1.0588864c.2885918 0 .5291848-.2410942.5291848-.5296672v-1.058301c0-.288573-.240593-.5291505-.5291848-.5291505z" fill="#ffca28" font-variant-ligatures="normal" font-variant-position="normal" font-variant-caps="normal" font-variant-numeric="normal" font-variant-alternates="normal" font-feature-settings="normal" text-indent="0" text-align="start" text-decoration-line="none" text-decoration-style="solid" text-decoration-color="#000000" text-transform="none" text-orientation="mixed" white-space="normal" shape-padding="0" isolation="auto" mix-blend-mode="normal" solid-color="#000000" solid-opacity="1" vector-effect="none"/><path id="path4189" d="m9.5252947 5.2909883c-.2885915 0-.5291849.2405775-.5291849.5291505v1.058301c0 .288573.2405931.5296672.5291849.5296672h1.0583693c.288592 0 .529702-.2410945.529702-.5296672v-1.058301c0-.2885728-.24111-.5291505-.529702-.5291505z" fill="#ffca28" font-variant-ligatures="normal" font-variant-position="normal" font-variant-caps="normal" font-variant-numeric="normal" font-variant-alternates="normal" font-feature-settings="normal" text-indent="0" text-align="start" text-decoration-line="none" text-decoration-style="solid" text-decoration-color="#000000" text-transform="none" text-orientation="mixed" white-space="normal" shape-padding="0" isolation="auto" mix-blend-mode="normal" solid-color="#000000" solid-opacity="1" vector-effect="none"/><path id="path4187" d="m12.698853 5.2909883c-.288592 0-.529184.2405777-.529184.5291505v1.058301c0 .2885727.240592.5296672.529184.5296672h1.058887c.288592 0 .529185-.2410945.529185-.5296672v-1.058301c0-.2885728-.240593-.5291505-.529185-.5291505z" fill="#ffca28" font-variant-ligatures="normal" font-variant-position="normal" font-variant-caps="normal" font-variant-numeric="normal" font-variant-alternates="normal" font-feature-settings="normal" text-indent="0" text-align="start" text-decoration-line="none" text-decoration-style="solid" text-decoration-color="#000000" text-transform="none" text-orientation="mixed" white-space="normal" shape-padding="0" isolation="auto" mix-blend-mode="normal" solid-color="#000000" solid-opacity="1" vector-effect="none"/><path id="path4185" d="m3.1755936 8.466408c-.2885918 0-.5297016.2410942-.5297016.5296672v1.0583008c0 .288572.2411101.529151.5297016.529151h1.0563026c.2885915 0 .5291848-.240579.5291848-.529151v-1.0583008c0-.288573-.2405931-.5296672-.5291848-.5296672z" fill="#ffca28" font-variant-ligatures="normal" font-variant-position="normal" font-variant-caps="normal" font-variant-numeric="normal" font-variant-alternates="normal" font-feature-settings="normal" text-indent="0" text-align="start" text-decoration-line="none" text-decoration-style="solid" text-decoration-color="#000000" text-transform="none" text-orientation="mixed" white-space="normal" shape-padding="0" isolation="auto" mix-blend-mode="normal" solid-color="#000000" solid-opacity="1" vector-effect="none"/><path id="path4183" d="m6.3491522 8.466408c-.2885917 0-.5291848.2410942-.5291848.5296672v1.0583008c0 .288572.2405934.529151.5291848.529151h1.0588864c.2885915 0 .5291848-.240579.5291848-.529151v-1.0583008c0-.288573-.240593-.5296672-.5291848-.5296672z" fill="#ffca28" font-variant-ligatures="normal" font-variant-position="normal" font-variant-caps="normal" font-variant-numeric="normal" font-variant-alternates="normal" font-feature-settings="normal" text-indent="0" text-align="start" text-decoration-line="none" text-decoration-style="solid" text-decoration-color="#000000" text-transform="none" text-orientation="mixed" white-space="normal" shape-padding="0" isolation="auto" mix-blend-mode="normal" solid-color="#000000" solid-opacity="1" vector-effect="none"/><path id="path4181" d="m12.698853 8.466408c-.288592 0-.529184.2410944-.529184.5296672v1.0583008c0 .288572.240592.529151.529184.529151h1.058887c.288592 0 .529185-.240579.529185-.529151v-1.0583008c0-.2885728-.240593-.5296672-.529185-.5296672z" fill="#ffca28" font-variant-ligatures="normal" font-variant-position="normal" font-variant-caps="normal" font-variant-numeric="normal" font-variant-alternates="normal" font-feature-settings="normal" text-indent="0" text-align="start" text-decoration-line="none" text-decoration-style="solid" text-decoration-color="#000000" text-transform="none" text-orientation="mixed" white-space="normal" shape-padding="0" isolation="auto" mix-blend-mode="normal" solid-color="#000000" solid-opacity="1" vector-effect="none"/><path id="path4179" d="m3.1755936 11.642344c-.2885915 0-.5297016.238511-.5297016.527084v1.058818c0 .288572.2411101.529151.5297016.52915h1.0563026c.2885915 0 .5291848-.240578.5291848-.52915v-1.058818c0-.288573-.2405933-.527084-.5291848-.527084z" fill="#ffca28" font-variant-ligatures="normal" font-variant-position="normal" font-variant-caps="normal" font-variant-numeric="normal" font-variant-alternates="normal" font-feature-settings="normal" text-indent="0" text-align="start" text-decoration-line="none" text-decoration-style="solid" text-decoration-color="#000000" text-transform="none" text-orientation="mixed" white-space="normal" shape-padding="0" isolation="auto" mix-blend-mode="normal" solid-color="#000000" solid-opacity="1" vector-effect="none"/><path id="path4177" d="m6.3491522 11.642344c-.2885914 0-.5291848.238511-.5291848.527084v1.058818c0 .288572.2405934.52915.5291848.52915h1.0588864c.2885915 0 .5291848-.240578.5291848-.52915v-1.058818c0-.288573-.2405933-.527084-.5291848-.527084z" fill="#ffca28" font-variant-ligatures="normal" font-variant-position="normal" font-variant-caps="normal" font-variant-numeric="normal" font-variant-alternates="normal" font-feature-settings="normal" text-indent="0" text-align="start" text-decoration-line="none" text-decoration-style="solid" text-decoration-color="#000000" text-transform="none" text-orientation="mixed" white-space="normal" shape-padding="0" isolation="auto" mix-blend-mode="normal" solid-color="#000000" solid-opacity="1" vector-effect="none"/><path id="path4124" d="m9.5252947 11.642344c-.2885915 0-.5291849.238511-.5291849.527084v1.058818c0 .288572.2405934.52915.5291849.52915h1.0583693c.288592 0 .529702-.240578.529702-.52915v-1.058818c0-.288573-.24111-.527084-.529702-.527084z" fill="#ffca28" font-variant-ligatures="normal" font-variant-position="normal" font-variant-caps="normal" font-variant-numeric="normal" font-variant-alternates="normal" font-feature-settings="normal" text-indent="0" text-align="start" text-decoration-line="none" text-decoration-style="solid" text-decoration-color="#000000" text-transform="none" text-orientation="mixed" white-space="normal" shape-padding="0" isolation="auto" mix-blend-mode="normal" solid-color="#000000" solid-opacity="1" vector-effect="none"/><path id="path4126" d="m9.5252947 8.466408c-.2885918 0-.5291849.2410942-.5291849.5296672v1.0583008c0 .288572.2405934.529151.5291849.529151h1.0583693c.288592 0 .529702-.240579.529702-.529151v-1.0583008c0-.2885728-.24111-.5296672-.529702-.5296672z" fill="#5299d3" font-variant-ligatures="normal" font-variant-position="normal" font-variant-caps="normal" font-variant-numeric="normal" font-variant-alternates="normal" font-feature-settings="normal" text-indent="0" text-align="start" text-decoration-line="none" text-decoration-style="solid" text-decoration-color="#000000" text-transform="none" text-orientation="mixed" white-space="normal" shape-padding="0" isolation="auto" mix-blend-mode="normal" solid-color="#000000" solid-opacity="1" vector-effect="none"/><path id="path4128" d="m13.494181 11.642344c-.728344 0-1.324512.594062-1.324512 1.32236v2.38066h.265625c.07042-.000013.137936-.0281.187592-.07803l3.174076-3.173869c.04994-.04965.07802-.117162.07803-.18758v-.263542z" fill="#a0c7e7" font-variant-ligatures="normal" font-variant-position="normal" font-variant-caps="normal" font-variant-numeric="normal" font-variant-alternates="normal" font-feature-settings="normal" text-indent="0" text-align="start" text-decoration-line="none" text-decoration-style="solid" text-decoration-color="#000000" text-transform="none" text-orientation="mixed" white-space="normal" shape-padding="0" isolation="auto" mix-blend-mode="normal" solid-color="#000000" solid-opacity="1" vector-effect="none"/><path id="path4130" d="m6.6152344 2.9103515a.2646484.2646484 0 1 0 0 .5292968h3.7031246a.2646484.2646484 0 1 0 0-.5292968z" fill="#5299d3" font-variant-ligatures="normal" font-variant-position="normal" font-variant-caps="normal" font-variant-numeric="normal" font-variant-alternates="normal" font-feature-settings="normal" text-indent="0" text-align="start" text-decoration-line="none" text-decoration-style="solid" text-decoration-color="#000000" text-transform="none" text-orientation="mixed" white-space="normal" shape-padding="0" isolation="auto" mix-blend-mode="normal" solid-color="#000000" solid-opacity="1" vector-effect="none"/><path id="path4163" d="m13.494267 11.642183c-.728344 0-1.324467.594102-1.324467 1.3224v2.380733h.265617c.07042-.000015.137931-.0281.187585-.07803l.07596-.07596c0-.672088 0-1.537111 0-2.226738 0-.728298.596123-1.3224 1.324467-1.3224z" fill="#74addc" font-variant-ligatures="normal" font-variant-position="normal" font-variant-caps="normal" font-variant-numeric="normal" font-variant-alternates="normal" font-feature-settings="normal" text-indent="0" text-align="start" text-decoration-line="none" text-decoration-style="solid" text-decoration-color="#000000" text-transform="none" text-orientation="mixed" white-space="normal" shape-padding="0" isolation="auto" mix-blend-mode="normal" solid-color="#000000" solid-opacity="1" vector-effect="none"/><path id="path4168" d="m4.4973999.52916666c-.4351758 0-.7927165.35756876-.7927165.79271644v1.0588501c0 .4351478.3575407.7947835.7927165.7947835.093064 0 .1813187-.019494.2645833-.049609-.3058824-.1107404-.5281332-.4031344-.5281332-.7451745v-1.0588501c0-.34204001.2222508-.63343016.5281332-.74362382-.083265-.0299656-.1715193-.0490926-.2645833-.0490926z" fill="#3587cb" font-variant-ligatures="normal" font-variant-position="normal" font-variant-caps="normal" font-variant-numeric="normal" font-variant-alternates="normal" font-feature-settings="normal" text-indent="0" text-align="start" text-decoration-line="none" text-decoration-style="solid" text-decoration-color="#000000" text-transform="none" text-orientation="mixed" white-space="normal" shape-padding="0" isolation="auto" mix-blend-mode="normal" solid-color="#000000" solid-opacity="1" vector-effect="none"/><path id="path4171" d="m12.434409.52916666c-.435176 0-.792743.35754453-.792743.79269224v1.0588178c0 .4351477.357567.7947592.792743.7947592s.793261-.3596115.793261-.7947592v-1.0588178c0-.43514771-.358085-.79269224-.793261-.79269224z" fill="#5299d3" font-variant-ligatures="normal" font-variant-position="normal" font-variant-caps="normal" font-variant-numeric="normal" font-variant-alternates="normal" font-feature-settings="normal" text-indent="0" text-align="start" text-decoration-line="none" text-decoration-style="solid" text-decoration-color="#000000" text-transform="none" text-orientation="mixed" white-space="normal" shape-padding="0" isolation="auto" mix-blend-mode="normal" solid-color="#000000" solid-opacity="1" vector-effect="none"/><path id="path4173" d="m12.434287.52916666c-.435176 0-.792717.35756876-.792717.79271644v1.0588501c0 .4351478.357541.7947835.792717.7947835.09306 0 .181319-.019495.264583-.049609-.305882-.11074-.528133-.403134-.528133-.7451741v-1.0588505c0-.34204001.222251-.63343016.528133-.74362382-.08326-.0299656-.171519-.0490926-.264583-.0490926z" fill="#3587cb" font-variant-ligatures="normal" font-variant-position="normal" font-variant-caps="normal" font-variant-numeric="normal" font-variant-alternates="normal" font-feature-settings="normal" text-indent="0" text-align="start" text-decoration-line="none" text-decoration-style="solid" text-decoration-color="#000000" text-transform="none" text-orientation="mixed" white-space="normal" shape-padding="0" isolation="auto" mix-blend-mode="normal" solid-color="#000000" solid-opacity="1" vector-effect="none"/><g fill="#ecb200"><path id="path4199" d="m3.1755167 5.2911499c-.2885914 0-.5296834.2405935-.5296834.5291666v1.0583333c0 .2885731.2410915.5296834.5296834.5296834h.5291667c-.2885919 0-.5296834-.2411103-.5296834-.5296834v-1.0583333c0-.2885731.241092-.5291666.5296834-.5291666z" font-variant-ligatures="normal" font-variant-position="normal" font-variant-caps="normal" font-variant-numeric="normal" font-variant-alternates="normal" font-feature-settings="normal" text-indent="0" text-align="start" text-decoration-line="none" text-decoration-style="solid" text-decoration-color="#000000" text-transform="none" text-orientation="mixed" white-space="normal" shape-padding="0" isolation="auto" mix-blend-mode="normal" solid-color="#000000" solid-opacity="1" vector-effect="none"/><path id="path4209" d="m2.3802165 1.8520833c-.7283437 0-1.3218832.5935857-1.3218832 1.3218832v1.0604002c.0005809.1453089.1182316.2629689.2635498.2635499h.2656169c0-.2645833 0-.8026096 0-1.3239501 0-.7282975.5935395-1.3218832 1.3218832-1.3218832z" font-variant-ligatures="normal" font-variant-position="normal" font-variant-caps="normal" font-variant-numeric="normal" font-variant-alternates="normal" font-feature-settings="normal" text-indent="0" text-align="start" text-decoration-line="none" text-decoration-style="solid" text-decoration-color="#000000" text-transform="none" text-orientation="mixed" white-space="normal" shape-padding="0" isolation="auto" mix-blend-mode="normal" solid-color="#000000" solid-opacity="1" vector-effect="none"/><path id="path4217" d="m6.3505166 5.2911499c-.2885914 0-.5296834.2405935-.5296834.5291666v1.0583333c0 .2885731.2410915.5296834.5296834.5296834h.5291666c-.2885919 0-.5296834-.2411103-.5296834-.5296834v-1.0583333c0-.2885731.2410921-.5291666.5296834-.5291666z" font-variant-ligatures="normal" font-variant-position="normal" font-variant-caps="normal" font-variant-numeric="normal" font-variant-alternates="normal" font-feature-settings="normal" text-indent="0" text-align="start" text-decoration-line="none" text-decoration-style="solid" text-decoration-color="#000000" text-transform="none" text-orientation="mixed" white-space="normal" shape-padding="0" isolation="auto" mix-blend-mode="normal" solid-color="#000000" solid-opacity="1" vector-effect="none"/><path id="path4219" d="m9.5255166 5.2911499c-.2885914 0-.5296834.2405935-.5296834.5291666v1.0583333c0 .2885731.2410915.5296834.5296834.5296834h.5291664c-.2885917 0-.5296832-.2411103-.5296832-.5296834v-1.0583333c0-.2885731.2410921-.5291666.5296832-.5291666z" font-variant-ligatures="normal" font-variant-position="normal" font-variant-caps="normal" font-variant-numeric="normal" font-variant-alternates="normal" font-feature-settings="normal" text-indent="0" text-align="start" text-decoration-line="none" text-decoration-style="solid" text-decoration-color="#000000" text-transform="none" text-orientation="mixed" white-space="normal" shape-padding="0" isolation="auto" mix-blend-mode="normal" solid-color="#000000" solid-opacity="1" vector-effect="none"/><path id="path4221" d="m12.700516 5.2911499c-.288591 0-.529683.2405935-.529683.5291666v1.0583333c0 .2885731.241092.5296834.529683.5296834h.529167c-.288592 0-.529683-.2411103-.529683-.5296834v-1.0583333c0-.2885731.241092-.5291666.529683-.5291666z" font-variant-ligatures="normal" font-variant-position="normal" font-variant-caps="normal" font-variant-numeric="normal" font-variant-alternates="normal" font-feature-settings="normal" text-indent="0" text-align="start" text-decoration-line="none" text-decoration-style="solid" text-decoration-color="#000000" text-transform="none" text-orientation="mixed" white-space="normal" shape-padding="0" isolation="auto" mix-blend-mode="normal" solid-color="#000000" solid-opacity="1" vector-effect="none"/><path id="path4223" d="m12.700516 8.4666666c-.288591 0-.529683.2405935-.529683.5291666v1.0583328c0 .288574.241092.529684.529683.529684h.529167c-.288592 0-.529683-.24111-.529683-.529684v-1.0583328c0-.2885731.241092-.5291666.529683-.5291666z" font-variant-ligatures="normal" font-variant-position="normal" font-variant-caps="normal" font-variant-numeric="normal" font-variant-alternates="normal" font-feature-settings="normal" text-indent="0" text-align="start" text-decoration-line="none" text-decoration-style="solid" text-decoration-color="#000000" text-transform="none" text-orientation="mixed" white-space="normal" shape-padding="0" isolation="auto" mix-blend-mode="normal" solid-color="#000000" solid-opacity="1" vector-effect="none"/><path id="path4225" d="m6.3505162 8.4666666c-.288591 0-.529683.2405935-.529683.5291666v1.0583328c0 .288574.241092.529684.529683.529684h.529167c-.288592 0-.529683-.24111-.529683-.529684v-1.0583328c0-.2885731.241092-.5291666.529683-.5291666z" font-variant-ligatures="normal" font-variant-position="normal" font-variant-caps="normal" font-variant-numeric="normal" font-variant-alternates="normal" font-feature-settings="normal" text-indent="0" text-align="start" text-decoration-line="none" text-decoration-style="solid" text-decoration-color="#000000" text-transform="none" text-orientation="mixed" white-space="normal" shape-padding="0" isolation="auto" mix-blend-mode="normal" solid-color="#000000" solid-opacity="1" vector-effect="none"/><path id="path4227" d="m3.1755163 8.4666666c-.288591 0-.529683.2405935-.529683.5291666v1.0583328c0 .288574.241092.529684.529683.529684h.529167c-.288592 0-.529683-.24111-.529683-.529684v-1.0583328c0-.2885731.241092-.5291666.529683-.5291666z" font-variant-ligatures="normal" font-variant-position="normal" font-variant-caps="normal" font-variant-numeric="normal" font-variant-alternates="normal" font-feature-settings="normal" text-indent="0" text-align="start" text-decoration-line="none" text-decoration-style="solid" text-decoration-color="#000000" text-transform="none" text-orientation="mixed" white-space="normal" shape-padding="0" isolation="auto" mix-blend-mode="normal" solid-color="#000000" solid-opacity="1" vector-effect="none"/><path id="path4229" d="m3.1755163 11.641667c-.288591 0-.529683.240593-.529683.529166v1.058333c0 .288574.241092.529684.529683.529684h.529167c-.288592 0-.529683-.24111-.529683-.529684v-1.058333c0-.288573.241092-.529166.529683-.529166z" font-variant-ligatures="normal" font-variant-position="normal" font-variant-caps="normal" font-variant-numeric="normal" font-variant-alternates="normal" font-feature-settings="normal" text-indent="0" text-align="start" text-decoration-line="none" text-decoration-style="solid" text-decoration-color="#000000" text-transform="none" text-orientation="mixed" white-space="normal" shape-padding="0" isolation="auto" mix-blend-mode="normal" solid-color="#000000" solid-opacity="1" vector-effect="none"/><path id="path4231" d="m6.3505162 11.641667c-.288591 0-.529683.240593-.529683.529166v1.058333c0 .288574.241092.529684.529683.529684h.529167c-.288592 0-.529683-.24111-.529683-.529684v-1.058333c0-.288573.241092-.529166.529683-.529166z" font-variant-ligatures="normal" font-variant-position="normal" font-variant-caps="normal" font-variant-numeric="normal" font-variant-alternates="normal" font-feature-settings="normal" text-indent="0" text-align="start" text-decoration-line="none" text-decoration-style="solid" text-decoration-color="#000000" text-transform="none" text-orientation="mixed" white-space="normal" shape-padding="0" isolation="auto" mix-blend-mode="normal" solid-color="#000000" solid-opacity="1" vector-effect="none"/><path id="path4233" d="m9.5255158 11.641667c-.288591 0-.529683.240593-.529683.529166v1.058333c0 .288574.241092.529684.529683.529684h.5291672c-.2885922 0-.5296832-.24111-.5296832-.529684v-1.058333c0-.288573.241092-.529166.5296832-.529166z" font-variant-ligatures="normal" font-variant-position="normal" font-variant-caps="normal" font-variant-numeric="normal" font-variant-alternates="normal" font-feature-settings="normal" text-indent="0" text-align="start" text-decoration-line="none" text-decoration-style="solid" text-decoration-color="#000000" text-transform="none" text-orientation="mixed" white-space="normal" shape-padding="0" isolation="auto" mix-blend-mode="normal" solid-color="#000000" solid-opacity="1" vector-effect="none"/></g><path id="path4235" d="m9.5255158 8.4666673c-.288591 0-.529683.240593-.529683.529166v1.0583327c0 .288574.241092.529684.529683.529684h.5291672c-.2885922 0-.5296832-.24111-.5296832-.529684v-1.0583327c0-.288573.241092-.529166.5296832-.529166z" fill="#3587cb" font-variant-ligatures="normal" font-variant-position="normal" font-variant-caps="normal" font-variant-numeric="normal" font-variant-alternates="normal" font-feature-settings="normal" text-indent="0" text-align="start" text-decoration-line="none" text-decoration-style="solid" text-decoration-color="#000000" text-transform="none" text-orientation="mixed" white-space="normal" shape-padding="0" isolation="auto" mix-blend-mode="normal" solid-color="#000000" solid-opacity="1" vector-effect="none"/></g></svg>