<svg height="512pt" viewBox="0 -27 512 512" width="512pt" xmlns="http://www.w3.org/2000/svg" xmlns:xlink="http://www.w3.org/1999/xlink"><linearGradient id="a"><stop offset="0" stop-color="#45425a"/><stop offset="1" stop-color="#2d3251"/></linearGradient><linearGradient id="b" gradientUnits="userSpaceOnUse" x1="255.5215403826" x2="331.498056166" xlink:href="#a" y1="23.6369533752" y2="95.9072903112"/><linearGradient id="c"><stop offset="0" stop-color="#ecf7ff"/><stop offset="1" stop-color="#c2e0ff"/></linearGradient><linearGradient id="d" gradientUnits="userSpaceOnUse" x1="256.00011" x2="256.00011" xlink:href="#c" y1="105.280307672" y2="120.3003862828"/><linearGradient id="e" gradientUnits="userSpaceOnUse" x1="256.00011" x2="256.00011" xlink:href="#c" y1="125.9507604754" y2="159.922276249"/><linearGradient id="f" gradientUnits="userSpaceOnUse" x1="256.00011" x2="256.00011" xlink:href="#a" y1="158.1982409984" y2="433.9821398914"/><linearGradient id="g"><stop offset="0" stop-color="#2d3251" stop-opacity="0"/><stop offset=".0488" stop-color="#2d3251" stop-opacity=".047059"/><stop offset="1" stop-color="#2d3251"/></linearGradient><linearGradient id="h" gradientUnits="userSpaceOnUse" x1="62.2840236254" x2="135.0509003826" xlink:href="#g" y1="330.5482570158" y2="360.6586887774"/><linearGradient id="i" gradientUnits="userSpaceOnUse" x1="439.5440571018" x2="363.5900291712" xlink:href="#a" y1="342.341429142" y2="397.5808317012"/><linearGradient id="j" gradientUnits="userSpaceOnUse" x1="426.0743352356" x2="246.1935991196" xlink:href="#g" y1="305.8636220954" y2="125.9827855872"/><linearGradient id="k" gradientTransform="matrix(-1.003922 0 0 -1.003922 1782.447887 452.955658)" gradientUnits="userSpaceOnUse" x1="1358.1763" x2="1458.699" xlink:href="#a" y1="153.6184" y2="254.141"/><linearGradient id="l" gradientUnits="userSpaceOnUse" x1="237.107301882" x2="11.0048925718" xlink:href="#g" y1="331.9991250902" y2="105.8968161722"/><linearGradient id="m" gradientTransform="matrix(-1.003922 0 0 -1.003922 1377.549051 452.955658)" gradientUnits="userSpaceOnUse" x1="1178.499" x2="1261.5118" xlink:href="#a" y1="162.996" y2="246.0089"/><linearGradient id="n" gradientUnits="userSpaceOnUse" x1="190.0481569554" x2="101.2990427426" xlink:href="#g" y1="284.9360648678" y2="196.186950655"/><linearGradient id="o" gradientUnits="userSpaceOnUse" x1="134.6516406032" x2="162.2335944156" xlink:href="#c" y1="229.5396489078" y2="257.1216027202"/><linearGradient id="p" gradientUnits="userSpaceOnUse" x1="396.9468435042" x2="63.7198328698" xlink:href="#g" y1="505.8639590134" y2="172.636948379"/><linearGradient id="q" gradientUnits="userSpaceOnUse" x1="190.8427612184" x2="190.8427612184" xlink:href="#a" y1="323.4961065346" y2="411.1629928314"/><linearGradient id="r" gradientTransform="matrix(-1.003922 0 0 -1.003922 403.911078 1617.096985)" gradientUnits="userSpaceOnUse" x1="212.2361" x2="212.2361" xlink:href="#a" y1="1223.8877" y2="1292.7588"/><linearGradient id="s" gradientUnits="userSpaceOnUse" x1="226.4183435636" x2="173.5084416132" xlink:href="#g" y1="400.4771466712" y2="347.5672447208"/><linearGradient id="t" gradientUnits="userSpaceOnUse" x1="170.358033985" x2="197.5920284322" xlink:href="#c" y1="344.4167367004" y2="371.6508315398"/><linearGradient id="u" gradientUnits="userSpaceOnUse" x1="321.1294493578" x2="321.1294493578" xlink:href="#a" y1="323.4961065346" y2="411.1629928314"/><linearGradient id="v" gradientTransform="matrix(-1.003922 0 0 -1.003922 403.911078 1617.096985)" gradientUnits="userSpaceOnUse" x1="82.4583" x2="82.4583" xlink:href="#a" y1="1223.8877" y2="1292.7588"/><linearGradient id="w" gradientUnits="userSpaceOnUse" x1="356.705031703" x2="303.7952301448" xlink:href="#g" y1="400.477046279" y2="347.5672447208"/><linearGradient id="x" gradientUnits="userSpaceOnUse" x1="301.88436501" x2="336.0449192962" xlink:href="#c" y1="345.656379586" y2="379.8169338722"/><linearGradient id="y" gradientUnits="userSpaceOnUse" x1="331.557789525" x2="354.1356941284" xlink:href="#a" y1="211.6154247354" y2="234.1933293388"/><linearGradient id="z" gradientUnits="userSpaceOnUse" x1="378.6947384066" x2="395.7357120034" xlink:href="#a" y1="258.752373617" y2="275.7932468216"/><linearGradient id="A" gradientUnits="userSpaceOnUse" x1="356.2330879708" x2="380.9093903386" y1="280.3117993514" y2="304.988001327"><stop offset="0" stop-color="#00c6f6"/><stop offset=".8567" stop-color="#0b9cfd"/><stop offset="1" stop-color="#0d94fe"/></linearGradient><linearGradient id="B" gradientUnits="userSpaceOnUse" x1="356.233188363" x2="380.9092899464" y1="191.7332514864" y2="216.409453462"><stop offset="0" stop-color="#d3e843"/><stop offset=".6244" stop-color="#a9c93c"/><stop offset="1" stop-color="#8db437"/></linearGradient><linearGradient id="C"><stop offset="0" stop-color="#ffd459"/><stop offset=".2296" stop-color="#ffd355"/><stop offset=".4362" stop-color="#ffcf4a"/><stop offset=".634" stop-color="#ffc838"/><stop offset=".825" stop-color="#ffbf1f"/><stop offset="1" stop-color="#ffb400"/></linearGradient><linearGradient id="D" gradientUnits="userSpaceOnUse" x1="311.943878187" x2="336.6200801626" xlink:href="#C" y1="236.0224891754" y2="260.698691151"/><linearGradient id="E"><stop offset="0" stop-color="#ff706a"/><stop offset=".8111" stop-color="#f64640"/><stop offset="1" stop-color="#f43b36"/></linearGradient><linearGradient id="F" gradientUnits="userSpaceOnUse" x1="400.7902724416" x2="425.4665748094" xlink:href="#E" y1="236.0224891754" y2="260.698691151"/><linearGradient id="G" gradientUnits="userSpaceOnUse" x1="231.2868633026" x2="231.2868633026" xlink:href="#C" y1="293.5444952334" y2="319.1616732996"/><linearGradient id="H" gradientUnits="userSpaceOnUse" x1="280.6854476658" x2="280.6854476658" xlink:href="#E" y1="293.5444952334" y2="319.1616732996"/><linearGradient id="I" gradientUnits="userSpaceOnUse" x1="256.00011" x2="256.00011" xlink:href="#g" y1="102.8482062348" y2="87.325162702"/><linearGradient id="J" gradientUnits="userSpaceOnUse" x1="253.0173573458" x2="262.3744123468" xlink:href="#g" y1="35.7078103266" y2="60.4483637024"/><path d="m269.332031 116.164062h-26.664062v-35.332031h-12.898438c-22.054687 0-40.617187-17.359375-41.160156-39.410156-.554687-22.710937 17.730469-41.3710938 40.308594-41.421875h.09375c22.242187.0507812 40.320312 18.160156 40.320312 40.414062v13.75h123.082031c7.363282 0 13.332032 5.96875 13.332032 13.332032 0 7.367187-5.96875 13.335937-13.332032 13.335937h-123.082031zm-40.367187-89.496093c-7.558594.023437-13.699219 6.183593-13.699219 13.746093 0 7.582032 6.167969 13.75 13.746094 13.75h13.65625v-13.75c0-7.5625-6.144531-13.722656-13.703125-13.746093zm0 0" fill="url(#b)"/><path d="m283.800781 129.910156h-55.601562v-14.046875c0-7.425781 6.019531-13.445312 13.445312-13.445312h28.714844c7.421875 0 13.441406 6.019531 13.441406 13.445312zm0 0" fill="url(#d)"/><path d="m363.316406 181.652344h-214.632812v-43.875c0-10.105469 8.191406-18.296875 18.300781-18.296875h178.035156c10.105469 0 18.296875 8.191406 18.296875 18.296875zm0 0" fill="url(#e)"/><path d="m508.746094 354.945312c2.121094 7.179688 3.253906 14.789063 3.253906 22.667969 0 28.800781-15.199219 54.054688-38.007812 68.175781-2.875 1.804688-5.894532 3.410157-9.007813 4.820313-.78125.363281-1.578125.710937-2.386719 1.046875-9.472656 3.9375-19.863281 6.117188-30.773437 6.117188-22.066407 0-42.054688-8.910157-56.539063-23.339844-.042968-.042969-.097656-.097656-.140625-.140625-.015625-.011719-.027343-.027344-.042969-.039063-.195312-.199218-.390624-.394531-.585937-.589844-.53125-.527343-1.0625-1.046874-1.59375-1.5625-.527344-.515624-1.058594-1.035156-1.605469-1.535156-.472656-.460937-.960937-.90625-1.4375-1.339844-.308594-.296874-.628906-.589843-.9375-.867187-.125-.113281-.261718-.226563-.390625-.335937-.039062-.042969-.070312-.082032-.109375-.113282-.433594-.390625-.867187-.765625-1.300781-1.15625-.792969-.699218-1.589844-1.398437-2.402344-2.082031-.921875-.796875-1.871093-1.578125-2.804687-2.335937-.128906-.109376-.28125-.222657-.421875-.347657-.027344-.027343-.054688-.042969-.070313-.054687 0 0-.011718-.015625-.027344-.03125-.011718 0-.027343-.011719-.054687-.039063-.28125-.226562-.546875-.433593-.8125-.644531-.066406-.054688-.136719-.109375-.207031-.167969-.574219-.460937-1.148438-.90625-1.71875-1.339843-.070313-.058594-.140625-.113282-.210938-.152344-.152344-.140625-.320312-.265625-.488281-.390625-.109375-.085938-.222656-.167969-.335937-.253907-.082032-.070312-.152344-.125-.234376-.179687-.476562-.378906-.964843-.726563-1.453124-1.089844-.210938-.167969-.433594-.320312-.65625-.476562-.378907-.292969-.769532-.570313-1.160157-.851563-.113281-.082031-.222656-.167968-.335937-.234375-.53125-.394531-1.046875-.753906-1.59375-1.132812-.265625-.183594-.515625-.363281-.78125-.53125-.054688-.054688-.109375-.097657-.179688-.125-.097656-.070313-.183594-.140625-.28125-.210938-.011718 0-.011718 0-.011718 0-1.300782-.894531-2.613282-1.757812-3.925782-2.613281-.335937-.222656-.671875-.429688-1.019531-.65625-.28125-.179688-.574219-.363281-.867187-.53125-.113282-.082031-.210938-.152344-.320313-.195312v-.011719s0 0-.015625 0c-.140625-.097657-.292969-.195313-.445312-.292969-.320313-.199219-.644532-.394531-.964844-.585938-.488282-.308593-.976563-.601562-1.480469-.882812-.476563-.304688-.949219-.585938-1.4375-.863281-.042969-.03125-.085937-.042969-.125-.070313-.085937-.042968-.183594-.113281-.292969-.167968-.167968-.097657-.351562-.195313-.519531-.292969-1.058594-.617188-2.121094-1.203125-3.199219-1.789063-.011718-.015625-.039062-.015625-.054687-.042968-.015625 0-.015625 0-.015625 0-1.085938-.585938-2.191406-1.171876-3.292969-1.730469-.644531-.335938-1.285156-.65625-1.929687-.980469-.542969-.277344-1.089844-.542969-1.648438-.808594-.042969-.027344-.082031-.054687-.125-.070312 0 .015625-.015625 0-.015625 0-.417969-.210938-.824219-.40625-1.242187-.601563-.027344-.011719-.054688-.027343-.082032-.027343-.308594-.152344-.628906-.304688-.949218-.460938-.6875-.304688-1.355469-.613281-2.039063-.921875-.308594-.152344-.628906-.292969-.9375-.417969-.265625-.109375-.542969-.238281-.808594-.347656-.042969-.03125-.070312-.042969-.113281-.042969-.011719-.027343-.042969-.027343-.054688-.027343-.15625-.070313-.320312-.140626-.476562-.226563-.277344-.109375-.570312-.238281-.867188-.363281-.136718-.054688-.277343-.109375-.402343-.167969 0 0 0 0-.015625 0-.070313-.027344-.136719-.070313-.195313-.097656-.011719 0-.011719 0-.011719 0-.324218-.136719-.644531-.261719-.964843-.390625-.183594-.082032-.351563-.152344-.53125-.222656-.238281-.097657-.476563-.195313-.714844-.277344-.472656-.199219-.949219-.394532-1.421875-.574219-.292969-.113281-.601562-.238281-.894531-.347656-.082031-.03125-.167969-.058594-.25-.097657-.867188-.324218-1.734375-.65625-2.613281-.964843-.140626-.054688-.292969-.113281-.445313-.167969-1.117187-.40625-2.25-.796875-3.382813-1.1875-.460937-.152344-.921874-.308594-1.382812-.460938-.824219-.265624-1.632812-.515624-2.457031-.769531l-1.632813-.5c-.855468-.253906-1.691406-.492187-2.542968-.742187-.195313-.054688-.378907-.109375-.558594-.152344-.8125-.222656-1.621094-.445312-2.433594-.644531-.011719 0-.011719 0-.011719 0-.027343-.027344-.058593-.027344-.082031-.027344-.015625-.011719-.03125-.011719-.042969-.011719-.851562-.226562-1.703125-.449218-2.570312-.65625-.53125-.128906-1.074219-.253906-1.605469-.378906-.753906-.183594-1.523438-.351562-2.277344-.515625-.726562-.167969-1.453125-.324219-2.179687-.460937-.53125-.113282-1.074219-.226563-1.605469-.335938-.921875-.183594-1.84375-.351562-2.78125-.519531-.445312-.070313-.894531-.152344-1.339844-.238281-1.144531-.195313-2.304687-.375-3.449218-.542969-2.070313-.308594-4.148438-.574219-6.21875-.796875-.78125-.097656-1.5625-.167969-2.332032-.25-1.1875-.113282-2.375-.210938-3.574218-.292969-.363282-.042969-.726563-.070313-1.089844-.085937-1.105469-.082032-2.207032-.152344-3.324219-.195313-1.230469-.070313-2.460937-.109375-3.671875-.136719-.253906-.015625-.492188-.015625-.726562-.015625-1.285157-.042969-2.570313-.054687-3.855469-.054687h-.097657c-.851562 0-1.691406.011718-2.527343.027344h-.378907c-.390624 0-.769531.011718-1.160156.027343h-.265625c-.125 0-.261719.015625-.390625.015625-.082031 0-.167968 0-.238281.011719-.363281 0-.738281.015625-1.101563.027344-.433593.015625-.851562.03125-1.285156.058593-.335937.011719-.65625.027344-.976562.042969-.167969 0-.335938.011719-.503906.027344-.097657 0-.210938 0-.308594.027344-.179688 0-.363282 0-.542969.027343-.113281 0-.238281 0-.351563.015626-.585937.027343-1.171874.070312-1.757812.109374-.070312 0-.15625.015626-.226562.015626-.125.015624-.25.015624-.375.027343 0 0 0 0-.015626 0-.347656.027344-.683593.058594-1.019531.082031-.699219.058594-1.382812.113282-2.082031.167969-.082031.015625-.167969.015625-.25.03125-.320312.027344-.628906.054688-.9375.097657-.640625.054687-1.269531.125-1.898438.195312v.011719c-.011718-.011719-.011718 0-.011718 0h-.015625c-.097657 0-.195313.015625-.292969.027343-.378906.03125-.753906.070313-1.117188.128907-1.074218.125-2.152343.261719-3.214843.417969-.109375.011718-.222657.027343-.332031.042968-.085938 0-.15625.011719-.238282.027344-.183594.027344-.378906.054688-.558594.082031-.015624 0-.042968 0-.058593.015625-.445313.054688-.878907.109375-1.328125.195313-.011719 0-.011719 0-.027344 0-.335938.054687-.683594.109375-1.019531.167969-.40625.054687-.808594.125-1.214844.195312-1.046875.167969-2.082031.363281-3.128906.558594-.546875.097656-1.089844.210937-1.621094.308594-.433594.082031-.851563.167968-1.269531.261718-.070313 0-.128906.015625-.183594.042969-.210938.027344-.402344.070313-.613281.125-.238281.042969-.476563.097656-.699219.140625-.210938.042969-.417969.097656-.613281.140625h-.015625c-.210938.042969-.433594.097656-.628906.140625-.097657.011719-.179688.027344-.277344.054688-.351563.082031-.6875.152343-1.019532.238281-.253906.054687-.492187.109375-.726562.167969-.113281.027343-.226562.054687-.335938.082031-.40625.097656-.8125.195312-1.214843.292969-.097657.027343-.195313.042968-.292969.070312-.503906.125-1.007812.25-1.511719.390625-.125.03125-.261719.058594-.390625.097656-.054687.015625-.125.027344-.179687.058594 0 0 0 0-.015625 0-1.4375.363281-2.863282.765625-4.289063 1.171875-.167969.058594-.332031.097656-.5.152344-.058593.015625-.113281.03125-.167969.042968-.140624.042969-.28125.085938-.417968.140626 0 0 0-.015626-.015625 0-.152344.042968-.320313.082031-.476563.140624-.765625.222657-1.519531.460938-2.289062.710938-.40625.113281-.8125.253906-1.214844.390625-.855469.265625-1.691406.546875-2.527344.839844-.253906.082031-.492187.167969-.714844.238281-.195312.070312-.40625.140625-.601562.210938-.195312.070312-.390625.136718-.585938.222656-.542968.179687-1.101562.378906-1.632812.585937-.195312.070313-.390625.140625-.574219.210938-.167969.054687-.347656.125-.515625.195312-.363281.125-.726562.265625-1.089844.402344-.234374.085937-.472656.183594-.710937.265625-.40625.167969-.796875.320312-1.1875.488281-.28125.097657-.546875.210938-.8125.324219-.136719.039062-.277344.097656-.402344.152344-.113281.042968-.210937.082031-.308593.140625-.222657.082031-.445313.167969-.671876.265625-.53125.207031-1.046874.429687-1.546874.65625-.183594.082031-.378907.152344-.5625.238281-.136719.066406-.292969.125-.429688.195313 0 0 0 0-.015625 0-.082031.027343-.152344.070312-.238281.109374-.179688.070313-.363282.15625-.542969.222657-.195313.085937-.378906.167969-.574219.265625-.320312.140625-.640625.28125-.949218.421875-.921876.417969-1.828126.835937-2.738282 1.269531-.25.109375-.488281.238281-.726562.347656-.125.042969-.25.113282-.390625.183594 0 0-.015625.011719-.015625 0-.304688.140625-.597656.292969-.90625.460938-.238282.109374-.460938.222656-.683594.335937-.167969.070313-.335938.152344-.488281.25-.058594.011719-.113281.042969-.15625.082031-.222657.085938-.429688.195313-.65625.308594-.375.195312-.753907.390625-1.128907.585938-1.914062.976562-3.800781 2.011718-5.671874 3.074218-.65625.363282-1.328126.753906-1.984376 1.144532-.195312.109374-.40625.238281-.601562.347656-.363281.210937-.726562.433594-1.089844.644531-.152344.097656-.320312.210937-.472656.304687-.042969.015626-.070312.03125-.097656.058594-.183594.097656-.347656.210938-.515625.304688-.15625.085937-.292969.183594-.433594.265625-.222656.125-.433594.265625-.65625.421875-.65625.386718-1.300781.792968-1.941406 1.210937-1.550781.980469-3.074219 2-4.582031 3.0625-.824219.554688-1.648438 1.128907-2.457032 1.714844-.113281.085937-.226562.15625-.335937.238281-.390625.277344-.78125.558594-1.160157.851563-.894531.644531-1.773437 1.300781-2.652343 1.96875-.015625.015625-.03125.015625-.03125.03125-1.074219.824219-2.136719 1.648437-3.195313 2.511719-.183594.125-.351562.28125-.53125.417968-1.035156.839844-2.066406 1.691406-3.089844 2.570313-.808593.6875-1.605468 1.371093-2.402343 2.082031-.429688.378906-.863281.769531-1.296875 1.160156-.964844.867188-1.929688 1.746094-2.878906 2.652344-.515626.476562-1.03125.976562-1.535157 1.46875-.503906.488281-1.003906.992188-1.507812 1.492188-.042969.042968-.097657.097656-.15625.140624-.195313.195313-.390625.390626-.570313.570313-.125.140625-.253906.265625-.363281.394531-.308594.304688-.617187.613282-.921875.933594.125-.152344.277344-.304688.417969-.445312-14.429688 14.023437-34.125 22.65625-55.84375 22.65625-44.269531 0-80.167969-35.894532-80.167969-80.160157 0-8.226562 1.242188-16.160156 3.546875-23.632812.210937-.699219.433594-1.394531.671875-2.082031l40.785156-126.238282c.265625-.851562.53125-1.703125.808594-2.558594.113281-.363281.238281-.726562.363281-1.085937.265625-.796875.546875-1.578125.839844-2.375.054687-.152344.113281-.320313.183594-.488281.363281-.980469.738281-1.957032 1.144531-2.933594 0-.015625 0-.027344.011719-.042969.335937-.851562.699219-1.703125 1.078125-2.554687.082031-.210938.167968-.421875.261718-.628906.421876-.964844.867188-1.929688 1.316407-2.863282.933593-2 1.941406-3.96875 3.015625-5.894531.53125-.964844 1.074218-1.914063 1.632812-2.863281 19.554688-33.328125 55.773438-55.703125 97.230469-55.703125h206.191406c41.457031 0 77.675781 22.375 97.226563 55.703125.5625.949218 1.105468 1.898437 1.636718 2.863281 1.074219 1.925781 2.082032 3.898437 3.015626 5.894531.449218.933594.894531 1.898438 1.3125 2.863282.140624.292968.265624.597656.378906.890624.320312.699219.613281 1.414063.894531 2.125.097656.210938.179687.417969.25.640626.351563.824218.671875 1.664062.980469 2.5.792968 2.140624 1.519531 4.316406 2.191406 6.511718l5.644531 17.488282 34.722657 107.453124c.042968.125.085937.238282.125.363282.015624.042968.027343.070312.042968.109375l1.160156 3.605469c.023438.082031.054688.167968.082032.265624zm0 0" fill="url(#f)"/><path d="m196.734375 395.507812c-.390625.136719-.78125.292969-1.160156.445313-.207031.070313-.417969.152344-.625.25-.03125 0-.058594.015625-.085938.015625-.40625.167969-.796875.320312-1.1875.488281-.277343.097657-.542969.210938-.808593.320313-.140626.042968-.28125.097656-.40625.152344-.335938.128906-.65625.265624-.976563.40625-.53125.210937-1.046875.433593-1.550781.65625-.179688.085937-.363282.15625-.558594.238281-.167969.058593-.320312.125-.476562.195312-.753907.335938-1.519532.671875-2.277344 1.023438-.90625.402343-1.828125.824219-2.734375 1.269531-.042969.011719-.085938.042969-.125.054688-.199219.085937-.40625.183593-.601563.292968-.125.042969-.25.113282-.390625.183594 0 0-.015625.011719-.015625 0-.53125.25-1.0625.515625-1.59375.796875-.167968.070313-.332031.152344-.5.234375-.265625.125-.53125.265625-.796875.40625-.378906.195312-.753906.390625-1.132812.585938-.082031.042968-.179688.097656-.265625.140624-1.816406.933594-3.617188 1.914063-5.402344 2.933594-.65625.363282-1.328125.753906-1.984375 1.144532-.195313.113281-.40625.238281-.601563.351562-.726562.417969-1.453124.863281-2.179687 1.3125-.152344.082031-.292969.179688-.433594.265625-.070312.039063-.136719.082031-.195312.109375-.152344.097656-.304688.195312-.472657.292969-.644531.40625-1.285156.8125-1.929687 1.230469-1.550781.976562-3.070313 1.996093-4.578125 3.058593-.824219.558594-1.648438 1.128907-2.460938 1.71875-.109374.082031-.222656.152344-.335937.234375-.390625.28125-.78125.558594-1.160156.851563-.890625.644531-1.773438 1.300781-2.652344 1.972656-.011719.011719-.027344.011719-.027344.027344-1.074219.824219-2.136719 1.648437-3.199219 2.511719-.179687.128906-.347656.28125-.53125.421874-1.03125.835938-2.066406 1.6875-3.085937 2.566407-.808594.6875-1.605469 1.371093-2.402344 2.082031-.433593.378906-.867187.769531-1.300781 1.160156-.960938.867188-1.925781 1.746094-2.875 2.652344-.824219.769531-1.648438 1.566406-2.460938 2.347656-.054687.070313-.125.140625-.195312.210938l-.542969.542968c-.460937.449219-.910156.910157-1.355469 1.371094-.027343.027344-.058593.054688-.085937.082032-14.425781 14.023437-34.121094 22.65625-55.839844 22.65625-44.277343 0-80.175781-35.894532-80.175781-80.160157 0-8.226562 1.242188-16.160156 3.546875-23.632812.210937-.699219.433594-1.394531.671875-2.082031l40.785156-126.238282c.265625-.851562.53125-1.703125.808594-2.558594.113281-.363281.238281-.726562.363281-1.085937.265625-.796875.546875-1.578125.839844-2.375.054687-.152344.113281-.320313.183594-.488281.363281-.980469.738281-1.957032 1.144531-2.933594 0-.015625 0-.027344.011719-.042969.335937-.851562.699219-1.703125 1.078125-2.554687.082031-.210938.167968-.421875.261718-.628906.421876-.964844.867188-1.929688 1.316407-2.863282.949219-2 1.953125-3.96875 3.015625-5.894531.53125-.964844 1.074218-1.914063 1.632812-2.863281-5.765625 12.78125-8.980468 26.957031-8.980468 41.886718 0 20.671876 6.160156 39.894532 16.75 55.941407 16.828124 25.546875 44.875 43.046875 77.128906 45.519531 1.117187.085938 2.234375.140625 3.363281.199219 1.496094.070312 3.003906.097656 4.511719.097656 1.648437 0 3.296875-.042969 4.929687-.128906 2.054688-.097657 4.082031-.25 6.105469-.488281 1.675781-.167969 3.339844-.390626 4.988281-.667969 3.65625-.574219 7.246094-1.355469 10.753907-2.308594zm0 0" fill="url(#h)"/><path d="m473.992188 445.789062c-2.875 1.804688-5.894532 3.410157-9.007813 4.820313-.78125.363281-1.578125.710937-2.386719 1.046875-9.472656 3.9375-19.863281 6.117188-30.773437 6.117188-22.066407 0-42.054688-8.910157-56.539063-23.339844-.042968-.042969-.097656-.097656-.140625-.140625-.015625-.011719-.027343-.027344-.042969-.039063-.195312-.199218-.390624-.394531-.585937-.589844-.53125-.527343-1.0625-1.046874-1.59375-1.5625-.527344-.53125-1.074219-1.035156-1.605469-1.535156-.472656-.460937-.960937-.90625-1.4375-1.339844-.308594-.296874-.628906-.589843-.9375-.867187-.164062-.15625-.332031-.308594-.5-.449219-.433594-.390625-.867187-.765625-1.300781-1.15625-.796875-.714844-1.589844-1.398437-2.402344-2.082031-.921875-.796875-1.871093-1.578125-2.808593-2.335937-.125-.109376-.277344-.222657-.417969-.347657-.027344-.027343-.054688-.042969-.070313-.054687 0 0-.011718-.015625-.027344-.03125-.027343-.011719-.042968-.027344-.054687-.039063-.28125-.226562-.546875-.433593-.8125-.644531-.070313-.054688-.140625-.109375-.210937-.167969-.570313-.460937-1.144532-.90625-1.714844-1.339843-.222656-.195313-.460938-.363282-.6875-.546876 0 0 0 .015626-.011719 0-.113281-.082031-.222656-.167968-.335937-.25-.085938-.070312-.152344-.125-.238282-.179687-.472656-.378906-.960937-.730469-1.453125-1.089844-.207031-.167969-.429687-.324219-.65625-.476562-.375-.292969-.765625-.574219-1.15625-.851563-.113281-.082031-.226562-.167968-.335937-.238281-.53125-.375-1.0625-.753906-1.59375-1.128906-.265625-.183594-.515625-.363281-.78125-.53125-.058594-.058594-.113282-.097657-.183594-.125-.097656-.070313-.195312-.140625-.292969-.210938-1.296875-.894531-2.609375-1.761719-3.921875-2.613281-.335937-.222656-.671875-.433594-1.019531-.65625-.390625-.25-.785156-.488281-1.175781-.738281h-.011719v-.015625c-.15625-.082032-.308594-.179688-.460937-.277344-.324219-.199219-.644532-.394531-.964844-.585938-.976563-.601562-1.941406-1.175781-2.921875-1.746093-.039063-.03125-.082031-.042969-.125-.070313-.082031-.042968-.179688-.113281-.292969-.167968-.167969-.097657-.347656-.195313-.515625-.292969-1.089844-.628907-2.164063-1.230469-3.253906-1.832031-.015625 0-.015625 0-.015625 0-1.089844-.601563-2.191406-1.171876-3.296875-1.730469-.640625-.335938-1.285157-.65625-1.925781-.980469-.546876-.277344-1.105469-.542969-1.648438-.808594-.042969-.027344-.082031-.054687-.125-.070312 0 .015625-.015625 0-.015625 0-.417969-.210938-.824219-.40625-1.242187-.601563-.347657-.167969-.699219-.320312-1.035157-.488281-.683593-.304688-1.355469-.613281-2.039062-.921875-.304688-.152344-.628907-.292969-.933594-.417969-.292969-.140625-.585937-.265625-.878906-.390625-.195313-.082031-.378907-.167969-.574219-.25-.28125-.113281-.574219-.238281-.867188-.363281-.140624-.058594-.277343-.113281-.402343-.167969 0 0 0 0-.015625 0-.070313-.042969-.140625-.070312-.210938-.097656-.320312-.140625-.640625-.265625-.960937-.390625-.183594-.085938-.351563-.15625-.53125-.226562-.238281-.097657-.476563-.195313-.714844-.277344-.472656-.195313-.949219-.390625-1.425781-.574219-.292969-.109375-.585938-.238281-.890625-.347656-.085938-.027344-.167969-.058594-.253907-.097657-.320312-.125-.65625-.253906-.988281-.378906l21.523438-54.082031c3.503906.949219 7.09375 1.730469 10.753906 2.304687.097656.027344.195313.042969.292969.042969 1.550781.265625 3.113281.460938 4.695312.628907 1.046875.125 2.09375.222656 3.140625.304687.992188.070313 1.984375.140625 2.988281.183594.222657.011719.433594.027343.65625.027343 1.410157.070313 2.820313.097657 4.246094.097657 1.511719 0 3.019532-.027344 4.511719-.097657 1.59375-.070312 3.171875-.179687 4.75-.320312 31.664063-2.851562 59.152344-20.226562 75.746094-45.394531 10.585937-16.050781 16.746093-35.269531 16.746093-55.941407 0-2.597656-.097656-5.183593-.292968-7.726562-.90625-12.109375-3.925782-23.601562-8.6875-34.164062.558594.949218 1.105468 1.902343 1.636718 2.863281 1.058594 1.929687 2.066407 3.898437 3.015626 5.894531.445312.9375.894531 1.898438 1.3125 2.863281.140624.292969.265624.601563.378906.894531.320312.699219.613281 1.410157.890625 2.121094.097656.210938.183593.421875.253906.644532.347656.824218.671875 1.664062.976563 2.5.796874 2.136718 1.523437 4.316406 2.195312 6.507812l5.640625 17.488281 34.726563 107.453125c.039062.125.082031.238282.125.363282l1.199218 3.714843c.027344.085938.058594.167969.085938.265625 2.121094 7.179688 3.253906 14.792969 3.253906 22.671875 0 28.800781-15.199219 54.054688-38.007812 68.175781zm0 0" fill="url(#i)"/><path d="m508.746094 354.945312c2.121094 7.179688 3.253906 14.789063 3.253906 22.667969 0 28.800781-15.199219 54.054688-38.007812 68.175781-2.875 1.804688-5.894532 3.410157-9.007813 4.820313-.78125.363281-1.578125.710937-2.386719 1.046875l-104.816406-104.8125-2.136719-2.136719-30.628906-30.632812-12.585937-12.585938c-.027344-.027343-.070313-.054687-.097657-.097656-1.007812-.894531-1.996093-1.800781-2.949219-2.738281-.488281-.472656-.960937-.949219-1.421874-1.425782-1.410157-1.4375-2.753907-2.933593-4.039063-4.480468-1.269531-1.523438-2.472656-3.074219-3.617187-4.679688-.027344-.027344-.054688-.070312-.070313-.113281-1.339844-1.898437-2.597656-3.839844-3.757813-5.851563-.542968-.90625-1.046874-1.832031-1.546874-2.765624-.308594-.601563-.617188-1.203126-.921876-1.816407-.28125-.546875-.546874-1.117187-.8125-1.675781-.179687-.394531-.363281-.785156-.53125-1.175781-.195312-.433594-.375-.851563-.558593-1.285157-.210938-.472656-.402344-.960937-.601563-1.453124-.738281-1.839844-1.410156-3.742188-2.007812-5.65625-.226563-.710938-.433594-1.425782-.628906-2.136719-.183594-.671875-.363282-1.339844-.53125-2.011719-.265626-1.089844-.519532-2.179688-.742188-3.28125-.136719-.628906-.25-1.257812-.363281-1.902344-.136719-.722656-.25-1.464844-.363281-2.207031-.082032-.515625-.152344-1.03125-.207032-1.5625-.433594-3.253906-.644531-6.566406-.644531-9.929687 0-42.769532 34.667969-77.4375 77.4375-77.4375.921875 0 1.828125.011718 2.738281.054687.53125.015625 1.058594.027344 1.578125.070313.667969.027343 1.339844.070312 2.011719.125 1.1875.097656 2.386719.226562 3.558594.378906.546875.070312 1.078125.140625 1.609375.222656.222656.027344.445312.058594.65625.097656.390625.058594.78125.125 1.160156.195313 1.296875.226562 2.582031.476562 3.851563.769531.574218.125 1.160156.265625 1.734374.417969 1.339844.335937 2.667969.699219 3.980469 1.101562.042969.015625.097657.03125.152344.042969 1.214844.390625 2.417969.796875 3.589844 1.230469.140625.042969.28125.097656.40625.152343.558593.210938 1.117187.417969 1.664062.644532.640625.25 1.269531.5 1.898438.78125.585937.25 1.171875.515625 1.757812.78125.085938.027344.167969.070312.253907.113281.554687.261719 1.128906.53125 1.675781.808594.65625.308593 1.296875.640625 1.941406.992187.558594.292969 1.101563.601563 1.648437.90625.601563.335938 1.171876.671875 1.757813 1.019532.574219.335937 1.160156.699218 1.71875 1.0625 2.277344 1.4375 4.484375 2.988281 6.59375 4.664062 3.6875 2.90625 7.109375 6.160156 10.210937 9.679688l.210938.210937 43.1875 43.203125 7.613281 7.613281 34.722657 107.453125c.042968.125.085937.238282.125.363282l1.199218 3.714843c.027344.085938.058594.171875.085938.269531zm0 0" fill="url(#j)"/><path d="m440.898438 243.25c0 42.765625-34.671876 77.4375-77.441407 77.4375-42.765625 0-77.4375-34.671875-77.4375-77.4375 0-42.769531 34.671875-77.441406 77.4375-77.441406 42.769531 0 77.441407 34.671875 77.441407 77.441406zm0 0" fill="url(#k)"/><path d="m371.527344 357.152344 93.457031 93.457031c-.78125.363281-1.578125.710937-2.386719 1.046875-9.46875 3.9375-19.863281 6.117188-30.769531 6.117188-22.070313 0-42.058594-8.910157-56.542969-23.339844.347656.351562.699219.714844 1.046875 1.074218-.390625-.402343-.796875-.808593-1.1875-1.214843-.011719-.011719-.027343-.027344-.039062-.039063-.195313-.199218-.394531-.394531-.585938-.589844-1.046875-1.046874-2.125-2.078124-3.199219-3.097656-.476562-.449218-.949218-.894531-1.441406-1.34375-.445312-.402344-.878906-.808594-1.324218-1.199218-.042969-.042969-.070313-.085938-.113282-.113282-.433594-.390625-.867187-.769531-1.296875-1.160156-.796875-.699219-1.59375-1.394531-2.402343-2.082031-.921876-.792969-1.871094-1.578125-2.808594-2.332031-.125-.109376-.28125-.222657-.417969-.347657-.03125-.027343-.058594-.042969-.070313-.058593 0 0-.015624-.011719-.03125-.027344-.011718 0-.027343-.011719-.054687-.042969-.277344-.222656-.542969-.429687-.808594-.640625-.070312-.054688-.140625-.113281-.210937-.167969-.574219-.460937-1.144532-.90625-1.71875-1.339843-.222656-.195313-.460938-.363282-.683594-.546876 0 0 0 .015626-.015625 0-.109375-.085937-.222656-.167968-.335937-.25-.082032-.070312-.152344-.125-.234376-.183593-.476562-.375-.964843-.726563-1.453124-1.089844-.210938-.164063-.433594-.320313-.65625-.472656-.378907-.292969-.769532-.574219-1.160157-.851563-.113281-.085937-.222656-.167968-.335937-.238281-.53125-.378906-1.058594-.753906-1.589844-1.132813-.265625-.179687-.519531-.363281-.785156-.53125-.152344-.125-.304688-.222656-.460938-.332031-.011718 0-.011718 0-.011718 0-1.300782-.894531-2.613282-1.761719-3.925782-2.613281-.628906-.40625-1.257812-.8125-1.882812-1.1875-.113282-.082031-.210938-.152344-.324219-.195312v-.015626s0 0-.011719 0c-.140625-.097656-.292968-.195312-.449218-.292968-.320313-.195313-.640626-.390625-.960938-.585938-.492188-.308594-.980469-.601562-1.480469-.878906-.476562-.308594-.953125-.585938-1.441406-.867188-.042969-.027343-.082031-.042968-.125-.070312-.082031-.042969-.179687-.109375-.292969-.167969-.167968-.097656-.347656-.195312-.515625-.292969-1.0625-.613281-2.125-1.203124-3.199219-1.789062-.027343-.011719-.042968-.027344-.070312-.039062-1.089844-.585938-2.191406-1.175782-3.296875-1.734376-.640625-.335937-1.285156-.65625-1.925781-.976562-.546875-.28125-1.105469-.546875-1.648438-.808594-.042968-.03125-.085937-.058594-.125-.070312 0 .011718-.015625 0-.015625 0-.417969-.210938-.824219-.40625-1.242187-.601563-.027344-.015625-.058594-.027343-.085938-.027343-.992187-.476563-1.996094-.9375-2.988281-1.382813-.585937-.265625-1.160156-.519531-1.746094-.769531-.042969-.027344-.070312-.042969-.109375-.042969-.015625-.027344-.042968-.027344-.058594-.027344-.445312-.210937-.894531-.390625-1.339843-.585937-.140625-.054688-.28125-.109375-.40625-.167969-.070313-.027344-.136719-.070313-.207031-.097656-.015626 0-.015626 0-.015626 0-.320312-.136719-.640624-.265625-.964843-.390625-.179688-.082032-.347657-.152344-.53125-.222656-.238281-.097657-.472657-.195313-.710938-.28125-.476562-.195313-.949219-.390626-1.425781-.570313-.292969-.113281-.585938-.238281-.894531-.351563-.082031-.027343-.164063-.054687-.25-.097656-.867188-.320312-1.730469-.65625-2.613281-.960937-.136719-.058594-.292969-.113281-.445313-.167969-1.117187-.40625-2.25-.796875-3.378906-1.1875-.460938-.15625-.921875-.308594-1.382813-.460938-.824218-.265624-1.636718-.519531-2.460937-.769531l-1.632813-.503906c-.851562-.25-1.6875-.5-2.542968-.738281-.195313-.054688-.375-.113282-.558594-.152344-.808594-.226562-1.621094-.449219-2.429688-.644531-.015625 0-.015625 0-.015625 0-.027343-.027344-.054687-.027344-.082031-.027344-.015625-.015625-.027344-.015625-.042969-.015625-.851562-.238281-1.703125-.445312-2.570312-.65625-.53125-.136719-1.074219-.265625-1.605469-.375-.753906-.183594-1.519531-.363281-2.277344-.519531-.726562-.167969-1.453125-.320313-2.175781-.460938-.53125-.125-1.078125-.222656-1.609375-.335937-.921875-.179688-1.855469-.347656-2.777344-.515625-.449218-.070313-.894531-.152344-1.34375-.238281-1.144531-.195313-2.304687-.375-3.449218-.542969-2.066407-.308594-4.148438-.574219-6.214844-.796875-.78125-.097656-1.566406-.167969-2.332032-.25-1.1875-.113282-2.390624-.210938-3.578124-.292969-.363282-.042969-.726563-.070313-1.089844-.085937-1.101563-.082032-2.21875-.152344-3.324219-.195313-1.214844-.070313-2.441406-.109375-3.671875-.140625-.25-.011719-.488281-.011719-.726562-.011719-1.285157-.042969-2.570313-.058593-3.855469-.058593h-.097657c-.835937 0-1.6875 0-2.527343.03125h-.597657c-.40625.011718-.796874.011718-1.203124.027343-.125 0-.265626.011719-.390626.011719-.085937 0-.167968 0-.238281.015625-.796875.015625-1.59375.042969-2.390625.082031-.332031.015625-.65625.03125-.976562.042969-.277344.015625-.546875.027344-.808594.058594-.183594 0-.363281 0-.546875.027343-.699219.027344-1.410156.070313-2.109375.125-.070312 0-.152344.011719-.222656.011719-.125.015625-.25.015625-.378906.03125 0 0 0 0-.011719 0-.335938.027344-.6875.054688-1.023438.082031-.78125.054688-1.5625.125-2.332031.195313-.320312.027344-.628906.054687-.933594.097656-.644531.054688-1.273437.125-1.902344.210938-.011718-.015625-.011718 0-.011718 0h-.015625c-.097657 0-.195313.011719-.292969.027343-.375.027344-.753906.082032-1.117188.125-1.074218.125-2.152343.265626-3.210937.417969-.113281.015625-.226563.027344-.335937.042969-.082032 0-.152344.015625-.238282.027344-.183594.027344-.378906.058594-.558594.085937-.015624 0-.042968 0-.058593.011719-.445313.058594-.890625.125-1.324219.195312-.351562.058594-.699219.097657-1.050781.167969-.402344.058594-.808594.125-1.214844.195313-1.046875.167968-2.082031.363281-3.128906.558594-.542969.097656-1.089844.210937-1.621094.308593-.433594.082031-.851563.167969-1.269531.265625-.070313 0-.125.015625-.183594.042969-.207031.027344-.402344.070313-.613281.125-.238281.042969-.476563.097656-.699219.140625-.210938.039062-.417969.082031-.613281.136719h-.015625c-.207032.042969-.429688.097656-.628906.140625-.097657.015625-.195313.042968-.277344.054687-.347656.085938-.683594.15625-1.019532.238281-.238281.058594-.488281.113282-.726562.167969-.113281.027344-.226562.058594-.335938.085938-.40625.09375-.808593.195312-1.214843.292969-.097657.027343-.195313.039062-.292969.070312-.503906.125-1.007812.25-1.507812.390625-.125.027344-.265626.054687-.394532.097656-.054687.011719-.125.027344-.179687.042969v.011719s0 0-.015625 0c-1.4375.363281-2.863282.769531-4.285156 1.175781-.167969.054688-.335938.097656-.503907.152344-.058593.015625-.113281.027344-.167969.042968-.140624.042969-.292968.082032-.433593.136719-.152344.042969-.320313.085938-.472657.140625-.769531.222656-1.523437.460938-2.292968.714844-.40625.109375-.808594.25-1.214844.390625-.839844.265625-1.691406.542969-2.527344.835937-.253906.085938-.488281.167969-.714844.238282-.207031.070312-.402343.140625-.597656.210937-.199218.070313-.394531.140625-.585937.222657-.546875.183593-1.089844.378906-1.636719.585937-.195312.070313-.378906.140625-.570312.210937-.167969.058594-.351563.125-.519532.195313-.195312.070313-.390625.140625-.585937.238281-.808594.292969-1.605469.601563-2.402344.921875-.277344.097657-.542969.210938-.808594.320313l-35.675781-35.671875-3.210938-3.214844-56.652343-56.652344c-.027344-.027343-.070313-.054687-.097657-.097656-.992187-.878906-1.96875-1.773437-2.90625-2.710937h-.015624c-.011719-.011719-.027344-.011719-.027344-.027344-.488282-.472656-.960938-.949219-1.421875-1.425782-1.414063-1.4375-2.753907-2.933593-4.039063-4.480468-1.269531-1.523438-2.472656-3.074219-3.617187-4.679688-.027344-.027344-.054688-.070312-.070313-.113281-1.957031-2.75-3.714844-5.628906-5.308594-8.617187-.308593-.601563-.613281-1.203126-.921874-1.816407-.277344-.542969-.542969-1.117187-.808594-1.675781-.183594-.390625-.363282-.78125-.53125-1.171875-.195313-.433594-.378906-.855469-.558594-1.285156-.210938-.476563-.40625-.964844-.601562-1.453125-.738282-1.84375-1.410157-3.746094-2.011719-5.660156-.222657-.710938-.433594-1.421876-.628907-2.136719-.179687-.667969-.363281-1.339844-.53125-2.011719-.261718-1.089844-.515624-2.179688-.738281-3.28125-.140625-.628906-.25-1.257812-.363281-1.898438-.140625-.726562-.253906-1.46875-.363281-2.207031-.085938-.519531-.152344-1.035156-.210938-1.566406-.433593-3.253906-.640625-6.5625-.640625-9.929687 0-42.769532 34.667969-77.4375 77.433594-77.4375.921875 0 1.832031.015624 2.738281.054687.53125.015625 1.0625.03125 1.578125.070313.671875.03125 1.34375.070312 2.011719.128906 1.1875.09375 2.386719.222656 3.5625.375.542969.070312 1.074219.140625 1.605469.222656.222656.03125.449218.058594.65625.097656.390625.058594.78125.128906 1.160156.195313 1.300781.226562 2.585938.476562 3.855469.769531.570312.125 1.160156.265625 1.730469.417969 1.34375.335937 2.667968.699219 3.980468 1.105469.042969.011718.097656.027343.15625.042968 1.214844.390625 2.414063.792969 3.589844 1.226563.136719.042969.277344.097656.402344.152343.558594.210938 1.117187.421876 1.664062.644532.640625.25 1.269532.503906 1.898438.78125.585937.253906 1.175781.515625 1.761718.78125.082032.03125.167969.070312.25.113281.558594.265625 1.132813.53125 1.675782.808594.65625.308593 1.300781.644531 1.941406.992187.5625.292969 1.105469.601563 1.648438.90625.601562.335938 1.175781.671875 1.761718 1.023438.570313.332031 1.160156.695312 1.71875 1.058594 2.277344 1.441406 4.480469 2.988281 6.589844 4.667968 3.6875 2.902344 7.109375 6.160156 10.210938 9.679688l.210937.207031 89.769531 89.773437 28.144532 28.144532 4.261718 4.257812 29.945313 29.949219.460937.460937zm0 0" fill="url(#l)"/><path d="m225.796875 243.25c0 42.765625-34.671875 77.4375-77.441406 77.4375s-77.4375-34.671875-77.4375-77.4375c0-42.769531 34.667969-77.441406 77.4375-77.441406s77.441406 34.671875 77.441406 77.441406zm0 0" fill="url(#m)"/><path d="m223.003906 261.617188-65.039062-65.011719c-2.152344-2.617188-5.414063-4.289063-9.066406-4.289063-6.476563 0-11.730469 5.25-11.730469 11.726563v28.015625h-28.011719c-6.476562 0-11.726562 5.25-11.726562 11.726562 0 3.652344 1.671874 6.914063 4.289062 9.066406l64.996094 65.042969c27.773437-6.65625 49.625-28.503906 56.289062-56.277343zm0 0" fill="url(#n)"/><path d="m188.636719 232.058594h-28.015625v-28.015625c0-6.476563-5.25-11.726563-11.726563-11.726563-6.476562 0-11.726562 5.25-11.726562 11.726563v28.015625h-28.011719c-6.476562 0-11.730469 5.25-11.730469 11.726562 0 6.476563 5.253907 11.726563 11.730469 11.726563h28.011719v28.015625c0 6.472656 5.25 11.726562 11.726562 11.726562 6.476563 0 11.726563-5.253906 11.726563-11.726562v-28.015625h28.015625c6.476562 0 11.726562-5.25 11.726562-11.726563 0-6.476562-5.25-11.726562-11.726562-11.726562zm0 0" fill="url(#o)"/><path d="m473.992188 445.789062c-2.875 1.804688-5.894532 3.410157-9.007813 4.820313-.78125.363281-1.578125.710937-2.386719 1.046875-9.472656 3.9375-19.863281 6.117188-30.773437 6.117188-22.066407 0-42.054688-8.910157-56.539063-23.339844.347656.351562.699219.714844 1.046875 1.074218-.390625-.402343-.796875-.808593-1.1875-1.214843-.011719-.011719-.027343-.027344-.042969-.039063-.195312-.199218-.390624-.394531-.585937-.589844-1.046875-1.046874-2.121094-2.078124-3.195313-3.097656-.476562-.449218-.953124-.894531-1.441406-1.34375-.445312-.402344-.878906-.808594-1.328125-1.199218-.039062-.042969-.070312-.085938-.109375-.113282-.433594-.390625-.867187-.769531-1.300781-1.160156-.792969-.699219-1.589844-1.394531-2.402344-2.082031-.921875-.792969-1.871093-1.578125-2.804687-2.332031-.128906-.109376-.28125-.222657-.421875-.347657-.027344-.027343-.054688-.042969-.070313-.058593 0 0-.011718-.011719-.027344-.027344-.011718 0-.027343-.011719-.054687-.042969-.28125-.222656-.546875-.429687-.8125-.640625-.066406-.054688-.136719-.113281-.207031-.167969-.574219-.460937-1.148438-.90625-1.71875-1.339843-.070313-.058594-.140625-.113282-.210938-.15625-.152344-.136719-.304687-.25-.472656-.390626 0 0 0 .015626-.015625 0-.109375-.082031-.222656-.167968-.335937-.25-.082032-.070312-.152344-.125-.234376-.179687-.492187-.363281-.964843-.730469-1.453124-1.089844-.210938-.167969-.433594-.324219-.65625-.476562-.378907-.292969-.769532-.574219-1.160157-.851563-.113281-.082031-.222656-.167968-.335937-.238281-.53125-.375-1.0625-.753906-1.59375-1.128906-.265625-.183594-.515625-.363281-.78125-.53125-.152344-.125-.308594-.226563-.460938-.335938-.011718 0-.011718 0-.011718 0-1.300782-.894531-2.613282-1.761719-3.925782-2.613281-.628906-.40625-1.257812-.808594-1.886718-1.1875-.109376-.082031-.207032-.152344-.320313-.195312v-.015626s0 0-.015625 0c-.136719-.097656-.292969-.195312-.445312-.292968-.320313-.195313-.640626-.390625-.964844-.585938-.488282-.304687-.976563-.597656-1.480469-.878906-.515625-.320312-1.03125-.628906-1.5625-.933594-.082031-.042968-.183594-.113281-.292969-.167968-.167968-.097657-.351562-.195313-.519531-.292969-1.058594-.617188-2.121094-1.203125-3.195313-1.789063-.03125-.015625-.042968-.027344-.070312-.042968-1.089844-.585938-2.195312-1.171876-3.296875-1.730469-.644531-.335938-1.285156-.65625-1.929687-.980469-.542969-.277344-1.101563-.542969-1.648438-.808594-.039062-.027344-.082031-.054687-.125-.070312 0 .015625-.011719 0-.011719 0-.417969-.210938-.824219-.40625-1.242187-.601563-.03125-.011719-.058594-.027343-.085938-.027343-.992187-.472657-1.996094-.933594-2.988281-1.382813-.585937-.265625-1.160156-.515625-1.746094-.765625-.042969-.03125-.070312-.042969-.113281-.042969-.011719-.027343-.039062-.027343-.054688-.027343-.445312-.210938-.894531-.394532-1.339843-.585938-.140625-.058594-.28125-.113281-.40625-.167969-.070313-.03125-.140625-.070312-.210938-.097656-.011719 0-.011719 0-.011719 0-.320312-.140625-.644531-.265625-.964843-.390625-.179688-.085938-.347657-.15625-.53125-.226562-.238281-.097657-.472657-.195313-.710938-.277344-.476562-.195313-.953125-.390625-1.425781-.574219-.292969-.109375-.585938-.238281-.894531-.347656-.082031-.027344-.167969-.058594-.25-.097657-.867188-.320312-1.730469-.65625-2.613281-.964843-.136719-.054688-.292969-.109375-.445313-.167969-1.117187-.402344-2.25-.796875-3.378906-1.1875-.460938-.152344-.921875-.304688-1.382813-.460938-.824218-.265624-1.636718-.515624-2.460937-.765624l-1.632813-.503907c-1.035156-.308593-2.066406-.601562-3.101562-.894531-.808594-.222656-1.621094-.445312-2.429688-.640625-.015625 0-.015625 0-.015625 0-.027343-.03125-.054687-.03125-.082031-.03125-.015625-.011719-.027344-.011719-.042969-.011719-.851562-.238281-1.703125-.445312-2.570312-.65625-.53125-.140625-1.074219-.265625-1.605469-.378906-.753906-.179688-1.523438-.363281-2.277344-.515625-.726562-.167969-1.453125-.320313-2.179687-.460937-.53125-.125-1.074219-.222657-1.605469-.335938-.921875-.183594-1.855469-.347656-2.78125-.515625-.445312-.070313-.890625-.15625-1.339844-.238281-1.144531-.195313-2.304687-.378906-3.449218-.546875-2.066407-.304688-4.148438-.570313-6.214844-.796875-.785156-.097656-1.566406-.167969-2.335938-.25-1.1875-.109375-2.386718-.210938-3.574218-.292969-.363282-.042969-.726563-.070313-1.089844-.082031-1.101563-.085938-2.21875-.15625-3.324219-.195313-1.214844-.070312-2.445313-.113281-3.671875-.140625-.25-.015625-.488281-.015625-.726562-.015625-1.285157-.039062-2.570313-.054687-3.855469-.054687h-.097657c-.851562 0-1.6875.015625-2.527343.027344h-.601563c-.304687.015624-.628906.015624-.933594.027343h-.265624c-.125 0-.265626.015625-.390626.015625-.449218.015625-.894531.027344-1.34375.042969-.429687.011719-.851562.027344-1.285156.054687-.332031.015626-.65625.027344-.976562.042969-.167969 0-.335938.011719-.503906.027344-.277344.015625-.570313.027344-.851563.054687-.109375 0-.238281 0-.347656.015626-.585938.027343-1.175781.070312-1.761719.113281-.070312 0-.152344.011719-.222656.011719-.125 0-.25.015624-.378906.027343 0 0 0 0-.011719 0-.351563.03125-.6875.058594-1.023438.085938-.695312.042969-1.394531.109375-2.078125.167969-.085937.011718-.167968.011718-.253906.027343-.320312.027344-.625.054688-.933594.097657-.644531.054687-1.269531.125-1.898437.195312-.015625 0-.015625.011719-.015625.011719h-.015625c-.09375 0-.195313.015625-.292969.03125-.375.027343-.753906.082031-1.117188.125-1.074218.125-2.148437.265625-3.210937.417969-.113281 0-.222656.027343-.335937.042968-.082032 0-.152344.011719-.238282.027344-.179687.027344-.375.054688-.558594.082031-.015624 0-.042968 0-.054687.015625-.449219.054688-.894531.125-1.328125.195313-.015625 0-.015625 0-.027344 0-.335937.054687-.6875.113281-1.019531.167969-.40625.054687-.8125.125-1.21875.195312-1.046875.167969-2.078125.363281-3.128906.558594-.542969.097656-1.089844.210937-1.621094.308594-.429687.082031-.851563.167968-1.269531.265624-.070313 0-.125.011719-.179688.039063-.210937.03125-.421875.070313-.617187.128906-.238281.039063-.472657.097657-.699219.136719-.207031.042969-.417969.097656-.613281.140625h-.011719c-.210938.042969-.433594.097656-.628906.140625-.097656.011719-.195313.042969-.28125.054688-.347656.085937-.683594.15625-1.019532.238281-.25.054687-.488281.113281-.726562.167969-.109375.027343-.222656.054687-.335938.082031-.402343.097656-.808593.195312-1.214843.292969-.097657.03125-.195313.042968-.292969.070312-.503906.128906-1.003906.253906-1.507812.394531-.125.027344-.265626.054688-.390626.097657-.058593.011718-.125.027343-.183593.039062l-.011719.015625c-1.441406.363281-2.863281.769531-4.289062 1.171875-.167969.058594-.335938.097656-.503907.15625-.195312.054688-.390625.109375-.585937.179688 0 0 0-.011719-.015625 0-.152344.042968-.320313.085937-.472657.140624-.769531.222657-1.523437.460938-2.292968.710938-.402344.113281-.808594.253906-1.214844.394531-.851562.261719-1.6875.542969-2.527344.835938-.25.085937-.488281.167969-.710937.238281-.210938.070312-.40625.140625-.601563.210938-.195312.070312-.390625.140624-.585937.222656-.546875.183594-1.105469.378906-1.636719.585937-.195312.070313-.375.140625-.570312.210938-.167969.054687-.351563.125-.515626.195312-.199218.070313-.394531.140625-.589843.238281-.375.125-.753907.265626-1.128907.417969-.433593.167969-.851562.335938-1.273437.503907-.277344.097656-.542969.207031-.808594.320312-.238281.097656-.476562.195312-.710937.292969-.742188.292969-1.484375.601562-2.222656.921875-.179688.082031-.378907.152344-.558594.238281-.140625.070313-.292969.125-.433594.195313 0 0 0 0-.011719 0-.085937.027343-.15625.070312-.238281.109374-.378906.15625-.742188.324219-1.117188.492188-.320312.136719-.644531.277344-.949218.417969-.921875.417969-1.832032.835937-2.738282 1.269531-.253906.113281-.488281.238281-.726562.351562-.125.054688-.25.125-.378906.195313-.320313.136719-.628906.292969-.933594.445313-.238281.113281-.460938.222656-.6875.335937-.167969.070313-.332031.152344-.488281.25-.054688.015625-.109375.042969-.152344.082031-.601563.28125-1.203125.589844-1.789063.894532-1.914062.980468-3.796874 2.011718-5.671874 3.074218-.65625.378906-1.324219.753906-1.984376 1.144532-.195312.113281-.402343.238281-.597656.351562-.519531.304688-1.050781.628906-1.566406.949219-.039062.015625-.066406.027343-.097656.054687-.179688.097656-.347656.210938-.515625.308594-.152344.082031-.292969.183594-.433594.265625-.070313.042969-.136719.082031-.195313.109375-.152343.113281-.304687.195312-.460937.308594-.65625.390625-1.296875.796875-1.941406 1.214844l-8.308594-8.308594c-.027344-.03125-.058594-.058594-.085937-.085938-.152344-.140625-.304688-.277344-.460938-.433594-.164062-.136718-.332031-.292968-.5-.460937-.324219-.292969-.644531-.597656-.949219-.90625-.308593-.308594-.617187-.613281-.921875-.933594-.324218-.324219-.628906-.65625-.9375-.992187-.867187-.964844-1.703125-1.957032-2.5-2.976563-.8125-1.035156-1.578125-2.109375-2.304687-3.199219-.238281-.378906-.476563-.738281-.714844-1.117187-.699219-1.117187-1.355469-2.261719-1.96875-3.4375-.808594-1.5625-1.550781-3.183594-2.207031-4.832031-.011719-.011719-.011719-.011719-.011719-.011719-.308594-.824219-.617187-1.664063-.894531-2.5-.15625-.421875-.28125-.855469-.421875-1.285156-.125-.421875-.25-.855469-.375-1.285157-.113281-.433593-.238281-.882812-.335938-1.316406-.113281-.429687-.222656-.878906-.320312-1.324218 0 0 0 0 0-.015626-.097657-.433593-.183594-.867187-.265625-1.3125-.070313-.292968-.113282-.585937-.167969-.894531-.054687-.277343-.097656-.558593-.140625-.839843-.054688-.320313-.097656-.65625-.136719-.976563-.070312-.445313-.128906-.90625-.167969-1.367187-.03125-.210938-.058593-.417969-.070312-.644532-.03125-.335937-.070312-.683594-.085938-1.019531-.070312-.835937-.109374-1.675781-.136718-2.511719-.015625-.460937-.015625-.9375-.015625-1.410156 0-6.230469 1.117187-12.210938 3.15625-17.726562.292969-.769532.585937-1.523438.90625-2.261719 1.328125-3.117188 2.949219-6.0625 4.835937-8.816407 9.1875-13.394531 24.609375-22.179687 42.082032-22.179687.476562 0 .949218 0 1.410156.015625.839844.027344 1.691406.070312 2.515625.136719.335937.03125.683593.058593 1.019531.085937.222656.015625.433594.042969.640625.070313.460937.042969.921875.097656 1.371094.167969.320312.039062.65625.082031.976562.136718.28125.042969.558594.085938.839844.140625.304687.058594.601563.097657.894531.167969.320313.054688.625.125.949219.183594.292969.070312.597656.136718.890625.207031.28125.058594.546875.125.8125.195313.292969.070312.585938.140624.867188.226562.261718.054688.515624.125.765624.207031.753907.210938 1.511719.433594 2.25.699219.265626.085938.53125.167969.78125.265625 1.84375.644531 3.644532 1.398437 5.390626 2.261719.390624.199218.78125.394531 1.175781.589844 1.171875.613281 2.316406 1.269531 3.433593 1.980468.378907.226563.753907.460938 1.117188.714844.476562.304688.953125.628906 1.414062.964844.597657.429687 1.199219.878906 1.785157 1.339844.390625.277343.753906.585937 1.132812.894531.628907.515625 1.242188 1.0625 1.84375 1.589843l.042969.042969c.640625.601563 1.269531 1.203125 1.882812 1.816407.308594.320312.617188.628906.910157.949218.304687.324219.597656.644532.894531.964844.042969.027344.054688.054688.082031.082031l40.3125 40.3125c.515625.460938 1.003907.921875 1.507813 1.410157 0-.027344-.015625-.042969-.015625-.070313-.082031-.542969-.152344-1.089844-.222657-1.648437-.097656-.796876-.167968-1.59375-.222656-2.402344-.042968-.546875-.070312-1.089844-.097656-1.632813v-.140625c-.027344-.644531-.042969-1.300781-.042969-1.941406 0-28.160156 22.824219-50.984375 50.980469-50.984375.878906 0 1.761719.03125 2.628906.070313.417969.015624.824219.042968 1.242188.070312.011718.015625.042968.015625.054687.015625.335938.027344.6875.054687 1.019531.082031.226563.015625.433594.042969.644532.070313.460937.042969.90625.097656 1.367187.167969.265625.027343.53125.070312.796875.109374.640625.097657 1.285156.210938 1.914063.335938.335937.058594.683593.125 1.019531.210938.542969.113281 1.089844.238281 1.632812.378906.335938.082031.671876.167968 1.007813.261718.976563.253907 1.925781.53125 2.875.867188.335937.113281.6875.226562 1.023437.351562.5.167969 1.003907.363282 1.492188.558594.753906.308594 1.523438.628906 2.261719.964844.070312.027344.140625.054688.199219.082031.402343.195313.792968.378907 1.1875.570313.390624.199218.792968.394531 1.1875.589844.808593.417968 1.589843.851562 2.371093 1.324218.367188.226563.714844.433594 1.0625.65625.378907.226563.742188.460938 1.117188.714844.476562.304688.949219.628906 1.410156.964844.601563.429687 1.203125.878906 1.789063 1.339844.390624.277343.753906.585937 1.132812.894531.628906.53125 1.242188 1.0625 1.84375 1.589843.011719.015626.027344.03125.039062.042969.644532.601563 1.273438 1.203125 1.886719 1.816407.308594.320312.613281.628906.90625.949218.308594.324219.601563.644532.894531.964844.042969.027344.054688.054688.082032.082031zm0 0" fill="url(#p)"/><path d="m241.824219 364.902344c0 28.15625-22.824219 50.980468-50.980469 50.980468s-50.984375-22.824218-50.984375-50.980468 22.828125-50.984375 50.984375-50.984375 50.980469 22.828125 50.980469 50.984375zm0 0" fill="url(#q)"/><path d="m228.324219 364.902344c0 20.699218-16.78125 37.480468-37.480469 37.480468s-37.480469-16.78125-37.480469-37.480468c0-20.699219 16.78125-37.480469 37.480469-37.480469s37.480469 16.78125 37.480469 37.480469zm0 0" fill="url(#r)"/><path d="m241.726562 367.96875-26.296874-26.296875c-6.167969-6.527344-14.898438-10.605469-24.585938-10.605469-18.6875 0-33.835938 15.148438-33.835938 33.835938 0 9.6875 4.082032 18.417968 10.605469 24.585937l26.296875 26.296875c25.710938-1.527344 46.289063-22.105468 47.816406-47.816406zm0 0" fill="url(#s)"/><path d="m224.675781 364.902344c0 18.683594-15.148437 33.832031-33.832031 33.832031-18.6875 0-33.835938-15.148437-33.835938-33.832031 0-18.6875 15.148438-33.835938 33.835938-33.835938 18.683594 0 33.832031 15.148438 33.832031 33.835938zm0 0" fill="url(#t)"/><path d="m372.113281 364.902344c0 28.15625-22.828125 50.980468-50.984375 50.980468s-50.980468-22.824218-50.980468-50.980468 22.824218-50.984375 50.980468-50.984375 50.984375 22.828125 50.984375 50.984375zm0 0" fill="url(#u)"/><path d="m358.609375 364.902344c0 20.699218-16.78125 37.480468-37.480469 37.480468-20.699218 0-37.480468-16.78125-37.480468-37.480468 0-20.699219 16.78125-37.480469 37.480468-37.480469 20.699219 0 37.480469 16.78125 37.480469 37.480469zm0 0" fill="url(#v)"/><path d="m372.011719 367.96875-26.296875-26.296875c-6.167969-6.527344-14.898438-10.605469-24.585938-10.605469-18.683594 0-33.832031 15.148438-33.832031 33.835938 0 9.6875 4.078125 18.417968 10.605469 24.585937l26.292968 26.296875c25.710938-1.527344 46.289063-22.105468 47.816407-47.816406zm0 0" fill="url(#w)"/><path d="m354.964844 364.902344c0 18.683594-15.148438 33.832031-33.835938 33.832031s-33.832031-15.148437-33.832031-33.832031c0-18.6875 15.144531-33.835938 33.832031-33.835938s33.835938 15.148438 33.835938 33.835938zm0 0" fill="url(#x)"/><path d="m363.457031 179.636719c-.660156 0-1.339843.039062-2.023437.109375-.117188.011718-.234375.03125-.347656.050781l-.140626.023437c-.503906.0625-1.003906.132813-1.492187.238282-.105469.023437-.207031.050781-.308594.078125l-.136719.035156c-.5.117187-.996093.246094-1.476562.402344-.082031.023437-.160156.054687-.332031.121093-.515625.175782-1.023438.367188-1.519531.585938l-.207032.097656c-.53125.242188-1.050781.503906-1.652344.851563-.539062.308593-1.0625.644531-1.457031.9375l-.121093.078125c-1.039063.742187-2.011719 1.597656-2.863282 2.511718-7.316406 7.3125-43.558594 43.542969-44.59375 44.621094-3.355468 3.597656-5.203125 8.265625-5.203125 13.136719 0 10.65625 8.667969 19.324219 19.320313 19.324219 5.394531 0 10.40625-2.183594 14.078125-6.117188l43.652343-43.65625c3.964844-3.703125 6.148438-8.710937 6.148438-14.105468 0-10.65625-8.667969-19.324219-19.324219-19.324219zm0 0" fill="url(#y)"/><path d="m407.8125 223.992188c-.660156 0-1.339844.035156-2.023438.109374-.117187.011719-.234374.03125-.347656.050782l-.140625.019531c-.503906.066406-1.003906.136719-1.492187.242187-.105469.023438-.207032.046876-.308594.078126l-.136719.035156c-.5.117187-.996093.246094-1.476562.398437-.082031.027344-.160157.058594-.332031.125-.515626.175781-1.023438.367188-1.519532.585938l-.207031.097656c-.53125.242187-1.050781.503906-1.652344.851563-.539062.308593-1.0625.644531-1.457031.9375l-.121094.078124c-1.039062.742188-2.011718 1.597657-2.863281 2.511719-7.316406 7.3125-43.558594 43.542969-44.59375 44.621094-3.355469 3.597656-5.207031 8.265625-5.207031 13.136719 0 10.65625 8.667968 19.324218 19.324218 19.324218 5.394532 0 10.40625-2.183593 14.078126-6.121093l43.652343-43.652344c3.960938-3.703125 6.148438-8.710937 6.148438-14.109375 0-10.652344-8.667969-19.320312-19.324219-19.320312zm0 0" fill="url(#z)"/><path d="m378.390625 287.539062c0 8.246094-6.683594 14.929688-14.933594 14.929688-8.246093 0-14.929687-6.683594-14.929687-14.929688 0-8.25 6.683594-14.933593 14.929687-14.933593 8.25 0 14.933594 6.683593 14.933594 14.933593zm0 0" fill="url(#A)"/><path d="m378.390625 198.960938c0 8.246093-6.683594 14.929687-14.933594 14.929687-8.246093 0-14.929687-6.683594-14.929687-14.929687 0-8.25 6.683594-14.933594 14.929687-14.933594 8.25 0 14.933594 6.683594 14.933594 14.933594zm0 0" fill="url(#B)"/><path d="m334.101562 243.25c0 8.246094-6.683593 14.929688-14.933593 14.929688-8.246094 0-14.929688-6.683594-14.929688-14.929688 0-8.25 6.683594-14.933594 14.929688-14.933594 8.25 0 14.933593 6.683594 14.933593 14.933594zm0 0" fill="url(#D)"/><path d="m422.949219 243.25c0 8.246094-6.6875 14.929688-14.933594 14.929688s-14.933594-6.683594-14.933594-14.929688c0-8.25 6.6875-14.933594 14.933594-14.933594s14.933594 6.683594 14.933594 14.933594zm0 0" fill="url(#F)"/><path d="m242.136719 298.910156v.910156c0 3.695313-2.996094 6.6875-6.6875 6.6875h-8.324219c-3.691406 0-6.6875-2.992187-6.6875-6.6875v-.910156c0-3.695312 2.996094-6.691406 6.6875-6.691406h8.324219c3.691406 0 6.6875 2.996094 6.6875 6.691406zm0 0" fill="url(#G)"/><path d="m291.535156 298.910156v.910156c0 3.695313-2.996094 6.6875-6.691406 6.6875h-8.320312c-3.695313 0-6.6875-2.992187-6.6875-6.6875v-.910156c0-3.695312 2.992187-6.691406 6.6875-6.691406h8.320312c3.695312 0 6.691406 2.996094 6.691406 6.691406zm0 0" fill="url(#H)"/><path d="m242.667969 80.832031h26.667969v35.332031h-26.667969zm0 0" fill="url(#I)"/><path d="m269.332031 40.414062c0-17.457031-11.128906-32.363281-26.664062-38v51.75h26.664062zm0 0" fill="url(#J)"/></svg>