<svg id="Capa_1" enable-background="new 0 0 512 512" height="512" viewBox="0 0 512 512" width="512" xmlns="http://www.w3.org/2000/svg"><g><g><g><path d="m404.662 223.034c0-9.193-4.37-17.838-11.773-23.288l-172.485-125.921-161.695 119.062v281.879c0 9.635 7.811 17.445 17.445 17.445h320.446l8.062-9.571z" fill="#eaf2ff"/><path d="m260.613 51.011c-2.744-2.02-6.483-2.02-9.226 0l-35.868 26.411 169.585 123.803c7.249 5.337 11.528 13.803 11.528 22.804v267.563c0 .209-.024.412-.031.619h39.246c9.635 0 17.445-7.81 17.445-17.445v-281.879z" fill="#c9e0fd"/><path d="m260.613 74.81 214.897 158.237c8.078 5.948 19.087 5.948 27.165 0 12.433-9.155 12.433-27.737 0-36.892l-233.755-172.122c-7.684-5.658-18.156-5.658-25.84 0l-233.755 172.122c-12.433 9.155-12.433 27.737 0 36.892 8.078 5.948 19.087 5.948 27.165 0l214.897-158.237c2.743-2.02 6.483-2.02 9.226 0z" fill="#db578e"/><path d="m260.613 74.81 214.897 158.237c8.078 5.948 19.087 5.948 27.165 0 12.433-9.155 12.433-27.737 0-36.892l-233.755-172.122c-7.684-5.658-18.156-5.658-25.84 0l-233.755 172.122c-12.433 9.155-12.433 27.737 0 36.892 8.078 5.948 19.087 5.948 27.165 0l214.897-158.237c2.743-2.02 6.483-2.02 9.226 0z" fill="#e49542"/></g></g><g><path d="m335.541 415.615h-159.082c-12.397 0-22.447-10.05-22.447-22.447v-124.463c0-12.397 10.05-22.447 22.447-22.447h159.083c12.397 0 22.447 10.05 22.447 22.447v124.463c-.001 12.397-10.051 22.447-22.448 22.447z" fill="#9bc4f9"/><path d="m335.541 246.258h-45.171c6.05 0 10.954 4.904 10.954 10.954v6.969c0 .024.004.048.004.072v133.365c0 .024-.004.048-.004.072v6.969c0 6.05-4.905 10.954-10.954 10.954h45.171c12.397 0 22.447-10.05 22.447-22.447v-124.461c0-12.397-10.05-22.447-22.447-22.447z" fill="#7fb2f9"/><path d="m188.455 246.258c6.05 0 10.954 4.904 10.954 10.954v147.448c0 6.05-4.904 10.954-10.954 10.954h67.545v-169.356z" fill="#7fb2f9"/><path d="m357.988 325.732h-94.262v-79.474h-15.452v79.474h-94.262v15.453h94.262v74.43h15.452v-74.43h94.262z" fill="#f4f4f4"/></g><g><path d="m502.675 196.155-40.477-29.805v20.854c0 10.825-3.877 20.741-10.312 28.447l23.624 17.395c8.078 5.948 19.087 5.948 27.164 0 12.434-9.154 12.434-27.736.001-36.891z" fill="#e28424"/></g></g></svg>