<svg id="Layer_1" enable-background="new 0 0 512 512" height="512" viewBox="0 0 512 512" width="512" xmlns="http://www.w3.org/2000/svg"><g><g><g><path d="m139.249 346.26-16.151 104.584c-.868 5.623 2.986 10.885 8.609 11.753l319.106 49.28c5.623.868 10.885-2.986 11.753-8.609l49.312-319.308c.868-5.623-2.986-10.885-8.609-11.753l-158.99-24.553" fill="#bfdeff"/></g><path d="m173.242 340.131-14.614 93.846 275.151 42.492 42.569-275.641-138.964-21.405z" fill="#395a6e"/></g><g><g><path d="m333.191 0h-322.889c-5.69 0-10.302 4.612-10.302 10.302v323.094c0 5.69 4.612 10.302 10.302 10.302h322.889c5.69 0 10.302-4.612 10.302-10.302v-323.094c-.001-5.69-4.613-10.302-10.302-10.302z" fill="#e0efff"/></g><path d="m333.191 0h-41.207c5.69 0 10.302 4.612 10.302 10.302v323.094c0 5.69-4.612 10.302-10.302 10.302h41.207c5.69 0 10.302-4.612 10.302-10.302v-323.094c-.001-5.69-4.613-10.302-10.302-10.302z" fill="#d4e8ff"/><path d="m32.54 32.394h278.413v278.909h-278.413z" fill="#54768a"/><path d="m210.869 99.855c-17.471 0-32.491 11.678-39.125 28.409-6.634-16.731-21.654-28.409-39.125-28.409-23.613 0-42.755 21.33-42.755 47.642 0 60.227 81.88 93.487 81.88 93.487s81.073-33.709 81.88-93.487c.355-26.308-19.142-47.642-42.755-47.642z" fill="#ff91c1"/><g><path d="m210.869 99.855c-7.456 0-14.463 2.133-20.565 5.872 13.303 8.103 22.356 23.769 22.113 41.77-.542 40.193-37.372 68.6-61.446 82.9 11.902 6.982 20.774 10.587 20.774 10.587s81.073-33.709 81.88-93.487c.354-26.308-19.143-47.642-42.756-47.642z" fill="#ff7db6"/></g></g></g></svg>