<?xml version="1.0" encoding="iso-8859-1"?>
<!-- Generator: Adobe Illustrator 19.0.0, SVG Export Plug-In . SVG Version: 6.00 Build 0)  -->
<svg version="1.1" id="Layer_1" xmlns="http://www.w3.org/2000/svg" xmlns:xlink="http://www.w3.org/1999/xlink" x="0px" y="0px"
	 viewBox="0 0 512.001 512.001" style="enable-background:new 0 0 512.001 512.001;" xml:space="preserve">
<path style="fill:#FF507D;" d="M487.796,512.001H36.631c-5.191,0-9.399-4.209-9.399-9.399V173.627h460.564
	c5.191,0,9.399,4.209,9.399,9.399v319.575C497.195,507.793,492.986,512.001,487.796,512.001z"/>
<path style="fill:#D23C69;" d="M497.195,230.023v-46.996c0-5.191-4.209-9.399-9.399-9.399H27.232v328.974
	c0,5.191,4.209,9.399,9.399,9.399h451.164c5.191,0,9.399-4.209,9.399-9.399v-23.498H191.719c-72.675,0-131.59-58.915-131.59-131.59
	V239.422c0-5.191,4.209-9.399,9.399-9.399L497.195,230.023L497.195,230.023z"/>
<g>
	<polygon style="fill:#FFDC64;" points="27.232,173.627 83.628,230.023 121.225,230.023 64.829,173.627 	"/>
	<polygon style="fill:#FFDC64;" points="102.426,173.627 158.822,230.023 196.419,230.023 140.023,173.627 	"/>
	<polygon style="fill:#FFDC64;" points="177.62,173.627 234.016,230.023 271.613,230.023 215.217,173.627 	"/>
	<polygon style="fill:#FFDC64;" points="252.814,173.627 309.21,230.023 346.807,230.023 290.411,173.627 	"/>
	<polygon style="fill:#FFDC64;" points="328.008,173.627 384.404,230.023 422.001,230.023 365.605,173.627 	"/>
	<polygon style="fill:#FFDC64;" points="403.202,173.627 459.598,230.023 497.195,230.023 440.799,173.627 	"/>
	<path style="fill:#FFDC64;" d="M331.256,362.718l-111.616-59.529c-6.261-3.339-13.823,1.198-13.823,8.294V430.54
		c0,7.096,7.562,11.633,13.823,8.294l111.616-59.529C337.89,375.767,337.89,366.257,331.256,362.718z"/>
	<path style="fill:#FFDC64;" d="M497.195,183.027c0-5.191-4.209-9.399-9.399-9.399h-9.399l18.799,18.799V183.027z"/>
</g>
<path style="fill:#D23C69;" d="M472.207,54.805L27.263,173.732L15.127,128.33c-1.341-5.015,1.638-10.168,6.654-11.507l435.864-116.5
	c5.015-1.341,10.168,1.638,11.507,6.654l9.708,36.322C480.2,48.313,477.222,53.465,472.207,54.805z"/>
<g>
	<polygon style="fill:#FFDC64;" points="394.08,17.312 354.161,86.358 317.838,96.066 357.758,27.02 	"/>
	<polygon style="fill:#FFDC64;" points="321.437,36.728 281.516,105.774 245.194,115.482 285.115,46.437 	"/>
	<polygon style="fill:#FFDC64;" points="248.792,56.145 208.873,125.191 172.55,134.899 212.47,65.853 	"/>
	<polygon style="fill:#FFDC64;" points="176.149,75.561 136.228,144.607 99.906,154.315 139.827,85.27 	"/>
	<polygon style="fill:#FFDC64;" points="103.505,94.978 63.585,164.024 27.263,173.732 67.182,104.687 	"/>
	<path style="fill:#FFDC64;" d="M15.127,128.33c-1.341-5.016,1.638-10.168,6.654-11.507l9.081-2.427l-13.307,23.015L15.127,128.33z"
		/>
	<path style="fill:#FFDC64;" d="M464.776,1.265c-2.082-1.204-4.624-1.614-7.132-0.943l-27.241,7.281l-39.921,69.046l36.322-9.708
		L464.776,1.265z"/>
</g>
<path style="fill:#FFC850;" d="M335.69,368.023l-90.306,19.351c-5.851,1.254-11.368-3.206-11.368-9.19v-67.327l-14.376-7.667
	c-6.261-3.339-13.822,1.198-13.822,8.294V430.54c0,7.095,7.562,11.633,13.823,8.294l111.616-59.529
	C335.608,376.984,337.048,372.111,335.69,368.023z"/>
<g>
</g>
<g>
</g>
<g>
</g>
<g>
</g>
<g>
</g>
<g>
</g>
<g>
</g>
<g>
</g>
<g>
</g>
<g>
</g>
<g>
</g>
<g>
</g>
<g>
</g>
<g>
</g>
<g>
</g>
</svg>
