<svg id="Capa_1" enable-background="new 0 0 497 497" height="512" viewBox="0 0 497 497" width="512" xmlns="http://www.w3.org/2000/svg"><g><g fill="#ffcebf"><path d="m355.21 385.701c0 14.6-11.79 26.44-26.37 26.52h-35.06c-7.32 0-13.96-2.97-18.76-7.77-4.8-4.79-7.77-11.43-7.77-18.75 0-14.65 11.88-26.52 26.53-26.52h34.91c14.65 0 26.52 11.87 26.52 26.52z"/><path d="m372.31 332.651c0 14.65-11.87 26.52-26.52 26.52h-70.7c-7.33 0-13.95-2.97-18.75-7.77s-7.77-11.42-7.77-18.75c0-14.65 11.87-26.52 26.52-26.52h70.82c14.59.07 26.4 11.91 26.4 26.52z"/><path d="m372.31 279.601c0 14.58-11.75 26.41-26.3 26.53h-62.29c-7.32 0-13.96-2.97-18.75-7.77-4.8-4.8-7.77-11.44-7.77-18.76 0-14.65 11.87-26.52 26.52-26.52h62.12c14.63.03 26.47 11.89 26.47 26.52z"/><path d="m497 226.555c0-14.649-11.875-26.524-26.524-26.524h-186.757c-14.649 0-26.524 11.875-26.524 26.524 0 14.649 11.875 26.524 26.524 26.524h186.757c14.649 0 26.524-11.875 26.524-26.524z"/></g><path d="m497 226.552c0 14.65-11.88 26.53-26.52 26.53h-16.01c4.53-1.31 8.58-3.88 11.8-7.27 4.8-5.05 7.77-11.93 7.77-19.26 0-14.65-11.87-26.52-26.52-26.52h22.96c7.32 0 13.95 2.97 18.75 7.77s7.77 11.42 7.77 18.75z" fill="#ffb09e"/><path d="m307.74 200.031v212.19h-112.71c-11.73 0-23.29-2.9-33.63-8.44l-14.06-7.53c-10.34-5.55-21.9-8.45-33.63-8.45h-73.88v-187.77z" fill="#ffcebf"/><path d="m259.107 218.637 42.393 36.028h-209.84v-54.633h16.969c13.842 0 27.145-5.366 37.113-14.971l47.057-45.342c5.021-4.838 9.276-10.41 12.622-16.527l14.788-27.041c4.395-8.037 12.826-13.036 21.986-13.036 13.84 0 25.06 11.22 25.06 25.06v5.095c0 8.957-1.749 17.828-5.15 26.114l-13.982 34.068c-6.507 15.851-2.073 34.089 10.984 45.185z" fill="#ffcebf"/><path d="m267.25 108.171v5.1c0 8.96-1.75 17.83-5.15 26.11l-13.98 34.07c-3.55 8.67-3.84 18.04-1.23 26.58h-3.804c-13.58 0-23.064-13.686-18.039-26.301.037-.093.075-.186.113-.279l13.986-34.061c3.403-8.288 5.154-17.16 5.154-26.119v-5.1c0-9.7-5.52-18.1-13.58-22.27 1.74-.9 3.6-1.6 5.52-2.07s3.92-.72 5.95-.72c13.84 0 25.06 11.22 25.06 25.06z" fill="#ffb09e"/><path d="m0 401.137v-207.422c0-7.043 5.709-12.752 12.752-12.752h39.205c7.043 0 12.752 5.709 12.752 12.752v207.422c0 7.043-5.709 12.752-12.752 12.752h-39.205c-7.043 0-12.752-5.709-12.752-12.752z" fill="#cde2ff"/><path d="m51.957 180.963h-22.958c7.043 0 12.752 5.709 12.752 12.752v207.422c0 7.043-5.709 12.752-12.752 12.752h22.958c7.043 0 12.752-5.709 12.752-12.752v-207.422c0-7.042-5.709-12.752-12.752-12.752z" fill="#b3dafe"/><path d="m372.31 279.601c0 14.58-11.75 26.41-26.3 26.53h-23.18c14.65 0 26.52-11.88 26.52-26.53 0-1.84-.19-3.63-.54-5.36-.74-3.62-4.04-6.16-7.74-6.16h-42.1c-3.81 0-7.21-2.74-7.69-6.52-.58-4.58 2.98-8.48 7.44-8.48h47.12c14.63.03 26.47 11.89 26.47 26.52z" fill="#ffb09e"/><path d="m372.31 332.651c0 14.65-11.87 26.52-26.52 26.52h-22.96c14.65 0 26.52-11.87 26.52-26.52 0-1.93-.21-3.82-.6-5.63-.74-3.46-3.87-5.89-7.41-5.89h-43.21c-3.16 0-6.19 1.26-8.42 3.49l-.68.68c-2.93 2.93-7.68 2.93-10.61.01-2.93-2.93-2.93-7.68-.01-10.61l.69-.69c5.05-5.05 11.89-7.88 19.03-7.88h47.78c14.59.07 26.4 11.91 26.4 26.52z" fill="#ffb09e"/><path d="m355.21 385.701c0 14.6-11.79 26.44-26.37 26.52h-23.11c7.33 0 13.96-2.97 18.76-7.77 4.8-4.79 7.77-11.43 7.77-18.75 0-1.89-.2-3.72-.57-5.5-.75-3.55-3.97-6.03-7.6-6.03h-25.96c-3.18 0-6.17 1.24-8.42 3.49-1.46 1.47-3.38 2.2-5.3 2.2-2.03 0-4.06-.82-5.56-2.46-2.79-3.07-2.36-7.84.63-10.71 4.93-4.75 11.37-7.4 18.2-7.51h31.01c14.65 0 26.52 11.87 26.52 26.52z" fill="#ffb09e"/><circle cx="32.354" cy="369.928" fill="#26a6fe" r="8.973"/></g></svg>