<svg id="Capa_1" enable-background="new 0 0 512 512" height="512" viewBox="0 0 512 512" width="512" xmlns="http://www.w3.org/2000/svg"><g><g><path d="m126.153 142.808 41.208-55.315h-88.832l41.208 55.315c1.6 2.147 4.816 2.147 6.416 0z" fill="#e4f6ff"/></g><g><path d="m170.567 114.123h-23.045l-24.417-6.757-24.737 6.757h-23.046c-10.493 0-19-8.507-19-19v-74.097c0-11.046 8.954-20 20-20h94.245c10.493 0 19 8.507 19 19v75.097c0 10.493-8.506 19-19 19z" fill="#f4fbff"/></g><g><path d="m170.567 1.026h-2.439v71.144c0 11.33-9.185 20.515-20.515 20.515h-91.291v2.439c0 10.493 8.507 19 19 19h95.245c10.493 0 19-8.507 19-19v-75.098c0-10.494-8.506-19-19-19z" fill="#e4f6ff"/></g><g><path d="m391.79 236.565c.377-1.671-1.318-3.044-2.868-2.315-8.993 4.231-30.605 16.931-33.932 42.458-3.693 28.329 18.473 43.788-1.032 60.292-18.64 15.772-48.387-2.849-58.059-29.121-9.699-26.345-6.651-60.897 19.674-81.207 35.76-27.589 18.803-47.71 9.878-82.633-9.878-38.654 9.906-45.478-.249-83.459-10.652-39.844-65.504-56.78-82.91-60.53-1.834-.395-3.19 1.669-2.093 3.192 22.092 30.683 24.499 81.103-6.74 115.828-24.614 27.361-55.259 34.328-87.491 61.328-50.244 42.088-70.893 96.31-65.679 169.399 3.607 90.189 77.85 162.203 168.924 162.203 88.556 0 161.199-68.085 168.465-154.763 0-82.292-33.514-86.864-25.888-120.672z" fill="#ffd064"/></g><g><g><path d="m391.79 236.565c.377-1.671-1.318-3.044-2.868-2.315-7.778 3.659-24.986 13.662-31.649 32.811 7.91 16.972 21.444 37.878 21.444 90.177-6.725 80.223-69.456 144.511-148.97 153.642 6.389.733 12.882 1.121 19.467 1.121 88.556 0 161.199-68.085 168.465-154.763-.001-82.293-33.515-86.865-25.889-120.673z" fill="#ffc250"/></g></g><g><path d="m286.664 356.723c-.379-2.042-3.222-2.273-3.933-.322-2.844 7.806-7.736 19.203-14.199 26.616-4.783 5.486-9.305 7.314-13.707 7.314-4.362 0-8.311-2.553-10.22-6.475-3.273-6.725.337-11.852 6.063-17.578 7.033-7.033 11.58-12.722 11.253-26.444-.563-23.631-23.837-36.825-19.514-54.984s23.967-20.852 20.028-46.171c-2.483-15.962-11.376-23.926-17.61-27.633-1.767-1.05-3.785.834-2.884 2.681 2.257 4.627 4.219 11.62.989 18.951-5.64 12.801-30.758 15.004-39.76 40.51-3.71 10.513 2.892 21.334-12.378 39.385-18.146 21.451-34.509 43.03-31.883 84.021 2.632 41.083 40.903 77.544 82.071 77.544 40.086 0 74.87-31.785 77.157-71.425.889-15.412-10.779-17.62-19.13-22.622-7.527-4.508-10.875-15.469-12.343-23.368z" fill="#dd5790"/></g><g><g><path d="m299.007 380.092c-.822-.493-1.586-1.074-2.311-1.709.045.902.044 1.853-.014 2.863-2.287 39.64-37.071 71.425-77.157 71.425-16.351 0-32.236-5.766-45.622-15.275 15.373 21.669 40.619 36.742 67.077 36.742 40.086 0 74.87-31.785 77.157-71.425.889-15.411-10.779-17.619-19.13-22.621z" fill="#da387d"/></g></g><g><path d="m448.247 230.189 41.208-55.315h-88.831l41.208 55.315c1.599 2.147 4.815 2.147 6.415 0z" fill="#e4f6ff"/></g><g><path d="m492.662 201.504h-22.841l-24.782-8.587-24.577 8.587h-23.045c-10.493 0-19-8.507-19-19v-74.097c0-11.046 8.954-20 20-20h94.245c10.493 0 19 8.507 19 19v75.097c0 10.493-8.507 19-19 19z" fill="#f4fbff"/></g><g><path d="m492.662 88.407h-2.439v71.144c0 11.33-9.185 20.515-20.515 20.515h-91.292v2.439c0 10.493 8.507 19 19 19h95.245c10.493 0 19-8.507 19-19v-75.097c.001-10.495-8.506-19.001-18.999-19.001z" fill="#e4f6ff"/></g><g><g><path d="m465.018 118.908c-8.34-1.022-15.814 3.144-19.634 9.701-.157.27-.532.27-.689 0-3.82-6.557-11.295-10.723-19.635-9.701-9.029 1.107-16.25 8.478-17.195 17.525-.887 8.49 3.594 16.038 10.464 19.665 4.624 2.441 9.05 5.238 12.962 8.706l2.189 1.941c3.72 3.297 7.083 6.976 10.034 10.976.757 1.026 2.292 1.026 3.049 0 2.951-4 6.314-7.679 10.034-10.976l2.189-1.941c3.913-3.468 8.339-6.266 12.963-8.707 6.871-3.627 11.351-11.175 10.464-19.666-.945-9.046-8.166-16.416-17.195-17.523z" fill="#dd5790"/></g></g><g><path d="m70.169 339.22 41.208-55.315h-88.832l41.208 55.315c1.6 2.147 4.816 2.147 6.416 0z" fill="#e4f6ff"/></g><g><path d="m114.583 310.535h-22.762l-24.86-9.337-24.781 9.337h-22.842c-10.493 0-19-8.507-19-19v-74.097c0-11.046 8.954-20 20-20h94.245c10.493 0 19 8.507 19 19v75.097c0 10.493-8.506 19-19 19z" fill="#f4fbff"/></g><g><path d="m114.583 197.438h-2.439v71.144c0 11.33-9.185 20.515-20.515 20.515h-91.291v2.439c0 10.493 8.507 19 19 19h95.245c10.493 0 19-8.507 19-19v-75.097c0-10.495-8.506-19.001-19-19.001z" fill="#e4f6ff"/></g><g><g><path d="m86.939 227.939c-8.34-1.022-15.814 3.144-19.634 9.701-.157.27-.532.27-.689 0-3.82-6.557-11.295-10.723-19.635-9.7-9.029 1.107-16.25 8.478-17.195 17.525-.887 8.49 3.594 16.038 10.464 19.665 4.624 2.441 9.05 5.238 12.962 8.706l2.189 1.941c3.72 3.297 7.083 6.976 10.034 10.976.757 1.026 2.292 1.026 3.049 0 2.951-4 6.314-7.678 10.034-10.976l2.189-1.941c3.913-3.468 8.339-6.266 12.963-8.707 6.871-3.627 11.351-11.175 10.464-19.666-.944-9.047-8.165-16.417-17.195-17.524z" fill="#dd5790"/></g></g><g><g><path d="m115.411 95.105h-22.356c-4.249 0-7.693-3.444-7.693-7.693v-59.598c0-4.249 3.444-7.693 7.693-7.693s7.693 3.444 7.693 7.693v51.905h14.663c4.249 0 7.693 3.444 7.693 7.693s-3.444 7.693-7.693 7.693z" fill="#4678bb"/></g><g><path d="m152.652 95.105c-4.249 0-7.693-3.444-7.693-7.693v-51.905h-14.663c-4.249 0-7.693-3.444-7.693-7.693s3.444-7.693 7.693-7.693h22.356c4.249 0 7.693 3.444 7.693 7.693v59.598c.001 4.249-3.444 7.693-7.693 7.693z" fill="#4678bb"/></g><g><path d="m105.576 47.575c-1.969 0-3.938-.751-5.44-2.253l-6.9-6.9-6.9 6.9c-3.005 3.004-7.876 3.003-10.879-.001-3.005-3.004-3.005-7.875 0-10.879l12.339-12.339c3.004-3.003 7.875-3.003 10.879 0l12.339 12.339c3.005 3.004 3.005 7.875 0 10.879-1.5 1.503-3.469 2.254-5.438 2.254z" fill="#4678bb"/></g><g><path d="m152.652 95.298c-1.969 0-3.938-.751-5.44-2.253l-12.339-12.339c-3.005-3.004-3.005-7.875 0-10.879 3.004-3.005 7.875-3.004 10.879-.001l6.9 6.9 6.9-6.9c3.005-3.004 7.876-3.003 10.879.001 3.005 3.004 3.005 7.875 0 10.879l-12.339 12.339c-1.502 1.502-3.471 2.253-5.44 2.253z" fill="#4678bb"/></g></g></g></svg>