<svg id="Capa_1" enable-background="new 0 0 512 512" height="512" viewBox="0 0 512 512" width="512" xmlns="http://www.w3.org/2000/svg"><g><path d="m462.453 0h-16.516l-16.516 19.294h-346.842l-16.516-19.294h-16.516l-8.157 16.516v484.514l20.851 1.086 193.759-155.274 187.864 160.033c13.827 11.778 35.105 1.952 35.105-16.211v-474.148c.001-9.121-7.394-16.516-16.516-16.516z" fill="#ff7e92"/><path d="m66.063 0v447.363c0 7.043 8.251 10.854 13.613 6.286l154.904-131.953c6.169-5.258 13.794-7.887 21.42-7.887 7.625 0 15.25 2.629 21.42 7.887l154.904 131.954c5.362 4.567 13.613.757 13.613-6.286v-447.364h-16.516l-14.675 16.036h-323.185l-8.982-16.036z" fill="#fb4455"/><g fill="#ff5f7a"><path d="m256 346.842c0-8.546-10.012-13.169-16.517-7.627l-182.057 155.088c-1.919 1.637-3.815 1.286-5.105.702-1.266-.585-2.774-1.815-2.774-4.343v-490.662c-9.122 0-16.517 7.394-16.517 16.516v474.146c0 18.164 21.279 27.99 35.106 16.211z"/><path d="m223.871 309.124c8.952-7.629 20.363-11.831 32.129-11.831s23.178 4.202 32.129 11.835l100.452 85.565c16.086 13.702 40.839 2.27 40.839-18.86v-375.833h-346.841v375.832c0 21.13 24.754 32.562 40.84 18.86z"/></g></g></svg>