<svg id="Flat_2" height="512" viewBox="0 0 64 64" width="512" xmlns="http://www.w3.org/2000/svg" data-name="Flat 2"><path d="m45.5 27-10.5-11a10.6865 10.6865 0 0 1 -1.4777-10.8854l.4777-1.1146h11.5a11.5 11.5 0 0 1 11.5 11.5 11.5 11.5 0 0 1 -11.5 11.5z" fill="#cf8e4a"/><path d="m45.5 27-10.5-11a10.6865 10.6865 0 0 1 -1.4777-10.8854l.4777-1.1146h11.5a11.5 11.5 0 0 1 11.5 11.5 11.5 11.5 0 0 1 -11.5 11.5z" fill="#d99e54"/><path d="m37 16 10.3456 10.8384a11.4932 11.4932 0 0 0 -1.8456-22.8384h-9.5l-.4777 1.1146a10.6867 10.6867 0 0 0 1.4777 10.8854z" fill="#cf8e4a"/><path d="m61 42.6-4.2788 8.4h-29.7212v-10.5686a6 6 0 0 1 4.2355-5.7346l8.7645-2.6968h8l8.7645 2.6968a6 6 0 0 1 4.2355 5.7346z" fill="#64a0fa"/><path d="m54 42.6.5 6.4h6.5v-6.4z" fill="#ffd7aa"/><path d="m40 26h8a0 0 0 0 1 0 0v6a4 4 0 0 1 -4 4 4 4 0 0 1 -4-4v-6a0 0 0 0 1 0 0z" fill="#f0be97"/><path d="m44 30a9 9 0 0 1 -9-9v-5a16.9 16.9 0 0 0 11.95-4.95l.05-.05.0194.0971a6.0991 6.0991 0 0 0 5.9806 4.9029v5a9 9 0 0 1 -9 9z" fill="#ffd7aa"/><path d="m44 22.75a.75.75 0 0 1 -.75-.75v-2a.75.75 0 0 1 1.5 0v2a.75.75 0 0 1 -.75.75z" fill="#f0be97"/><g fill="#5b6172"><circle cx="48.5" cy="19" r="1"/><circle cx="39.5" cy="19" r="1"/><path d="m44 27.0415a2.7412 2.7412 0 0 1 -1.9443-.8042.75.75 0 1 1 1.06-1.0605 1.2514 1.2514 0 0 0 1.7676 0 .75.75 0 1 1 1.06 1.0605 2.7412 2.7412 0 0 1 -1.9433.8042z"/><path d="m23 54h16l2-4h-18z"/></g><path d="m34 50-17 1-15-1v-20a2 2 0 0 1 2-2h28a2 2 0 0 1 2 2z" fill="#7e849b"/><path d="m2 50h32v4h-32z" fill="#696e82"/><circle cx="18" cy="39" fill="#f2f7ff" r="4"/><path d="m56 48-10 1-2.8182-1.2078a3 3 0 0 0 -4.1818 2.7578v3.45h20a2 2 0 0 0 2-2v-9.4" fill="#ffd7aa"/></svg>