<svg id="Capa_1" enable-background="new 0 0 426.671 426.671" height="512" viewBox="0 0 426.671 426.671" width="512" xmlns="http://www.w3.org/2000/svg"><g clip-rule="evenodd" fill-rule="evenodd"><path d="m42.671 53.336v-32c0-11.787 9.547-21.333 21.333-21.333h341.333c11.787 0 21.333 9.547 21.333 21.333v341.333c0 11.787-9.547 21.333-21.333 21.333h-42.667" fill="#00bce3"/><path d="m351.998 426.662h-330.663c-11.782 0-21.335-9.553-21.335-21.335v-330.663c0-11.782 9.553-21.335 21.335-21.335h330.663c11.782 0 21.335 9.553 21.335 21.335v330.663c0 8.356-4.799 15.581-11.892 18.886l-105.445-210.889-80.859 161.73-57.801-108.387-96.001 159.995z" fill="#87dbf2"/><g fill="#00bce3"><path d="m175.141 375.053-25.803 51.616h-128l96-160z"/><path d="m256.004 213.336 105.44 210.891-1.141.768-8.299 1.675h-149.333l-27.531-51.616z"/><path d="m202.671 426.669h-53.333l25.803-51.616z"/><circle cx="138.671" cy="181.336" r="32"/></g></g></svg>