<svg id="Capa_1" enable-background="new 0 0 512 512" height="512" viewBox="0 0 512 512" width="512" xmlns="http://www.w3.org/2000/svg"><g><g><path d="m406.345 512h-385.741c-11.379 0-20.604-9.225-20.604-20.604v-319.571l12.136-12.915h72.915l186.625 102.925 155.272 177.131v52.431c0 11.378-9.224 20.603-20.603 20.603z" fill="#b3e59f"/></g><g><path d="m125.621 370.432 2.596-164.121-43.165-47.402h-25.755v233.698c0 25.562 20.796 46.358 46.358 46.358h321.293v-25.754l-65.457-19.291z" fill="#95d6a4"/></g><g><path d="m27.05 491.396v-319.571l-7.496-12.915h-13.351l-6.203 12.915v319.572c0 11.379 9.225 20.603 20.604 20.603h27.05c-11.38 0-20.604-9.224-20.604-20.604z" fill="#95d6a4"/></g><g><path d="m406.345 98.789h-385.741c-11.379 0-20.604 9.224-20.604 20.603v52.433h426.948v-52.433c0-11.379-9.224-20.603-20.603-20.603z" fill="#ffd064"/></g><g><path d="m59.297 98.788h66.324v73.036h-66.324z" fill="#ebb044"/></g><g><path d="m47.654 98.789h-27.05c-11.379 0-20.604 9.224-20.604 20.603v52.433h27.05v-52.433c0-11.379 9.224-20.603 20.604-20.603z" fill="#ebb044"/></g><g><path d="m46.702 145.272h-7.912c-4.267 0-7.726-3.459-7.726-7.726s3.459-7.726 7.726-7.726h7.912c4.267 0 7.726 3.459 7.726 7.726s-3.459 7.726-7.726 7.726z" fill="#d68a1d"/></g><g><path d="m491.396 413.211h-385.741c-11.379 0-20.604-9.225-20.604-20.604v-332.486h426.949v332.487c0 11.379-9.225 20.603-20.604 20.603z" fill="#e8edf2"/></g><g><path d="m436.799 229.825h-276.546c-5.69 0-10.302-4.612-10.302-10.302v-96.015c0-5.69 4.612-10.302 10.302-10.302h276.545c5.69 0 10.302 4.612 10.302 10.302v96.015c0 5.69-4.612 10.302-10.301 10.302z" fill="#9facba"/></g><g><path d="m249.308 361.071h-89.055c-5.69 0-10.302-4.612-10.302-10.302v-78.633c0-5.69 4.612-10.302 10.302-10.302h89.055c5.69 0 10.302 4.612 10.302 10.302v78.633c0 5.69-4.612 10.302-10.302 10.302z" fill="#dd636e"/></g><g><path d="m112.102 392.608v-332.487h-27.05v332.487c0 11.379 9.225 20.604 20.604 20.604h27.05c-11.38-.001-20.604-9.225-20.604-20.604z" fill="#c5d3dd"/></g><g><path d="m491.396 0h-385.741c-11.379 0-20.603 9.225-20.603 20.604v52.433h426.948v-52.433c0-11.379-9.225-20.604-20.604-20.604z" fill="#90d8f9"/></g><g><path d="m132.705 0h-27.05c-11.379 0-20.603 9.225-20.603 20.604v52.433h27.05v-52.433c0-11.379 9.224-20.604 20.603-20.604z" fill="#75cef9"/></g><g><path d="m131.753 46.483h-7.911c-4.267 0-7.726-3.459-7.726-7.726s3.459-7.726 7.726-7.726h7.911c4.267 0 7.726 3.459 7.726 7.726s-3.459 7.726-7.726 7.726z" fill="#75cef9"/></g><g><path d="m170.326 46.483h-7.911c-4.267 0-7.726-3.459-7.726-7.726s3.459-7.726 7.726-7.726h7.911c4.267 0 7.726 3.459 7.726 7.726s-3.458 7.726-7.726 7.726z" fill="#75cef9"/></g><g><path d="m208.9 46.483h-7.912c-4.267 0-7.726-3.459-7.726-7.726s3.459-7.726 7.726-7.726h7.912c4.267 0 7.726 3.459 7.726 7.726s-3.459 7.726-7.726 7.726z" fill="#75cef9"/></g><g><g><path d="m243.663 206.19c-3.71-.636-6.422-3.852-6.422-7.616v-54.163c0-4.268 3.459-7.726 7.726-7.726s7.726 3.459 7.726 7.726v46.48c3.333-.006 7.379-.022 11.213-.043h.044c4.247 0 7.702 3.431 7.725 7.683.024 4.268-3.416 7.745-7.683 7.77-6.182.034-19.776-.016-20.329-.111z" fill="#e8edf2"/></g></g><path d="m215.745 167.131c1.781-3.008 2.822-6.504 2.822-10.246 0-11.139-9.061-20.2-20.2-20.2h-15.747c-4.267 0-7.726 3.459-7.726 7.726v54.208c0 2.055.819 4.025 2.275 5.476 1.448 1.442 3.408 2.25 5.451 2.25h.034s14.474-.064 18.463-.064c12.306 0 22.317-10.011 22.317-22.317 0-6.712-2.983-12.738-7.689-16.833zm-17.378-14.993c2.618 0 4.747 2.13 4.747 4.747s-2.13 4.746-4.747 4.746c-1.175 0-8.02.015-8.02.015v-9.509h8.02zm2.75 38.691c-2.003 0-6.638.016-10.771.032v-13.753c.739-.003 10.771-.008 10.771-.008 3.785 0 6.864 3.079 6.864 6.865.001 3.784-3.079 6.864-6.864 6.864z" fill="#e8edf2"/><g><g><path d="m391.033 206.346c-19.206 0-34.83-15.625-34.83-34.83 0-19.206 15.625-34.831 34.83-34.831 6.979 0 13.715 2.058 19.48 5.953 3.536 2.389 4.466 7.192 2.077 10.727-2.388 3.536-7.192 4.465-10.728 2.077-3.2-2.162-6.945-3.305-10.829-3.305-10.685 0-19.378 8.693-19.378 19.378s8.693 19.377 19.378 19.377c8.345 0 12.81-5.221 14.647-11.651h-7.466c-4.267 0-7.726-3.459-7.726-7.726s3.459-7.726 7.726-7.726h16.216c4.267 0 7.726 3.459 7.726 7.726.001 20.508-12.797 34.831-31.123 34.831z" fill="#e8edf2"/></g></g><g><path d="m312.116 206.346c-19.206 0-34.83-15.625-34.83-34.83 0-19.206 15.625-34.831 34.83-34.831 19.206 0 34.83 15.625 34.83 34.831 0 19.205-15.625 34.83-34.83 34.83zm0-54.208c-10.685 0-19.378 8.693-19.378 19.378s8.693 19.377 19.378 19.377 19.378-8.692 19.378-19.377-8.693-19.378-19.378-19.378z" fill="#e8edf2"/></g><g><path d="m181.993 329.132v-35.358c0-3.831 4.034-6.322 7.459-4.605l35.274 17.679c3.791 1.9 3.791 7.31 0 9.21l-35.274 17.679c-3.426 1.717-7.459-.774-7.459-4.605z" fill="#e8edf2"/></g><g><path d="m447.101 284.073h-156.168c-4.267 0-7.726-3.459-7.726-7.726s3.459-7.726 7.726-7.726h156.168c4.267 0 7.726 3.459 7.726 7.726s-3.459 7.726-7.726 7.726z" fill="#9facba"/></g><g><path d="m447.101 319.179h-156.168c-4.267 0-7.726-3.459-7.726-7.726s3.459-7.726 7.726-7.726h156.168c4.267 0 7.726 3.459 7.726 7.726s-3.459 7.726-7.726 7.726z" fill="#9facba"/></g><g><path d="m447.101 354.285h-156.168c-4.267 0-7.726-3.459-7.726-7.726s3.459-7.726 7.726-7.726h156.168c4.267 0 7.726 3.459 7.726 7.726s-3.459 7.726-7.726 7.726z" fill="#9facba"/></g></g></svg>