<svg id="Capa_1" enable-background="new 0 0 512 512" height="512" viewBox="0 0 512 512" width="512" xmlns="http://www.w3.org/2000/svg"><g><g><path d="m327.97 328.428c6.446 6.446 6.446 16.897 0 23.344l-53.458 53.458 2.163 2.163c5.978 5.978 13.893 9.736 22.332 10.248 11.112.675 22.029 5.254 30.52 13.745 18.897 18.897 18.444 49.816-1.359 68.137-17.771 16.441-45.56 16.664-63.575.49-9.736-8.741-14.949-20.474-15.648-32.423-.492-8.405-4.292-16.277-10.245-22.23l-2.16-2.16-53.458 53.458c-6.446 6.446-16.897 6.446-23.344 0l-53.457-53.458-1.114 1.114c-5.978 5.978-9.736 13.893-10.248 22.332-.675 11.112-5.254 22.03-13.745 30.521-18.898 18.898-49.819 18.444-68.139-1.362-16.44-17.772-16.661-45.561-.486-63.574 8.741-9.735 20.473-14.947 32.421-15.646 8.405-.492 16.276-4.291 22.229-10.245l1.112-1.112-53.458-53.458c-6.446-6.446-6.446-16.897 0-23.344l52.347-52.345c.614-.614.614-1.608 0-2.222l-.003-.003c-5.978-5.978-13.893-9.736-22.333-10.248-11.112-.675-22.029-5.254-30.52-13.745-18.897-18.897-18.444-49.817 1.359-68.138 17.771-16.441 45.56-16.664 63.575-.49 9.736 8.741 14.948 20.474 15.648 32.423.492 8.405 4.292 16.277 10.245 22.23.614.614 1.608.614 2.222 0l52.347-52.347c6.446-6.446 16.897-6.446 23.344 0z" fill="#f6e266"/></g><g><path d="m328.154 93.683c-8.491-8.491-19.409-13.07-30.521-13.745-8.439-.512-16.353-4.27-22.332-10.248l-.002-.002c-.459-.459-.459-1.203 0-1.662l52.627-52.627c6.446-6.446 16.897-6.446 23.344 0l53.458 53.458 2.163-2.163c5.978-5.978 9.736-13.893 10.248-22.332.675-11.112 5.254-22.029 13.745-30.52 18.897-18.897 49.816-18.444 68.137 1.359 16.441 17.771 16.664 45.56.49 63.575-8.741 9.736-20.474 14.949-32.423 15.648-8.405.492-16.277 4.292-22.23 10.245l-2.16 2.16 53.458 53.458c6.446 6.446 6.446 16.897 0 23.344l-53.458 53.458 1.114 1.114c5.978 5.978 13.893 9.736 22.332 10.248 11.112.675 22.03 5.254 30.521 13.745 18.898 18.898 18.444 49.819-1.362 68.139-17.772 16.44-45.561 16.661-63.574.486-9.735-8.741-14.947-20.473-15.646-32.421-.492-8.405-4.291-16.276-10.245-22.229l-1.112-1.112-53.458 53.458c-6.446 6.446-16.897 6.446-23.344 0l-52.347-52.347c-.614-.614-1.608-.614-2.222 0l-.003.003c-5.978 5.978-9.736 13.893-10.248 22.333-.675 11.112-5.254 22.029-13.745 30.52-18.897 18.897-49.817 18.444-68.138-1.359-16.441-17.771-16.664-45.56-.49-63.575 8.741-9.736 20.474-14.948 32.423-15.648 8.405-.492 16.277-4.292 22.23-10.245.614-.614.614-1.608 0-2.222l-52.347-52.347c-6.446-6.446-6.446-16.897 0-23.344l52.627-52.627c.459-.459 1.203-.459 1.662 0 5.953 5.953 9.753 13.824 10.245 22.229.699 11.948 5.911 23.68 15.646 32.421 18.014 16.175 45.802 15.954 63.574-.486 19.806-18.321 20.26-49.242 1.363-68.14z" fill="#dd5790"/></g><g><g><path d="m329.527 431.386c-8.491-8.491-19.409-13.07-30.521-13.745-8.439-.512-16.354-4.27-22.332-10.248l-2.163-2.163 53.458-53.458c6.446-6.446 6.446-16.897 0-23.343l-23.426-23.426c6.446 6.446 6.446 16.897 0 23.343l-144.886 144.886c-6.446 6.446-16.897 6.446-23.344 0l23.426 23.426c6.446 6.446 16.897 6.446 23.344 0l53.458-53.458 2.16 2.16c5.953 5.953 9.754 13.825 10.245 22.23.699 11.949 5.912 23.682 15.648 32.423 18.015 16.174 45.804 15.951 63.575-.49 19.802-18.321 20.255-49.24 1.358-68.137z" fill="#ecc32e"/></g></g><g><g><path d="m466.143 248.449c-8.439-.512-16.353-4.27-22.332-10.248l-1.114-1.114 53.458-53.458c6.446-6.446 6.446-16.897 0-23.343l-23.426-23.426c6.446 6.446 6.446 16.897 0 23.343l-144.887 144.886c-6.446 6.446-16.897 6.446-23.344 0l23.426 23.426c6.446 6.446 16.897 6.446 23.344 0l53.458-53.458 1.112 1.112c5.953 5.953 9.753 13.824 10.244 22.229.699 11.948 5.911 23.68 15.646 32.421 18.014 16.175 45.802 15.954 63.574-.486 19.805-18.32 20.259-49.242 1.361-68.14-8.49-8.49-19.408-13.069-30.52-13.744z" fill="#da387d"/></g></g></g></svg>