<?xml version="1.0" encoding="iso-8859-1"?>
<!-- Generator: Adobe Illustrator 19.0.0, SVG Export Plug-In . SVG Version: 6.00 Build 0)  -->
<svg version="1.1" id="Layer_1" xmlns="http://www.w3.org/2000/svg" xmlns:xlink="http://www.w3.org/1999/xlink" x="0px" y="0px"
	 viewBox="0 0 512.001 512.001" style="enable-background:new 0 0 512.001 512.001;" xml:space="preserve">
<g>
	<path style="fill:#59B6D6;" d="M438.126,73.491c-2.33,0-4.626-1.082-6.092-3.117c-0.947-1.314-1.905-2.62-2.876-3.916
		c-2.482-3.315-1.807-8.017,1.509-10.499c3.316-2.482,8.017-1.808,10.499,1.509c1.025,1.37,2.039,2.75,3.039,4.139
		c2.421,3.361,1.659,8.048-1.702,10.469C441.177,73.031,439.644,73.491,438.126,73.491z"/>
	<path style="fill:#59B6D6;" d="M216.83,495.683c-0.044,0-0.089,0-0.134-0.001c-3.423-0.061-6.879-0.185-10.272-0.371
		c-4.136-0.226-7.305-3.763-7.079-7.898c0.226-4.136,3.766-7.288,7.899-7.079c3.208,0.176,6.477,0.294,9.714,0.351
		c4.142,0.072,7.44,3.489,7.368,7.63C224.255,492.412,220.911,495.683,216.83,495.683z M246.781,494.552
		c-3.827,0-7.095-2.915-7.458-6.802c-0.386-4.125,2.645-7.78,6.769-8.167c3.205-0.3,6.453-0.665,9.654-1.086
		c4.109-0.529,7.873,2.353,8.413,6.459c0.54,4.107-2.352,7.874-6.459,8.414c-3.386,0.444-6.821,0.831-10.211,1.148
		C247.251,494.54,247.015,494.552,246.781,494.552z M177.044,492.016c-0.413,0-0.832-0.034-1.253-0.104
		c-3.376-0.568-6.778-1.207-10.108-1.898c-4.056-0.843-6.661-4.813-5.819-8.868c0.842-4.057,4.813-6.658,8.868-5.819
		c3.146,0.653,6.358,1.257,9.548,1.793c4.085,0.688,6.839,4.556,6.152,8.641C183.815,489.423,180.639,492.016,177.044,492.016z
		 M286.164,487.858c-3.364,0-6.423-2.279-7.272-5.691c-1-4.02,1.448-8.089,5.468-9.089c3.138-0.78,6.294-1.629,9.38-2.521
		c3.982-1.157,8.138,1.142,9.289,5.12s-1.141,8.138-5.12,9.289c-3.267,0.944-6.607,1.843-9.928,2.669
		C287.373,487.786,286.764,487.858,286.164,487.858z M138.241,482.432c-0.777,0-1.567-0.122-2.346-0.378
		c-3.245-1.067-6.51-2.211-9.705-3.397c-3.883-1.441-5.862-5.759-4.419-9.642c1.442-3.884,5.761-5.862,9.642-4.419
		c3.018,1.12,6.104,2.2,9.17,3.21c3.935,1.294,6.075,5.533,4.78,9.468C144.325,480.43,141.392,482.432,138.241,482.432z
		 M324.103,475.318c-2.937,0-5.724-1.735-6.925-4.615c-1.594-3.823,0.212-8.215,4.036-9.809c2.977-1.242,5.962-2.553,8.873-3.896
		c3.761-1.735,8.216-0.093,9.952,3.667c1.736,3.761,0.094,8.217-3.667,9.952c-3.079,1.421-6.236,2.808-9.385,4.12
		C326.043,475.131,325.065,475.318,324.103,475.318z M101.324,467.117c-1.14,0-2.296-0.261-3.383-0.812
		c-3.054-1.547-6.11-3.167-9.083-4.816c-3.622-2.01-4.93-6.575-2.92-10.197c2.01-3.621,6.576-4.93,10.197-2.92
		c2.81,1.559,5.698,3.09,8.584,4.553c3.695,1.871,5.174,6.384,3.302,10.079C106.699,465.612,104.061,467.117,101.324,467.117z
		 M359.689,457.237c-2.535,0-5.009-1.285-6.419-3.611c-2.148-3.541-1.02-8.153,2.522-10.302c2.747-1.667,5.506-3.411,8.201-5.187
		c3.458-2.28,8.109-1.323,10.389,2.137c2.279,3.459,1.322,8.11-2.137,10.389c-2.849,1.878-5.767,3.723-8.672,5.485
		C362.355,456.885,361.013,457.237,359.689,457.237z M392.184,434.035c-2.148,0-4.281-0.918-5.765-2.697
		c-2.652-3.182-2.223-7.911,0.958-10.563c2.483-2.07,4.955-4.209,7.345-6.357c3.08-2.769,7.822-2.516,10.592,0.566
		c2.768,3.081,2.515,7.823-0.566,10.592c-2.528,2.271-5.141,4.532-7.766,6.721C395.58,433.464,393.877,434.035,392.184,434.035z
		 M420.876,406.247c-1.773,0-3.553-0.625-4.982-1.896c-3.095-2.753-3.372-7.494-0.619-10.589c2.138-2.403,4.266-4.887,6.325-7.382
		c2.635-3.196,7.361-3.65,10.558-1.013c3.195,2.636,3.648,7.362,1.012,10.558c-2.176,2.639-4.426,5.265-6.688,7.808
		C425,405.398,422.942,406.247,420.876,406.247z M445.13,374.496c-1.404,0-2.824-0.394-4.087-1.217
		c-3.471-2.262-4.451-6.908-2.189-10.379c1.766-2.71,3.501-5.485,5.158-8.248c2.131-3.552,6.736-4.705,10.289-2.576
		c3.553,2.13,4.706,6.736,2.576,10.289c-1.752,2.923-3.588,5.857-5.456,8.725C449.983,373.296,447.581,374.496,445.13,374.496z
		 M464.383,339.467c-1.039,0-2.095-0.217-3.103-0.676c-3.77-1.716-5.435-6.163-3.719-9.933c1.341-2.947,2.642-5.954,3.866-8.937
		c1.572-3.831,5.952-5.666,9.786-4.091c3.832,1.572,5.664,5.954,4.091,9.786c-1.295,3.155-2.671,6.337-4.09,9.454
		C469.956,337.834,467.232,339.467,464.383,339.467z M478.164,301.93c-0.677,0-1.365-0.093-2.048-0.286
		c-3.985-1.129-6.301-5.274-5.172-9.26c0.877-3.098,1.708-6.259,2.47-9.395c0.978-4.024,5.03-6.499,9.059-5.518
		c4.025,0.978,6.495,5.033,5.518,9.059c-0.806,3.318-1.686,6.663-2.615,9.941C484.441,299.774,481.434,301.93,478.164,301.93z
		 M486.129,262.782c-0.313,0-0.628-0.02-0.947-0.06c-4.11-0.518-7.021-4.27-6.504-8.379c0.403-3.193,0.75-6.443,1.034-9.66
		c0.364-4.125,4.004-7.197,8.13-6.812c4.126,0.364,7.176,4.004,6.812,8.13c-0.3,3.401-0.668,6.839-1.094,10.217
		C493.084,260.009,489.854,262.782,486.129,262.782z M488.151,222.887c-4.063,0-7.401-3.245-7.495-7.328
		c-0.074-3.229-0.209-6.495-0.402-9.709c-0.248-4.135,2.902-7.688,7.037-7.936c4.146-0.258,7.688,2.901,7.936,7.037
		c0.204,3.397,0.347,6.851,0.425,10.264c0.095,4.141-3.185,7.575-7.326,7.67C488.268,222.886,488.209,222.887,488.151,222.887z
		 M484.266,183.13c-3.579,0-6.747-2.57-7.38-6.217c-0.552-3.173-1.172-6.382-1.843-9.536c-0.863-4.051,1.723-8.034,5.774-8.897
		c4.052-0.857,8.035,1.723,8.897,5.774c0.71,3.337,1.367,6.732,1.951,10.091c0.709,4.081-2.024,7.964-6.104,8.674
		C485.125,183.094,484.692,183.13,484.266,183.13z M474.484,144.398c-3.137,0-6.06-1.982-7.111-5.121
		c-1.022-3.052-2.118-6.131-3.257-9.149c-1.463-3.875,0.493-8.202,4.368-9.665s8.203,0.493,9.665,4.368
		c1.206,3.195,2.366,6.453,3.448,9.685c1.315,3.928-0.803,8.178-4.73,9.493C476.077,144.272,475.273,144.398,474.484,144.398z
		 M458.983,107.579c-2.724,0-5.351-1.488-6.68-4.079c-1.472-2.868-3.018-5.748-4.596-8.558c-2.028-3.612-0.745-8.184,2.867-10.212
		c3.611-2.029,8.184-0.745,10.212,2.867c1.67,2.974,3.306,6.021,4.864,9.057c1.891,3.685,0.436,8.205-3.25,10.096
		C461.304,107.312,460.135,107.579,458.983,107.579z"/>
	<path style="fill:#59B6D6;" d="M66.969,446.324c-1.507,0-3.027-0.453-4.348-1.395c-1.395-0.994-2.78-2.001-4.155-3.021
		c-3.327-2.468-4.022-7.165-1.555-10.492c2.468-3.326,7.167-4.021,10.492-1.555c1.299,0.964,2.608,1.916,3.926,2.855
		c3.373,2.404,4.157,7.088,1.753,10.461C71.619,445.229,69.311,446.324,66.969,446.324z"/>
</g>
<circle style="fill:#C0E8F4;" cx="220.571" cy="220.57" r="220.57"/>
<path style="fill:#59B6D6;" d="M220.575,0c-3.454,0-6.887,0.09-10.302,0.247c117.036,5.382,210.272,101.961,210.272,220.327
	s-93.236,214.945-210.272,220.327c3.415,0.157,6.848,0.247,10.302,0.247c121.82,0,220.574-98.754,220.574-220.574
	S342.394,0,220.575,0z"/>
<path style="fill:#FAD06A;" d="M319.53,325.793v6.027c0,0.402-0.124,0.783-0.33,1.113l-6.789,10.219
	c-0.134,0.196-0.227,0.402-0.278,0.638l-6.099,24.9c-0.175,0.711-0.721,1.267-1.422,1.452l-13.361,3.678
	c-0.711,0.196-1.246,0.752-1.422,1.452l-2.658,10.796c-0.021,0.103-0.041,0.196-0.082,0.289l-8.89,21.582
	c-0.268,0.67-0.886,1.133-1.597,1.226l-9.704,1.195c-0.948,0.124-1.679,0.906-1.751,1.855l-0.69,10.229
	c-0.041,0.639-0.402,1.226-0.948,1.576l-7.716,4.718c-0.196,0.123-0.371,0.278-0.515,0.463l-4.842,6.13l-3.338,4.234l-0.01,0.011
	c-0.391,0.051-0.793,0.093-1.185,0.134c-0.927,0.113-1.854,0.206-2.781,0.299c-0.721,0.082-1.442,0.144-2.163,0.206
	c-0.33,0.041-0.67,0.072-0.999,0.093c-1.586,0.144-3.183,0.268-4.79,0.371c-2.4,0.154-4.811,0.278-7.232,0.35l0.165-0.67
	c0.093-0.329,0.082-0.68-0.01-0.999c0-0.021-0.01-0.031-0.01-0.052l-3.07-10.569c-0.021-0.062-0.031-0.114-0.041-0.176l-1.494-7.448
	c-0.072-0.391-0.041-0.793,0.103-1.153l4.419-10.91c0.154-0.371,0.185-0.783,0.093-1.185l-2.884-12.692
	c-0.021-0.093-0.041-0.186-0.051-0.278l-2.946-35.088c-0.072-0.845-0.659-1.545-1.473-1.762l-12.949-3.523
	c-0.659-0.186-1.195-0.691-1.391-1.35l-4.904-16.277c-0.062-0.206-0.165-0.412-0.288-0.577l-7.562-10.621
	c-0.505-0.701-0.505-1.659,0.021-2.359l2.843-3.843c0.443-0.608,0.525-1.411,0.196-2.081l-1.453-2.957
	c-0.34-0.68-0.258-1.504,0.206-2.102l9.735-12.61c0.268-0.35,0.422-0.783,0.422-1.226V285.4c0-0.752,0.422-1.442,1.082-1.793
	l12.434-6.366c0.876-0.443,1.937-0.196,2.524,0.587l2.194,2.936c0.34,0.443,0.824,0.721,1.37,0.793l14.381,1.751
	c0.237,0.031,0.464,0.103,0.68,0.216l35.974,18.646c0.618,0.33,1.03,0.958,1.071,1.669l0.319,5.687
	c0.062,1.123,1.04,1.978,2.163,1.885l9.509-0.752c0.35-0.031,0.69,0.031,1.01,0.186l28.052,13.135
	C319.077,324.309,319.53,325.02,319.53,325.793z"/>
<path style="fill:#F5BE48;" d="M250.437,435.331l-3.338,4.234c-0.402,0.052-0.793,0.103-1.195,0.144
	c-0.927,0.113-1.854,0.206-2.781,0.299c-0.721,0.082-1.442,0.144-2.163,0.206c-0.33,0.041-0.67,0.072-0.999,0.093
	c-1.586,0.144-3.183,0.268-4.79,0.371c-2.4,0.154-4.811,0.278-7.232,0.35l0.165-0.67c0.093-0.329,0.082-0.68-0.01-0.999
	C235.664,438.401,243.122,437.052,250.437,435.331z"/>
<path style="fill:#FAD06A;" d="M374.212,62.274l-0.01,0.031l-1.35,3.204c-0.021,0.052-0.052,0.113-0.072,0.186l-4.018,12.877
	l-1.7,5.429c-0.227,0.731-0.845,1.267-1.597,1.38l-20.748,3.441c-0.474,0.072-0.896,0.319-1.205,0.68l-9.591,11.342
	c-0.041,0.041-0.072,0.082-0.113,0.134l-10.961,15.391c-0.474,0.67-1.308,0.979-2.112,0.783l-7.654-1.916
	c-0.845-0.226-1.453-0.958-1.514-1.813l-1.576-24.086c-0.021-0.309,0.021-0.629,0.155-0.927l6.593-15.236
	c0.299-0.68,0.185-1.463-0.278-2.05l-6.109-7.675c-0.309-0.371-0.453-0.834-0.443-1.318l0.608-20.192
	c0.021-0.7-0.319-1.36-0.907-1.741l-12.64-8.19c-0.567-0.371-0.907-1.01-0.907-1.69v-7.232c0-0.35,0.093-0.69,0.258-0.979
	c0.299-0.546,0.845-0.927,1.504-1.01l8.839-1.071c0.886-0.113,1.586-0.783,1.741-1.658l0.031-0.175v-0.01
	c0.155,0.072,0.309,0.134,0.464,0.206c0.814,0.36,1.628,0.721,2.452,1.092c1.628,0.742,3.245,1.494,4.852,2.266
	c0.803,0.392,1.597,0.783,2.4,1.175C339.165,33.11,357.904,46.44,374.212,62.274z"/>
<path style="fill:#F5BE48;" d="M374.202,62.305l-1.35,3.204c-0.021,0.052-0.052,0.113-0.072,0.186l-4.018,12.877
	c-19.821-23.529-44.483-42.866-72.442-56.464c0.299-0.546,0.845-0.927,1.504-1.01l8.839-1.071c0.886-0.113,1.586-0.783,1.741-1.658
	l0.031-0.175c0.155,0.062,0.309,0.134,0.464,0.196c0.814,0.36,1.628,0.721,2.452,1.092c1.628,0.742,3.245,1.494,4.852,2.266
	c0.803,0.392,1.597,0.783,2.4,1.175C339.155,33.141,357.894,46.471,374.202,62.305z"/>
<path style="fill:#76D3BD;" d="M258.383,158.312c0.361-0.03,0.692-0.15,0.983-0.351l5.053-3.489
	c0.622-0.441,0.952-1.193,0.842-1.945l-0.692-4.612c-0.1-0.662-0.521-1.223-1.123-1.514l-9.866-4.722
	c-0.491-0.231-1.063-0.261-1.574-0.07l-7.921,2.978c-0.431,0.16-0.902,0.17-1.333,0.03l-7.229-2.396
	c-1.033-0.341-1.604-1.434-1.293-2.476l1.925-6.497c0.19-0.642,0.682-1.143,1.323-1.344l21.015-6.487
	c0.12-0.04,0.251-0.06,0.381-0.08l17.085-1.804c1.013-0.11,1.795-0.973,1.795-1.995v-6.848c0-0.241-0.05-0.481-0.13-0.712
	l-9.846-26.108c-0.161-0.441-0.471-0.802-0.882-1.033l-11.029-6.266c-0.621-0.361-1.383-0.351-2.005,0.01l-10.638,6.226
	c-0.251,0.151-0.481,0.361-0.642,0.602l-16.733,24.694c-0.451,0.652-1.233,0.983-2.015,0.852l-19.581-3.439
	c-0.642-0.11-1.193-0.532-1.474-1.123l-10.508-22.419c-0.13-0.271-0.19-0.562-0.19-0.852V69c0-0.652,0.311-1.263,0.832-1.634
	l36.736-26.238c0.692-0.501,0.993-1.373,0.752-2.196l-5.093-17.566c-0.13-0.411-0.381-0.782-0.722-1.043l-13.194-9.896
	c-0.923-0.692-2.246-0.461-2.878,0.511l-8.251,12.583c-0.18,0.281-0.291,0.611-0.321,0.942l-0.702,9.003
	c-0.08,1.053-0.973,1.865-2.025,1.845l-13.014-0.2c-0.221-0.01-0.451-0.05-0.662-0.13l-40.596-15.039
	c-0.642-0.241-1.123-0.802-1.263-1.474l-0.712-3.379c-26.609,10.297-50.712,25.607-71.165,44.777l0.16,0.06
	c0.231,0.07,0.451,0.2,0.642,0.361l21.416,17.927c0.441,0.371,0.702,0.902,0.712,1.474l0.702,23.802
	c0.01,0.201,0.04,0.401,0.11,0.592l5.865,17.145c0.16,0.461,0.14,0.972-0.05,1.434L92.662,138.4c-0.05,0.12-0.09,0.241-0.11,0.371
	l-5.184,24.303c-0.06,0.291-0.06,0.591,0.01,0.882l5.083,21.315c0.1,0.411,0.331,0.782,0.652,1.063l29.677,25.396
	c0.221,0.19,0.401,0.431,0.521,0.692l14.428,31.482c0.261,0.582,0.792,0.992,1.414,1.123l19.912,4.191
	c0.17,0.04,0.341,0.1,0.501,0.181l21.817,11.249c0.351,0.181,0.642,0.461,0.832,0.812l2.597,4.632
	c0.241,0.441,0.642,0.772,1.113,0.922l10.938,3.65c0.652,0.22,1.374,0.09,1.905-0.351c1.213-1.012,3.459-2.878,5.103-4.311
	c1.033-0.892,0.872-2.537-0.311-3.239l-9.745-5.705c-0.381-0.22-0.682-0.571-0.852-0.983l-3.95-9.825
	c-0.09-0.251-0.241-0.471-0.421-0.662l-7.86-8.011c-0.331-0.341-0.541-0.792-0.572-1.273l-0.241-3.81
	c-0.03-0.521-0.271-1.003-0.652-1.353l-4.622-4.191c-1.053-0.962-2.757-0.532-3.228,0.822l-1.013,2.837
	c-0.531,1.484-2.486,1.815-3.459,0.571l-17.215-21.756c-0.832-1.053-0.421-2.597,0.812-3.098l7.78-3.158
	c0.391-0.16,0.822-0.191,1.233-0.09l8.733,2.146c0.471,0.12,0.973,0.06,1.404-0.171l7.309-3.82c0.451-0.231,0.973-0.291,1.454-0.151
	c2.637,0.722,11.249,3.088,11.68,3.329l6.126,3.479c0.331,0.18,0.592,0.461,0.772,0.792l4.281,7.921
	c0.421,0.782,1.313,1.193,2.176,1.013l4.091-0.862c1.333-0.291,2.005-1.805,1.313-2.978l-6.477-11.049
	c-0.371-0.642-0.361-1.444,0.04-2.075l5.434-8.663c0.211-0.331,0.511-0.591,0.872-0.752l9.023-4.111
	c0.501-0.231,0.892-0.652,1.063-1.173l3.77-11.089L258.383,158.312z"/>
<rect x="319.147" y="299.009" transform="matrix(-0.7071 0.7071 -0.7071 -0.7071 807.4073 334.4424)" style="fill:#2C394B;" width="30.583" height="70.864"/>
<circle style="fill:#EC7462;" cx="233.491" cy="233.49" r="120.28"/>
<circle style="fill:#C0E8F4;" cx="233.491" cy="233.49" r="91.39"/>
<circle style="fill:#59B6D6;" cx="233.491" cy="233.49" r="91.39"/>
<circle style="fill:#C0E8F4;" cx="233.681" cy="233.49" r="70.59"/>
<g>
	<path style="fill:#4B596E;" d="M510.791,479.296l-31.494,31.494c-1.609,1.609-4.218,1.609-5.828,0L330.871,368.192
		c-1.609-1.609-1.609-4.218,0-5.828l31.494-31.494c1.609-1.609,4.218-1.609,5.828,0l142.598,142.598
		C512.399,475.078,512.399,477.687,510.791,479.296z"/>
	<path style="fill:#4B596E;" d="M510.794,479.298l-31.496,31.496c-1.609,1.609-4.218,1.609-5.828,0l-142.6-142.6
		c-1.609-1.609-1.609-4.218,0-5.828l19.843-19.843l11.653-11.653c1.609-1.609,4.218-1.609,5.828,0l142.6,142.6
		C512.402,475.079,512.402,477.688,510.794,479.298z"/>
</g>
<path style="fill:#2C394B;" d="M510.792,479.298l-11.661,11.652L350.714,342.523l11.653-11.653c1.609-1.609,4.218-1.609,5.828,0
	l142.599,142.599C512.402,475.079,512.401,477.689,510.792,479.298z"/>
<polygon style="fill:#EC7462;" points="433.54,396.215 418.973,410.782 396.217,433.539 371.152,408.474 393.909,385.718 
	408.476,371.151 "/>
<rect x="403.412" y="373.246" transform="matrix(-0.7071 0.7071 -0.7071 -0.7071 982.7068 374.8865)" style="fill:#DB4E40;" width="20.6" height="35.446"/>
<g>
</g>
<g>
</g>
<g>
</g>
<g>
</g>
<g>
</g>
<g>
</g>
<g>
</g>
<g>
</g>
<g>
</g>
<g>
</g>
<g>
</g>
<g>
</g>
<g>
</g>
<g>
</g>
<g>
</g>
</svg>
