<svg id="Capa_1" enable-background="new 0 0 512.01 512.01" height="512" viewBox="0 0 512.01 512.01" width="512" xmlns="http://www.w3.org/2000/svg"><path d="m361 306.525v190.48c0 8.28-6.72 15-15 15h-331c-8.28 0-15-6.72-15-15v-190.48c0-44.98 33.26-83.13 77.91-89.19l49.07-6.65c1.5-.2-5.34-.14 105.02-.14 1.45 0-1.84-.38 51.09 6.79 44.57 6.05 77.91 44.13 77.91 89.19z" fill="#b744b7"/><path d="m361 306.525v190.48c0 8.28-6.72 15-15 15h-165.5v-301.47c13.622.012 33.748.01 51.5.01 1.515 0-1.398-.309 51.09 6.79 44.57 6.05 77.91 44.13 77.91 89.19z" fill="#922791"/><path d="m287 401.005v111h-30v-111c0-8.28 6.72-15 15-15s15 6.72 15 15z" fill="#56007d"/><path d="m106 361.275v150.73h-30v-150.73c0-8.28 6.72-15 15-15s15 6.72 15 15z" fill="#922791"/><path d="m498.81 498.855c-17.54 17.5-46.08 17.5-63.62 0-.039-.039-62.929-62.804-62.96-62.85 29.97-9.87 53.73-33.56 63.68-63.5.033.033 62.866 62.736 62.9 62.77 17.6 17.57 17.6 46.01 0 63.58z" fill="#663325"/><path d="m498.81 498.855c-2.291-2.291-79.867-79.867-87.15-87.15 10.89-10.89 19.29-24.27 24.25-39.2 5.272 5.272-4.667-4.648 62.9 62.77 17.6 17.57 17.6 46.01 0 63.58z" fill="#3c1b13"/><circle cx="341" cy="341.005" fill="#e0f4ff" r="105"/><path d="m446 341.005c0 28.127-11.216 54.654-30.81 74.23-17.182-17.182-131.553-131.553-148.42-148.42 19.01-19.03 45.27-30.81 74.23-30.81 57.9 0 105 47.1 105 105z" fill="#bbdcff"/><circle cx="341" cy="341.005" fill="#00b8f0" r="75"/><path d="m416 341.005c0 20.69-8.42 39.45-22.01 53.03l-106.02-106.02c13.58-13.59 32.34-22.01 53.03-22.01 41.36 0 75 33.64 75 75z" fill="#0097f0"/><path d="m241 226.005c0 33.08-26.92 60-60 60s-60-26.92-60-60c0-28.115-.025-26.681.04-27.4 34.568 28.562 85.303 28.602 119.92 0 .065.719.04-.747.04 27.4z" fill="#fdbf00"/><path d="m241 226.005c0 33.08-26.92 60-60 60-.17 0-.33 0-.5-.01v-65.95c23.316 0 44.063-7.903 60.46-21.44.082.931.04 2.497.04 27.4z" fill="#fe9022"/><path d="m211 215.185v10.82c0 16.54-13.46 30-30 30s-30-13.46-30-30v-10.82c19.379 6.48 40.614 6.482 60 0z" fill="#ffcebf"/><path d="m211 215.185v10.82c0 16.54-13.46 30-30 30-.17 0-.34 0-.5-.01v-35.96c1 .059 5.849.033 12.14-.7 6.266-.869 11.057-1.754 18.36-4.15z" fill="#ffb99c"/><path d="m184.523.005h-7.047c-59.266 0-105.065 51.866-97.883 110.416l3.523 28.715c6.049 49.293 48 85.904 97.883 85.904 49.868 0 91.831-36.595 97.883-85.904l3.523-28.715c7.189-58.59-38.651-110.416-97.882-110.416z" fill="#ffece3"/><path d="m282.41 110.425-3.53 28.71c-6.05 49.31-48.01 85.91-97.88 85.91-.17 0-.33 0-.5-.01v-225.03h4.02c58.189 0 105.159 50.713 97.89 110.42z" fill="#ffdccd"/><path d="m282.85 106.005h-78.85l-23.5-29.933-22.5 29.933h-78.85c-4.42-56.71 40.56-106 98.33-106h7.04c57.74 0 102.75 49.25 98.33 106z" fill="#663325"/><path d="m282.86 105.835c0 .06-.01.11-.01.17h-78.85l-23.5-29.93v-76.07h4.02c58.503 0 103.036 50.471 98.34 105.83z" fill="#3c1b13"/></svg>