<svg id="Layer_1" enable-background="new 0 0 468.019 468.019" height="512" viewBox="0 0 468.019 468.019" width="512" xmlns="http://www.w3.org/2000/svg"><g><g><g><path d="m316.682 248.323h-20.946c-46.965 0-85.696 36.871-88.102 83.871l-4.952 96.753c-.97 18.95 14.102 34.847 33.038 34.847h140.976c18.936 0 34.008-15.897 33.038-34.847l-4.952-96.753c-2.403-47-41.135-83.871-88.1-83.871z" fill="#6262f4"/></g><path d="m335.244 379.709c0-14.126-11.534-25.619-25.711-25.619h-6.646c-8.663 0-15.711-7.007-15.711-15.619s7.048-15.619 15.711-15.619h22.507c2.761 0 5-2.239 5-5s-2.239-5-5-5h-14.185v-12.796c0-2.761-2.239-5-5-5s-5 2.239-5 5v12.856c-13.398.865-24.034 11.994-24.034 25.559 0 14.126 11.534 25.619 25.711 25.619h6.646c8.663 0 15.711 7.007 15.711 15.619s-7.048 15.619-15.711 15.619h-22.507c-2.761 0-5 2.239-5 5s2.239 5 5 5h14.184v12.796c0 2.761 2.239 5 5 5s5-2.239 5-5v-12.857c13.398-.864 24.035-11.994 24.035-25.558z" fill="#fff"/><g><path d="m338.383 147.648c6.603-4.4 17.993-5.827 25.265-2.671 33.236 14.425-19.927 73.767-19.927 73.767h-75.344s-53.306-59.94-19.06-73.975c7.907-3.269 17.055-2.253 24.162 2.404 7.336 4.661 35.636 19.977 64.904.475z" fill="#6262f4"/></g><g><g><path d="m431.401 289.098c-1.784 0-3.51-.957-4.411-2.639-.063-.116-6.154-11.291-18.197-21.498-15.833-13.421-34.06-18.97-54.166-16.5-2.748.34-5.237-1.611-5.573-4.352-.337-2.741 1.611-5.236 4.352-5.573 22.806-2.804 44.295 3.784 62.152 19.051 13.375 11.435 19.975 23.641 20.249 24.154 1.827 3.213-.749 7.443-4.406 7.357z" fill="#6262f4"/></g><g><path d="m357.381 239.1c-.722 0-1.454-.157-2.147-.489-2.482-1.188-3.543-4.147-2.367-6.635.152-.322 15.617-31.956 52.379-15.648 37.144 16.477 54.912 6.041 55.087 5.934 2.315-1.503 5.386-.827 6.889 1.491 1.503 2.316.816 5.43-1.5 6.933-.875.567-21.922 13.686-64.531-5.216-11.713-5.195-21.805-5.032-29.995.485-6.309 4.25-9.269 10.256-9.298 10.316-.866 1.784-2.656 2.829-4.517 2.829z" fill="#6262f4"/></g></g><g><path d="m349.415 213.219h-86.356c-11.172 0-20.228 9.056-20.228 20.228v.428c0 11.172 9.056 20.228 20.228 20.228h86.356c11.172 0 20.228-9.056 20.228-20.228v-.428c0-11.171-9.057-20.228-20.228-20.228z" fill="#ac9ef9"/></g></g><g><g><path d="m230.919 278.908h-109.019c-12.627 0-22.864 10.236-22.864 22.864v.484c0 12.627 10.236 22.864 22.864 22.864h109.019c12.627 0 22.864-10.236 22.864-22.864v-.484c0-12.627-10.237-22.864-22.864-22.864z" fill="#fdbf38"/></g><g><path d="m141.883 325.119h-109.019c-12.628 0-22.864 10.237-22.864 22.864v.484c0 12.627 10.236 22.864 22.864 22.864h109.019c12.627 0 22.864-10.236 22.864-22.864v-.484c-.001-12.627-10.237-22.864-22.864-22.864z" fill="#fdbf38"/></g><g><path d="m141.883 417.541h-109.019c-12.628 0-22.864 10.236-22.864 22.863v.484c0 12.627 10.236 22.864 22.864 22.864h109.019c12.627 0 22.864-10.236 22.864-22.864v-.484c-.001-12.627-10.237-22.863-22.864-22.863z" fill="#fdbf38"/></g><g><path d="m141.883 371.33h-109.019c-12.628 0-22.864 10.236-22.864 22.864v.484c0 12.627 10.236 22.864 22.864 22.864h109.019c12.627 0 22.864-10.236 22.864-22.864v-.484c-.001-12.628-10.237-22.864-22.864-22.864z" fill="#ffd085"/></g><g><path d="m230.919 325.119h-109.019c-12.627 0-22.864 10.236-22.864 22.864v.484c0 12.627 10.236 22.864 22.864 22.864h109.019c12.627 0 22.864-10.236 22.864-22.864v-.484c0-12.627-10.237-22.864-22.864-22.864z" fill="#ffd085"/></g><g><path d="m230.919 417.541h-109.019c-12.627 0-22.864 10.236-22.864 22.864v.484c0 12.627 10.236 22.864 22.864 22.864h109.019c12.627 0 22.864-10.236 22.864-22.864v-.484c0-12.628-10.237-22.864-22.864-22.864z" fill="#ffd085"/></g><g><path d="m230.919 371.33h-109.019c-12.627 0-22.864 10.236-22.864 22.864v.484c0 12.627 10.236 22.864 22.864 22.864h109.019c12.627 0 22.864-10.236 22.864-22.864v-.484c0-12.628-10.237-22.864-22.864-22.864z" fill="#fdbf38"/></g><g><g><ellipse cx="115.743" cy="407.237" fill="#35c9ad" rx="55.937" ry="56.48"/></g><path d="m134.201 418.871c0-9.172-7.445-16.634-16.597-16.634h-3.722c-3.638 0-6.598-2.976-6.598-6.634s2.959-6.634 6.598-6.634h12.603c2.761 0 5-2.239 5-5s-2.239-5-5-5h-5.742v-5.041c0-2.761-2.239-5-5-5s-5 2.239-5 5v5.349c-7.655 1.476-13.458 8.231-13.458 16.327 0 9.172 7.446 16.634 16.598 16.634h3.722c3.638 0 6.597 2.976 6.597 6.634s-2.959 6.634-6.597 6.634h-12.605c-2.761 0-5 2.239-5 5s2.239 5 5 5h5.743v5.041c0 2.761 2.239 5 5 5s5-2.239 5-5v-5.349c7.655-1.477 13.458-8.231 13.458-16.327z" fill="#fff"/></g></g><g id="XMLID_2_"><path d="m102.076 133.381h9.453c8.337 0 13.088-9.526 8.072-16.186l-33.001-43.816c-4.043-5.368-12.102-5.368-16.145 0l-33.002 43.816c-5.016 6.659-.265 16.186 8.072 16.186h9.453v70.762h47.096v-70.762z" fill="#35c9ad"/></g><g id="XMLID_3_"><path d="m442.641 65.672h9.453c8.337 0 13.088-9.526 8.072-16.186l-33.001-43.815c-4.043-5.368-12.102-5.368-16.145 0l-33.002 43.816c-5.016 6.659-.265 16.186 8.072 16.186h9.453v70.762h47.096v-70.763z" fill="#35c9ad"/></g><g><path d="m463 466.375h-458c-2.761 0-5-2.239-5-5s2.239-5 5-5h458c2.761 0 5 2.239 5 5s-2.239 5-5 5z" fill="#9bb6c6"/></g></g></svg>