<svg height="512" viewBox="0 0 58 58" width="512" xmlns="http://www.w3.org/2000/svg"><g id="Page-1" fill="none" fill-rule="evenodd"><g id="038---Market-Stall" fill-rule="nonzero"><path id="Rectangle-path" d="m2 42h54v12h-54z" fill="#f0c419"/><path id="Shape" d="m58 56c-.0032948 1.1032019-.8967981 1.9967052-2 2h-54c-.53059053.0028231-1.0395388-.2101411-1.41-.59-.3798589-.3704612-.59282307-.8794095-.59-1.41.0032948-1.1032019.89679813-1.9967052 2-2h54c1.1011688.0081672 1.9918328.8988312 2 2z" fill="#3f5c6c"/><path id="Shape" d="m7 16v22h-4v-22.13z" fill="#a56a43"/><path id="Shape" d="m55 15.87v22.13h-4v-22z" fill="#a56a43"/><path id="Shape" d="m15.4-.00000105-4 10.00000105-.4 1v1c0 2.209139-1.790861 4-4 4h-3c-1.06127285.0013291-2.07946091-.4196715-2.82989472-1.1701053-.75043382-.7504338-1.17143436-1.7686219-1.17010528-2.8298947.00173641-.6521511.18903129-1.290341.54-1.84l4.99-7.84c.91170016-1.44510926 2.50133481-2.32110746 4.21-2.32z" fill="#e64c3c"/><path id="Shape" d="m23 0v12c0 2.209139-1.790861 4-4 4h-4c-2.209139 0-4-1.790861-4-4v-1l4.4-11z" fill="#ecf0f1"/><path id="Shape" d="m35 0v12c0 2.209139-1.790861 4-4 4h-4c-2.209139 0-4-1.790861-4-4v-12z" fill="#e64c3c"/><path id="Shape" d="m47 11v1c0 2.209139-1.790861 4-4 4h-4c-2.209139 0-4-1.790861-4-4v-12h7.6z" fill="#ecf0f1"/><path id="Shape" d="m58 12c.0013291 1.0612728-.4196715 2.0794609-1.1701053 2.8298947s-1.7686219 1.1714344-2.8298947 1.1701053h-3c-2.209139 0-4-1.790861-4-4v-1l-.4-1-4-10.00000105 5.66.00000105c1.7086652-.00110746 3.2982998.87489074 4.21 2.32l4.99 7.84c.3509687.549659.5382636 1.1878489.54 1.84z" fill="#e64c3c"/><path id="Shape" d="m47 11v1h-12v-2h11.6z" fill="#bdc3c7"/><path id="Shape" d="m23 10v2h-12v-1l.4-1z" fill="#bdc3c7"/><g fill="#c03a2b"><path id="Shape" d="m3 10h8.4l-.4 1v1h-8c-.55228475 0-1-.4477153-1-1s.44771525-1 1-1z"/><path id="Rectangle-path" d="m23 10h12v2h-12z"/><path id="Shape" d="m56 11c0 .5522847-.4477153 1-1 1h-8v-1l-.4-1h8.4c.5522847 0 1 .4477153 1 1z"/></g><rect id="Rectangle-path" fill="#547580" height="4" rx="2" width="58" y="38"/><path id="Shape" d="m12 32h18c.5522847 0 1 .4477153 1 1v5h-20v-5c0-.5522847.4477153-1 1-1z" fill="#35495e"/><rect id="Rectangle-path" fill="#2fa8cc" height="4" rx="1" width="10" x="11" y="22"/><path id="Rectangle-path" d="m14 26h4v6h-4z" fill="#2c3e50"/><path id="Shape" d="m40 30 1 8h2 2l1-8z" fill="#2fa8cc"/></g></g></svg>