<svg id="Layer_1" enable-background="new 0 0 512 512" height="512" viewBox="0 0 512 512" width="512" xmlns="http://www.w3.org/2000/svg"><g><path d="m111.401 79.266h-64.267c-8.284 0-15-6.716-15-15v-49.266c0-8.284 6.716-15 15-15h64.268c8.284 0 15 6.716 15 15v49.266c-.001 8.284-6.716 15-15.001 15z" fill="#28343b"/><path d="m111.401 512h-64.267c-8.284 0-15-6.716-15-15v-145.666c0-8.284 6.716-15 15-15h64.268c8.284 0 15 6.716 15 15v145.666c-.001 8.284-6.716 15-15.001 15z" fill="#28343b"/><path d="m126.401 64.266v-49.266c0-8.284-6.716-15-15-15h-32.133v79.266h32.134c8.284 0 14.999-6.716 14.999-15z" fill="#25201c"/><path d="m126.401 497v-145.666c0-8.284-6.716-15-15-15h-32.133v175.666h32.134c8.284 0 14.999-6.716 14.999-15z" fill="#25201c"/><path d="m464.576 351.334h-432.442v-94.267c0-8.284 6.716-15 15-15h64.268v-68.533h-64.268c-8.284 0-15-6.716-15-15v-94.266h432.442c3.955 0 7.833 1.419 10.676 4.17 4.843 4.687 5.909 11.782 3.03 17.538l-60.912 121.825 60.912 121.825c2.879 5.756 1.813 12.851-3.03 17.538-2.842 2.751-6.72 4.17-10.676 4.17z" fill="#ffa659"/><path d="m111.401 242.067h-64.267c-8.284 0-15 6.716-15 15v94.267h432.442c3.955 0 7.833-1.419 10.676-4.17 4.844-4.687 5.909-11.782 3.03-17.538l-60.912-121.825h-305.969z" fill="#fc7950"/><path d="m32.134 257.067v-98.535h79.268c8.284 0 15 6.716 15 15v68.535c0 8.284-6.716 15-15 15z" fill="#28343b"/><path d="m126.401 242.067v-68.535c0-8.284-6.716-15-15-15h-32.133v98.535h32.134c8.284 0 14.999-6.715 14.999-15z" fill="#25201c"/></g></svg>