<?xml version="1.0" encoding="utf-8"?>
<!-- Generator: Adobe Illustrator 22.0.1, SVG Export Plug-In . SVG Version: 6.00 Build 0)  -->
<svg version="1.1" id="Layer_1" xmlns="http://www.w3.org/2000/svg" xmlns:xlink="http://www.w3.org/1999/xlink" x="0px" y="0px"
	 viewBox="0 0 1470 1200" style="enable-background:new 0 0 1470 1200;" xml:space="preserve">
<style type="text/css">
	.st0{fill:#8089FF;}
	.st1{fill:#54CEFF;}
	.st2{fill:#84CE65;}
	.st3{fill:#FE60A1;}
	.st4{opacity:0.2;}
	.st5{fill:#C5D3E3;}
	.st6{fill:#9BA9B8;}
</style>
<g id="_x2014_ÎÓÈ_x5F_2">
</g>
<path class="st0" d="M438.7,260.5c2.1-1.5,4.4-2.2,7-2c2.8,0.2,5.2,1.4,7.2,3.4l9.7,9.7c0.1,0.1,0.2,0.3,0.2,0.4
	c0,0.2,0,0.3-0.1,0.5c-0.1,0.2-0.2,0.3-0.3,0.4c-0.2,0.1-0.3,0.1-0.5,0.1l-4.4-0.3l0.6,4c0,0.1,0,0.2,0,0.3c0,0.1-0.1,0.2-0.1,0.2
	c-0.1,0.1-0.1,0.2-0.2,0.2c-0.2,0.2-0.4,0.3-0.6,0.2l-3.9-0.6l0.6,3.9c0,0.1,0,0.3-0.1,0.4c-0.1,0.1-0.1,0.2-0.2,0.3
	c-0.2,0.2-0.4,0.3-0.7,0.2l-4-0.6l0.2,4.5c0,0.2-0.1,0.4-0.3,0.6c-0.1,0.1-0.2,0.1-0.2,0.2c-0.2,0.1-0.3,0.1-0.5,0.1
	s-0.3-0.1-0.4-0.2l-9.7-9.7c-1.4-1.4-2.4-3.1-3-4.9c-0.5-1.9-0.6-3.7-0.2-5.6c0.4-1.8,1.3-3.4,2.7-4.8
	C438,261,438.4,260.7,438.7,260.5z M460.1,271.2l-8.2-8.2c-1.2-1.2-2.7-2.1-4.2-2.5c-1.6-0.5-3.2-0.5-4.8-0.2
	c-1.6,0.4-2.9,1.1-4,2.2c-1.1,1.1-1.8,2.5-2.2,4c-0.4,1.6-0.3,3.1,0.2,4.8c0.5,1.6,1.4,3,2.5,4.2l8.2,8.2l-0.2-3.4
	c0-0.2,0.1-0.4,0.2-0.6c0,0,0,0,0.1-0.1s0.1-0.1,0.1-0.1c0.1-0.1,0.1-0.1,0.1-0.1c0.1,0,0.1,0,0.1,0c0.1,0,0.1,0,0.2,0
	c0.1,0,0.1,0,0.1,0l3.9,0.6l-0.5-4c-0.1-0.3,0.1-0.5,0.2-0.7c0.2-0.2,0.4-0.3,0.6-0.2l3.9,0.6l-0.6-3.9c0-0.1,0-0.2,0-0.4
	c0.1-0.1,0.1-0.2,0.2-0.3c0.2-0.2,0.4-0.3,0.6-0.3L460.1,271.2z M441.4,270.3c0.1-0.1,0.2-0.1,0.3-0.2c0.1-0.1,0.2-0.1,0.3-0.1
	c0.1,0,0.2,0,0.3,0c0.1,0,0.2,0,0.3,0c0.1,0,0.2,0.1,0.3,0.1c0.1,0.1,0.2,0.1,0.3,0.2c0.1,0.1,0.2,0.1,0.3,0.2
	c0.3,0.3,0.5,0.7,0.5,1.1s-0.2,0.8-0.5,1.1s-0.7,0.5-1.1,0.5s-0.8-0.2-1.1-0.5s-0.5-0.7-0.5-1.1c0-0.4,0.2-0.8,0.5-1.1
	C441.2,270.4,441.3,270.3,441.4,270.3z M447.3,264.4c0.2-0.1,0.4-0.1,0.6-0.1c0.2,0,0.4,0.1,0.6,0.1c0.2,0.1,0.4,0.2,0.5,0.4
	c0.3,0.3,0.5,0.7,0.5,1.1c0,0.4-0.2,0.8-0.5,1.1c-0.2,0.2-0.3,0.3-0.5,0.4c-0.2,0.1-0.4,0.1-0.6,0.1c-0.2,0-0.4-0.1-0.6-0.1
	c-0.2-0.1-0.4-0.2-0.5-0.4c-0.2-0.2-0.3-0.4-0.4-0.7c-0.1-0.3-0.1-0.5,0-0.8c0.1-0.3,0.2-0.5,0.4-0.7
	C447,264.6,447.1,264.5,447.3,264.4z"/>
<path class="st1" d="M1036,300.9c0,0.1,0,0.1,0,0.1v12c0,0.3-0.1,0.5-0.2,0.8c-0.2,0.3-0.3,0.4-0.6,0.6c-0.3,0.2-0.5,0.2-0.8,0.2
	H1012c-0.4,0-0.8-0.2-1.1-0.5c-0.3-0.3-0.5-0.7-0.5-1.1v-12c0-0.6,0.2-1,0.7-1.4l4.1-4.1v-2.7c0-0.2,0.1-0.4,0.2-0.5
	c0.2-0.2,0.3-0.2,0.5-0.2h2.7l2.9-2.5c0.2-0.2,0.4-0.3,0.6-0.4c0.2-0.1,0.5-0.2,0.7-0.2c0.3-0.1,0.5-0.1,0.8,0s0.5,0.1,0.7,0.2
	c0.2,0.1,0.4,0.3,0.6,0.4l2.9,2.5h2.5c0.2,0,0.4,0.1,0.5,0.2c0.2,0.2,0.2,0.3,0.2,0.5v2.6l4.2,4.2c0.1,0.1,0.1,0.1,0.2,0.2
	c0.1,0.1,0.1,0.1,0.1,0.2l0,0c0.1,0.1,0.1,0.1,0.1,0.2c0.1,0.1,0.1,0.1,0.1,0.2c0,0.1,0.1,0.1,0.1,0.2c0,0.1,0,0.1,0,0.2
	C1036,300.8,1036,300.8,1036,300.9z M1012,302.6v9.3l5.1-4.8L1012,302.6z M1012.9,300l-0.7,0.6l2.9,2.6v-5.5L1012.9,300L1012.9,300z
	 M1013.1,313h20.2l-9.6-8.7c-0.2-0.1-0.4-0.2-0.6-0.2c-0.2,0-0.4,0.1-0.6,0.2l-3.5,3.2c0,0.1-0.1,0.1-0.1,0.1l-0.1,0.1
	c-0.1,0.1-0.2,0.2-0.3,0.2L1013.1,313z M1016.8,293.7v11l1.5,1.4l3.2-3c0.1-0.1,0.2-0.2,0.3-0.2c0.1-0.1,0.3-0.1,0.4-0.2
	c0.1-0.1,0.2-0.1,0.4-0.1c0.1-0.1,0.3-0.1,0.4-0.1c0.1,0,0.3,0,0.4,0s0.3,0.1,0.4,0.1c0.1,0.1,0.3,0.1,0.4,0.1
	c0.1,0.1,0.2,0.1,0.3,0.2c0.1,0.1,0.2,0.2,0.3,0.2l3.4,3.1l1.4-1.3v-11.2H1016.8z M1021.1,292.1h4.4l-1.6-1.4
	c-0.1-0.1-0.2-0.1-0.3-0.2c-0.1-0.1-0.2-0.1-0.3-0.1c-0.2,0-0.4,0.1-0.6,0.2L1021.1,292.1z M1034.5,311.8v-9l-5.1,4.5L1034.5,311.8z
	 M1031.2,297.7v5.7l3-2.7l-1.4-1.4l0,0L1031.2,297.7z"/>
<path class="st2" d="M984.9,629.4c-0.1,0-0.1,0-0.2,0c-0.1,0-0.1,0-0.2,0c-0.1,0-0.1,0-0.2-0.1c-0.1,0-0.1-0.1-0.2-0.1
	c-0.1,0-0.1-0.1-0.2-0.1c-0.1,0-0.1-0.1-0.2-0.1c-0.1-0.1-0.1-0.1-0.2-0.1c-0.1-0.1-0.1-0.1-0.2-0.1l-10.9-11
	c-0.4-0.4-0.5-0.8-0.5-1.4s0.2-1,0.5-1.4l4-4c0.1-0.1,0.3-0.2,0.4-0.2c0.2-0.1,0.3,0,0.5,0.1c0.2,0.1,0.3,0.2,0.3,0.4
	c0.1,0.2,0.1,0.3,0.1,0.5c-0.1,0.1-0.1,0.2-0.1,0.3c0,0.1,0,0.2,0,0.3c0,0.6,0.2,1.1,0.4,1.6c0.3,0.5,0.6,0.9,1.2,1.2
	c0.5,0.3,1,0.4,1.6,0.4c0.9,0,1.6-0.3,2.2-0.9c0.6-0.6,0.9-1.4,0.9-2.3c0-0.4-0.1-0.9-0.2-1.2s-0.4-0.7-0.6-1
	c-0.3-0.3-0.6-0.5-1-0.7c-0.4-0.2-0.8-0.3-1.2-0.3c-0.2,0-0.3,0-0.6,0.1c-0.4,0.1-0.6-0.1-0.9-0.4c-0.2-0.3-0.1-0.6,0.2-0.9l3.7-3.8
	c0.2-0.2,0.4-0.3,0.6-0.4c0.2-0.1,0.5-0.2,0.7-0.2s0.5,0.1,0.7,0.2c0.2,0.1,0.4,0.2,0.6,0.4l2.8,2.8c0.3-0.9,0.8-1.6,1.6-2.2
	c0.8-0.6,1.6-0.9,2.6-0.9c0.6,0,1.2,0.1,1.7,0.3c0.5,0.2,1,0.5,1.4,0.9s0.7,0.9,0.9,1.4c0.2,0.5,0.3,1.1,0.3,1.7
	c0,0.4-0.1,0.8-0.2,1.1s-0.2,0.7-0.4,1c-0.2,0.3-0.4,0.6-0.6,0.9c-0.3,0.3-0.5,0.5-0.9,0.7c-0.3,0.2-0.6,0.4-1,0.5l2.7,2.7
	c0.4,0.4,0.5,0.8,0.5,1.4c0,0.5-0.2,1-0.5,1.4l-10.9,11C985.9,629.2,985.4,629.4,984.9,629.4z M976.5,613.7l-2.7,2.7
	c-0.2,0.2-0.2,0.3,0,0.4l10.9,11c0.2,0.1,0.3,0.1,0.4,0l10.9-11c0.1-0.1,0.1-0.1,0.1-0.1s0-0.1,0-0.2c0-0.1-0.1-0.1-0.1-0.2
	l-3.8-3.8c-0.3-0.3-0.3-0.6-0.2-0.9c0.2-0.3,0.4-0.5,0.8-0.4h0.1l0,0c0.1,0,0.2,0,0.2,0c0.8,0,1.5-0.3,2-0.8c0.5-0.5,0.8-1.2,0.8-2
	s-0.3-1.5-0.8-2c-0.5-0.5-1.2-0.8-2-0.8c-0.4,0-0.7,0.1-1.1,0.2c-0.3,0.2-0.6,0.3-0.9,0.6c-0.3,0.3-0.4,0.5-0.6,0.9
	c-0.2,0.3-0.2,0.7-0.2,1.1c0,0.1,0,0.1,0,0.2v0.2c0,0.1,0,0.2,0,0.3c-0.1,0.1-0.1,0.2-0.2,0.3c-0.1,0.1-0.2,0.2-0.3,0.2
	c-0.3,0.2-0.6,0.1-0.9-0.2l-4-4c-0.1-0.1-0.1-0.1-0.1-0.1s-0.1-0.1-0.1-0.1h-0.1c0,0-0.1,0-0.1,0.1c-0.1,0-0.1,0.1-0.1,0.1l-2.4,2.4
	c1,0.3,1.9,0.8,2.5,1.7s1,1.8,1,3c0,0.4-0.1,0.9-0.2,1.3c-0.1,0.4-0.3,0.8-0.5,1.1c-0.2,0.3-0.4,0.7-0.7,1c-0.3,0.3-0.6,0.5-0.9,0.8
	c-0.3,0.2-0.7,0.4-1.1,0.5c-0.4,0.1-0.8,0.2-1.2,0.2c-0.2,0-0.4,0-0.6-0.1c-0.2-0.1-0.4-0.1-0.6-0.2c-0.2-0.1-0.4-0.1-0.6-0.2
	c-0.2-0.1-0.4-0.2-0.5-0.3c-0.2-0.1-0.3-0.2-0.5-0.3c-0.2-0.1-0.3-0.3-0.5-0.4c-0.2-0.2-0.3-0.3-0.4-0.5c-0.1-0.2-0.2-0.4-0.3-0.5
	c-0.1-0.2-0.2-0.4-0.3-0.5C976.6,614.1,976.5,613.9,976.5,613.7z"/>
<path class="st3" d="M414.6,639.8c-0.1,0-0.2,0-0.3,0c-0.1,0-0.2,0-0.3,0c-0.1,0-0.2,0-0.3,0c-0.1,0-0.2,0-0.3,0
	c-0.1,0-0.2-0.1-0.3-0.1c-0.1,0.2-0.4,0.4-0.8,0.7c-0.4,0.3-0.9,0.6-1.4,1c-0.5,0.3-1.1,0.6-1.7,1c-0.6,0.3-1.2,0.5-1.6,0.5l0,0
	c-0.1,0-0.1,0-0.2,0c-0.1,0-0.1,0-0.2,0c-0.1,0-0.1-0.1-0.1-0.1c-0.1,0-0.1-0.1-0.1-0.1c-0.1,0-0.1-0.1-0.1-0.1
	c0-0.1-0.1-0.1-0.1-0.1s-0.1-0.1-0.1-0.1c0-0.1,0-0.1,0-0.2c0-0.1,0-0.2,0.1-0.2l0,0c0.9-1.6,1.4-2.7,1.4-3.5v-0.1
	c-1.3-0.6-2.3-1.6-3-2.9c-0.7-1.3-1-2.7-1-4.1s0.5-2.8,1.4-4s2.2-2.2,3.8-2.9c1.6-0.7,3.4-1,5.3-1c0.7,0,1.4,0.1,2.1,0.2
	c0.7,0.1,1.4,0.3,1.9,0.4c0.6,0.2,1.2,0.4,1.8,0.7c0.5,0.3,1.1,0.6,1.5,1c0.4,0.3,0.9,0.8,1.2,1.1c0.4,0.4,0.7,0.9,1,1.4
	c0.3,0.5,0.4,1,0.6,1.5c0.2,0.5,0.2,1,0.2,1.6c0,1.6-0.4,3-1.3,4.3c-0.9,1.2-2.1,2.2-3.7,2.9c-1.6,0.7-3.3,1-5.2,1
	C414.8,639.8,414.7,639.8,414.6,639.8z M413.4,638.1c0.5,0.1,1,0.1,1.5,0.1c1.2,0,2.3-0.2,3.4-0.5c1.1-0.3,1.9-0.8,2.7-1.4
	c0.8-0.6,1.4-1.3,1.8-2.1c0.4-0.8,0.6-1.7,0.6-2.7c0-1.1-0.4-2.2-1.2-3.1c-0.8-1-1.8-1.7-3.2-2.3s-2.8-0.8-4.4-0.8s-3.1,0.3-4.4,0.8
	s-2.4,1.3-3.2,2.3c-0.8,1-1.2,2-1.2,3.1s0.3,2.2,0.8,3.2c0.5,1,1.4,1.8,2.4,2.3l0.9,0.4l-0.1,1v0.2c0,0.1-0.1,0.3-0.2,0.6
	c-0.1,0.3-0.2,0.8-0.4,1.2c0.4-0.3,0.9-0.5,1.3-0.9c0.4-0.4,0.8-0.6,0.9-0.8l1-0.9L413.4,638.1z M426.4,643.4L426.4,643.4
	c0,0.3,0.1,0.6,0.1,0.9c0.1,0.3,0.1,0.6,0.2,0.9c0.1,0.3,0.2,0.6,0.3,0.9c0.1,0.3,0.2,0.5,0.3,0.6c0.1,0.1,0.1,0.1,0.1,0.2
	c0,0.2-0.1,0.3-0.2,0.4c-0.1,0.1-0.2,0.2-0.4,0.2h-0.1c-0.1,0-0.1,0-0.1,0c-0.8-0.1-1.6-0.5-2.4-1.2c-0.9-0.6-1.5-1.2-1.9-1.6
	c-0.3,0.1-0.6,0.1-1,0.1c-0.1,0-0.1,0-0.2,0c-0.1,0-0.1,0-0.2,0c-0.1,0-0.1,0-0.2,0c-0.6,0-1.3-0.1-1.9-0.2s-1.2-0.2-1.7-0.4
	c-0.5-0.2-1-0.4-1.5-0.6s-0.9-0.5-1.3-0.9s-0.8-0.7-1.1-1.1l0,0h2.3c1.4,1,3.1,1.6,5.1,1.6h0.2c0.2,0,0.3,0,0.5,0
	c0.2,0,0.3,0,0.4-0.1l0.9-0.1l0.1,0.1c0.1,0.1,0.1,0.2,0.2,0.3c0.1,0.1,0.2,0.3,0.4,0.4c0.2,0.2,0.3,0.4,0.6,0.6s0.5,0.4,0.8,0.6
	c-0.1-0.3-0.2-1.2-0.2-2.6l0.8-0.4c0.5-0.3,0.9-0.5,1.2-0.8s0.6-0.6,0.9-0.9c0.2-0.3,0.4-0.7,0.5-1c0.1-0.4,0.2-0.8,0.2-1.2
	c0-0.8-0.1-1.4-0.4-1.9c-0.3-0.5-0.7-1-1.4-1.5c0.2-0.6,0.3-1.2,0.4-1.7c1.9,1.1,3,2.9,3,5.1C429.9,640.4,428.8,642.2,426.4,643.4z"
	/>
<g class="st4">
	<path class="st5" d="M949.7,201c4,0,7.2-3.2,7.2-7.2c0-4-3.2-7.2-7.2-7.2c-4,0-7.2,3.2-7.2,7.2C942.5,197.7,945.7,201,949.7,201z
		 M949.7,189.1c2.6,0,4.7,2.1,4.7,4.7s-2.1,4.7-4.7,4.7c-2.6,0-4.7-2.1-4.7-4.7C945.1,191.2,947.1,189.1,949.7,189.1z"/>
	<path class="st5" d="M1272.7,392c4,0,7.2-3.2,7.2-7.2s-3.2-7.2-7.2-7.2c-4,0-7.2,3.2-7.2,7.2C1265.6,388.7,1268.8,392,1272.7,392z
		 M1272.7,380.1c2.6,0,4.7,2.1,4.7,4.7s-2.1,4.7-4.7,4.7s-4.7-2.1-4.7-4.7C1268.1,382.2,1270.1,380.1,1272.7,380.1z"/>
	<path class="st5" d="M1431.5,581.4c4,0,7.2-3.2,7.2-7.2c0-4-3.2-7.2-7.2-7.2s-7.2,3.2-7.2,7.2
		C1424.4,578.2,1427.7,581.4,1431.5,581.4z M1431.5,569.6c2.6,0,4.7,2.1,4.7,4.7s-2.1,4.7-4.7,4.7s-4.7-2.1-4.7-4.7
		C1427,571.6,1429.1,569.6,1431.5,569.6z"/>
	<path class="st5" d="M515.1,357.5c4,0,7.2-3.2,7.2-7.2c0-4-3.2-7.2-7.2-7.2c-4,0-7.2,3.2-7.2,7.2
		C507.9,354.3,511.2,357.5,515.1,357.5z M515.1,345.7c2.6,0,4.7,2.1,4.7,4.7c0,2.6-2.1,4.7-4.7,4.7c-2.6,0-4.7-2.1-4.7-4.7
		C510.5,347.7,512.6,345.7,515.1,345.7z"/>
	<path class="st5" d="M583.8,896.5c4,0,7.2-3.2,7.2-7.2c0-4-3.2-7.2-7.2-7.2c-4,0-7.2,3.2-7.2,7.2
		C576.7,893.2,579.9,896.5,583.8,896.5z M583.8,884.6c2.6,0,4.7,2.1,4.7,4.7c0,2.6-2.1,4.7-4.7,4.7s-4.7-2.1-4.7-4.7
		C579.2,886.7,581.3,884.6,583.8,884.6z"/>
	<path class="st5" d="M377.1,601.9c4,0,7.2-3.2,7.2-7.2c0-4-3.2-7.2-7.2-7.2c-4,0-7.2,3.2-7.2,7.2
		C369.9,598.6,373.2,601.9,377.1,601.9z M377.1,590.1c2.6,0,4.7,2.1,4.7,4.7c0,2.6-2.1,4.7-4.7,4.7c-2.6,0-4.7-2.1-4.7-4.7
		C372.5,592.2,374.6,590.1,377.1,590.1z"/>
	<path class="st5" d="M33.5,631c4,0,7.2-3.2,7.2-7.2s-3.2-7.2-7.2-7.2c-4,0-7.2,3.2-7.2,7.2C26.2,627.7,29.5,631,33.5,631z
		 M33.5,619.1c2.6,0,4.7,2.1,4.7,4.7s-2.1,4.7-4.7,4.7c-2.6,0-4.7-2.1-4.7-4.7C28.9,621.2,30.9,619.1,33.5,619.1z"/>
	<path class="st5" d="M637.2,236.5c4,0,7.2-3.2,7.2-7.2c0-4-3.2-7.2-7.2-7.2c-4,0-7.2,3.2-7.2,7.2
		C629.9,233.2,633.2,236.5,637.2,236.5z M637.2,224.6c2.6,0,4.7,2.1,4.7,4.7c0,2.6-2.1,4.7-4.7,4.7s-4.7-2.1-4.7-4.7
		C632.5,226.7,634.6,224.6,637.2,224.6z"/>
	<path class="st5" d="M1380.4,819.9c4,0,7.2-3.2,7.2-7.2s-3.2-7.2-7.2-7.2c-4,0-7.2,3.2-7.2,7.2
		C1373.2,816.6,1376.4,819.9,1380.4,819.9z M1380.4,808c2.6,0,4.7,2.1,4.7,4.7c0,2.6-2.1,4.7-4.7,4.7s-4.7-2.1-4.7-4.7
		S1377.8,808,1380.4,808z"/>
	<path class="st5" d="M649.1,981.2c4,0,7.2-3.2,7.2-7.2c0-4-3.2-7.2-7.2-7.2s-7.2,3.2-7.2,7.2C641.9,977.9,645.1,981.2,649.1,981.2z
		 M649.1,969.3c2.6,0,4.7,2.1,4.7,4.7c0,2.6-2.1,4.7-4.7,4.7c-2.6,0-4.7-2.1-4.7-4.7S646.5,969.3,649.1,969.3z"/>
	<path class="st5" d="M1186.9,1027.1c4,0,7.2-3.2,7.2-7.2s-3.2-7.2-7.2-7.2c-4,0-7.2,3.2-7.2,7.2
		C1179.7,1023.8,1183,1027.1,1186.9,1027.1z M1186.9,1015.2c2.6,0,4.7,2.1,4.7,4.7s-2.1,4.7-4.7,4.7s-4.7-2.1-4.7-4.7
		S1184.4,1015.2,1186.9,1015.2z"/>
	<path class="st5" d="M1192.7,756.4c4,0,7.2-3.2,7.2-7.2s-3.2-7.2-7.2-7.2c-4,0-7.2,3.2-7.2,7.2
		C1185.5,753.1,1188.7,756.4,1192.7,756.4z M1192.7,744.5c2.6,0,4.7,2.1,4.7,4.7s-2.1,4.7-4.7,4.7s-4.7-2.1-4.7-4.7
		S1190.1,744.5,1192.7,744.5z"/>
	<path class="st5" d="M1037.1,926.4c4,0,7.2-3.2,7.2-7.2s-3.2-7.2-7.2-7.2c-4,0-7.2,3.2-7.2,7.2
		C1029.9,923.1,1033.2,926.4,1037.1,926.4z M1037.1,914.5c2.6,0,4.7,2.1,4.7,4.7s-2.1,4.7-4.7,4.7s-4.7-2.1-4.7-4.7
		S1034.5,914.5,1037.1,914.5z"/>
	<path class="st5" d="M1261.6,557.5c4,0,7.2-3.2,7.2-7.2s-3.2-7.2-7.2-7.2c-4,0-7.2,3.2-7.2,7.2
		C1254.4,554.2,1257.6,557.5,1261.6,557.5z M1261.6,545.6c2.6,0,4.7,2.1,4.7,4.7c0,2.6-2.1,4.7-4.7,4.7s-4.7-2.1-4.7-4.7
		C1256.9,547.7,1259,545.6,1261.6,545.6z"/>
	<path class="st5" d="M1045.6,120.1c4,0,7.2-3.2,7.2-7.2c0-4-3.2-7.2-7.2-7.2c-4,0-7.2,3.2-7.2,7.2
		C1038.4,116.8,1041.6,120.1,1045.6,120.1z M1045.6,108.3c2.6,0,4.7,2.1,4.7,4.7c0,2.6-2.1,4.7-4.7,4.7s-4.7-2.1-4.7-4.7
		C1040.9,110.4,1043,108.3,1045.6,108.3z"/>
	<path class="st5" d="M999.4,756.4l3.2-3.2c0.5-0.5,0.5-1.3,0-1.8c-0.5-0.5-1.3-0.5-1.8,0l-3.2,3.2l-3.2-3.2c-0.5-0.5-1.3-0.5-1.8,0
		s-0.5,1.3,0,1.8l3.2,3.2l-3.2,3.2c-0.5,0.5-0.5,1.3,0,1.8s1.3,0.5,1.8,0l3.2-3.2l3.2,3.2c0.5,0.5,1.3,0.5,1.8,0
		c0.5-0.5,0.5-1.3,0-1.8L999.4,756.4z"/>
	<path class="st5" d="M723.1,159h4.5c0.7,0,1.2-0.6,1.2-1.2c0-0.7-0.6-1.2-1.2-1.2h-4.5V152c0-0.7-0.6-1.2-1.2-1.2s-1.2,0.6-1.2,1.2
		v4.5h-4.5c-0.7,0-1.2,0.6-1.2,1.2s0.6,1.2,1.2,1.2h4.5v4.5c0,0.7,0.6,1.2,1.2,1.2c0.7,0,1.2-0.6,1.2-1.2L723.1,159L723.1,159z"/>
	<path class="st5" d="M1125.6,240h4.5c0.7,0,1.2-0.6,1.2-1.2s-0.6-1.2-1.2-1.2h-4.5v-4.5c0-0.7-0.6-1.2-1.2-1.2s-1.2,0.6-1.2,1.2
		v4.5h-4.5c-0.7,0-1.2,0.6-1.2,1.2s0.6,1.2,1.2,1.2h4.5v4.5c0,0.7,0.6,1.2,1.2,1.2s1.2-0.6,1.2-1.2V240L1125.6,240z"/>
	<path class="st5" d="M243,486.2h4.5c0.7,0,1.2-0.6,1.2-1.2c0-0.7-0.6-1.2-1.2-1.2H243v-4.5c0-0.7-0.6-1.2-1.2-1.2
		c-0.7,0-1.2,0.6-1.2,1.2v4.5H236c-0.7,0-1.2,0.6-1.2,1.2c0,0.7,0.6,1.2,1.2,1.2h4.5v4.5c0,0.7,0.6,1.2,1.2,1.2s1.2-0.6,1.2-1.2
		L243,486.2L243,486.2z"/>
	<path class="st5" d="M353.6,237.5h4.5c0.7,0,1.2-0.6,1.2-1.2s-0.6-1.2-1.2-1.2h-4.5v-4.5c0-0.7-0.6-1.2-1.2-1.2s-1.2,0.6-1.2,1.2
		v4.5h-4.5c-0.7,0-1.2,0.6-1.2,1.2c0,0.7,0.6,1.2,1.2,1.2h4.5v4.5c0,0.7,0.6,1.2,1.2,1.2c0.7,0,1.2-0.6,1.2-1.2L353.6,237.5
		L353.6,237.5z"/>
	<path class="st5" d="M523.6,128.5h4.5c0.7,0,1.2-0.6,1.2-1.2c0-0.7-0.6-1.2-1.2-1.2h-4.5v-4.5c0-0.7-0.6-1.2-1.2-1.2
		s-1.2,0.6-1.2,1.2v4.5h-4.5c-0.7,0-1.2,0.6-1.2,1.2c0,0.7,0.6,1.2,1.2,1.2h4.5v4.5c0,0.7,0.6,1.2,1.2,1.2c0.7,0,1.2-0.6,1.2-1.2
		L523.6,128.5L523.6,128.5z"/>
	<path class="st5" d="M502.6,919.2l3.2-3.2c0.5-0.5,0.5-1.3,0-1.8s-1.3-0.5-1.8,0l-3.2,3.2l-3.2-3.2c-0.5-0.5-1.3-0.5-1.8,0
		c-0.5,0.5-0.5,1.3,0,1.8l3.2,3.2l-3.2,3.2c-0.5,0.5-0.5,1.3,0,1.8c0.5,0.5,1.3,0.5,1.8,0l3.2-3.2l3.2,3.2c0.5,0.5,1.3,0.5,1.8,0
		s0.5-1.3,0-1.8L502.6,919.2z"/>
	<path class="st5" d="M810,1088.8l3.2-3.2c0.5-0.5,0.5-1.3,0-1.8c-0.5-0.5-1.3-0.5-1.8,0l-3.2,3.2l-3.2-3.2c-0.5-0.5-1.3-0.5-1.8,0
		c-0.5,0.5-0.5,1.3,0,1.8l3.2,3.2l-3.2,3.2c-0.5,0.5-0.5,1.3,0,1.8c0.5,0.5,1.3,0.5,1.8,0l3.2-3.2l3.2,3.2c0.5,0.5,1.3,0.5,1.8,0
		c0.5-0.5,0.5-1.3,0-1.8L810,1088.8z"/>
	<path class="st5" d="M922.3,914.5l3.2-3.2c0.5-0.5,0.5-1.3,0-1.8s-1.3-0.5-1.8,0l-3.2,3.2l-3.2-3.2c-0.5-0.5-1.3-0.5-1.8,0
		s-0.5,1.3,0,1.8l3.2,3.2l-3.2,3.2c-0.5,0.5-0.5,1.3,0,1.8c0.5,0.5,1.3,0.5,1.8,0l3.2-3.2l3.2,3.2c0.5,0.5,1.3,0.5,1.8,0
		c0.5-0.5,0.5-1.3,0-1.8L922.3,914.5z"/>
	<path class="st5" d="M1288,919.2l3.2-3.2c0.5-0.5,0.5-1.3,0-1.8c-0.5-0.5-1.3-0.5-1.8,0l-3.2,3.2l-3.2-3.2c-0.5-0.5-1.3-0.5-1.8,0
		c-0.5,0.5-0.5,1.3,0,1.8l3.2,3.2l-3.2,3.2c-0.5,0.5-0.5,1.3,0,1.8c0.5,0.5,1.3,0.5,1.8,0l3.2-3.2l3.2,3.2c0.5,0.5,1.3,0.5,1.8,0
		c0.5-0.5,0.5-1.3,0-1.8L1288,919.2z"/>
	<path class="st5" d="M1050.3,426.1l3.2-3.2c0.5-0.5,0.5-1.3,0-1.8c-0.5-0.5-1.3-0.5-1.8,0l-3.2,3.2l-3.2-3.2
		c-0.5-0.5-1.3-0.5-1.8,0c-0.5,0.5-0.5,1.3,0,1.8l3.2,3.2l-3.2,3.2c-0.5,0.5-0.5,1.3,0,1.8c0.5,0.5,1.3,0.5,1.8,0l3.2-3.2l3.2,3.2
		c0.5,0.5,1.3,0.5,1.8,0c0.5-0.5,0.5-1.3,0-1.8L1050.3,426.1z"/>
	<path class="st5" d="M359.4,891.6l3.2-3.2c0.5-0.5,0.5-1.3,0-1.8s-1.3-0.5-1.8,0l-3.2,3.2l-3.2-3.2c-0.5-0.5-1.3-0.5-1.8,0
		s-0.5,1.3,0,1.8l3.2,3.2l-3.2,3.2c-0.5,0.5-0.5,1.3,0,1.8s1.3,0.5,1.8,0l3.2-3.2l3.2,3.2c0.5,0.5,1.3,0.5,1.8,0s0.5-1.3,0-1.8
		L359.4,891.6z"/>
	<path class="st5" d="M138.9,668.4l3.2-3.2c0.5-0.5,0.5-1.3,0-1.8s-1.3-0.5-1.8,0l-3.2,3.2l-3.2-3.2c-0.5-0.5-1.3-0.5-1.8,0
		c-0.5,0.5-0.5,1.3,0,1.8l3.2,3.2l-3.2,3.2c-0.5,0.5-0.5,1.3,0,1.8c0.5,0.5,1.3,0.5,1.8,0l3.2-3.2l3.2,3.2c0.5,0.5,1.3,0.5,1.8,0
		s0.5-1.3,0-1.8L138.9,668.4z"/>
	<path class="st5" d="M1331.1,277.8l3.2-3.2c0.5-0.5,0.5-1.3,0-1.8c-0.5-0.5-1.3-0.5-1.8,0l-3.2,3.2l-3.2-3.2
		c-0.5-0.5-1.3-0.5-1.8,0c-0.5,0.5-0.5,1.3,0,1.8l3.2,3.2l-3.2,3.2c-0.5,0.5-0.5,1.3,0,1.8c0.5,0.5,1.3,0.5,1.8,0l3.2-3.2l3.2,3.2
		c0.5,0.5,1.3,0.5,1.8,0c0.5-0.5,0.5-1.3,0-1.8L1331.1,277.8z"/>
	<path class="st5" d="M1377.5,459.3l3.2-3.2c0.5-0.5,0.5-1.3,0-1.8c-0.5-0.5-1.3-0.5-1.8,0l-3.2,3.2l-3.2-3.2
		c-0.5-0.5-1.3-0.5-1.8,0c-0.5,0.5-0.5,1.3,0,1.8l3.2,3.2l-3.2,3.2c-0.5,0.5-0.5,1.3,0,1.8c0.5,0.5,1.3,0.5,1.8,0l3.2-3.2l3.2,3.2
		c0.5,0.5,1.3,0.5,1.8,0c0.5-0.5,0.5-1.3,0-1.8L1377.5,459.3z"/>
	<path class="st5" d="M1145.3,885.8h4.5c0.7,0,1.2-0.6,1.2-1.2s-0.6-1.2-1.2-1.2h-4.5v-4.5c0-0.7-0.6-1.2-1.2-1.2s-1.2,0.6-1.2,1.2
		v4.5h-4.5c-0.7,0-1.2,0.6-1.2,1.2s0.6,1.2,1.2,1.2h4.5v4.5c0,0.7,0.6,1.2,1.2,1.2s1.2-0.6,1.2-1.2V885.8z"/>
	<path class="st5" d="M165.6,920.4h4.5c0.7,0,1.2-0.6,1.2-1.2s-0.6-1.2-1.2-1.2h-4.5v-4.5c0-0.7-0.6-1.2-1.2-1.2s-1.2,0.6-1.2,1.2
		v4.5h-4.5c-0.7,0-1.2,0.6-1.2,1.2s0.6,1.2,1.2,1.2h4.5v4.5c0,0.7,0.6,1.2,1.2,1.2s1.2-0.6,1.2-1.2V920.4z"/>
	<path class="st5" d="M1072,1003h4.5c0.7,0,1.2-0.6,1.2-1.2s-0.6-1.2-1.2-1.2h-4.5V996c0-0.7-0.6-1.2-1.2-1.2s-1.2,0.6-1.2,1.2v4.5
		h-4.5c-0.7,0-1.2,0.6-1.2,1.2s0.6,1.2,1.2,1.2h4.5v4.5c0,0.7,0.6,1.2,1.2,1.2s1.2-0.6,1.2-1.2V1003z"/>
	<path class="st5" d="M629.5,1077.7h4.5c0.7,0,1.2-0.6,1.2-1.2s-0.6-1.2-1.2-1.2h-4.5v-4.5c0-0.7-0.6-1.2-1.2-1.2s-1.2,0.6-1.2,1.2
		v4.5h-4.5c-0.7,0-1.2,0.6-1.2,1.2s0.6,1.2,1.2,1.2h4.5v4.5c0,0.7,0.6,1.2,1.2,1.2s1.2-0.6,1.2-1.2V1077.7z"/>
	<path class="st5" d="M290.5,804.9h-3.6v-3.6c0-0.6-0.5-1-1-1c-0.5,0-1,0.5-1,1v3.6h-3.6c-0.6,0-1,0.5-1,1s0.5,1,1,1h3.6v3.6
		c0,0.6,0.5,1,1,1c0.5,0,1-0.5,1-1v-3.6h3.6c0.6,0,1-0.5,1-1S291.1,804.9,290.5,804.9z"/>
	<path class="st5" d="M1271.7,465.3h-3.6v-3.6c0-0.6-0.5-1-1-1c-0.6,0-1,0.5-1,1v3.6h-3.6c-0.6,0-1,0.5-1,1s0.5,1,1,1h3.6v3.6
		c0,0.6,0.5,1,1,1c0.6,0,1-0.5,1-1v-3.6h3.6c0.6,0,1-0.5,1-1S1272.2,465.3,1271.7,465.3z"/>
	<path class="st5" d="M1187.5,532.4h-3.6v-3.6c0-0.6-0.5-1-1-1c-0.6,0-1,0.5-1,1v3.6h-3.6c-0.6,0-1,0.5-1,1c0,0.5,0.5,1,1,1h3.6v3.6
		c0,0.6,0.5,1,1,1c0.6,0,1-0.5,1-1v-3.6h3.6c0.6,0,1-0.5,1-1C1188.5,532.8,1188,532.4,1187.5,532.4z"/>
	<path class="st5" d="M1358.1,672.7h-3.6v-3.6c0-0.6-0.5-1-1-1s-1,0.5-1,1v3.6h-3.6c-0.6,0-1,0.5-1,1c0,0.5,0.5,1,1,1h3.6v3.6
		c0,0.6,0.5,1,1,1s1-0.5,1-1v-3.6h3.6c0.6,0,1-0.5,1-1C1359,673.2,1358.6,672.7,1358.1,672.7z"/>
	<path class="st5" d="M1181.2,608.6l-2.6-2.6l2.6-2.6c0.4-0.4,0.4-1,0-1.4s-1-0.4-1.4,0l-2.6,2.6l-2.6-2.6c-0.4-0.4-1-0.4-1.4,0
		s-0.4,1,0,1.4l2.6,2.6l-2.6,2.6c-0.4,0.4-0.4,1,0,1.4s1,0.4,1.4,0l2.6-2.6l2.6,2.6c0.4,0.4,1,0.4,1.4,0S1181.6,608.9,1181.2,608.6z
		"/>
	<path class="st5" d="M417.1,536.2c-1.5,0-2.8,1.2-2.8,2.8c0,1.5,1.2,2.8,2.8,2.8s2.8-1.2,2.8-2.8
		C419.8,537.4,418.6,536.2,417.1,536.2z"/>
	<path class="st5" d="M119.1,809.5c-1.5,0-2.8,1.2-2.8,2.8c0,1.5,1.2,2.8,2.8,2.8s2.8-1.2,2.8-2.8
		C121.8,810.7,120.6,809.5,119.1,809.5z"/>
	<path class="st5" d="M87.6,521.8c-1.5,0-2.8,1.2-2.8,2.8c0,1.5,1.2,2.8,2.8,2.8s2.8-1.2,2.8-2.8C90.4,523,89.1,521.8,87.6,521.8z"
		/>
	<path class="st5" d="M357.6,975.9c-1.5,0-2.8,1.2-2.8,2.8c0,1.5,1.2,2.8,2.8,2.8s2.8-1.2,2.8-2.8
		C360.4,977.1,359.1,975.9,357.6,975.9z"/>
	<path class="st5" d="M164.4,334.5c-1.5,0-2.8,1.2-2.8,2.8c0,1.5,1.2,2.8,2.8,2.8s2.8-1.2,2.8-2.8
		C167.1,335.8,165.9,334.5,164.4,334.5z"/>
	<path class="st5" d="M1070.8,578.6c-1.5,0-2.8,1.2-2.8,2.8c0,1.5,1.2,2.8,2.8,2.8c1.5,0,2.8-1.2,2.8-2.8
		C1073.5,579.8,1072.3,578.6,1070.8,578.6z"/>
	<path class="st5" d="M1256.8,641.9c-1.5,0-2.8,1.2-2.8,2.8c0,1.5,1.2,2.8,2.8,2.8c1.5,0,2.8-1.2,2.8-2.8
		C1259.5,643.1,1258.3,641.9,1256.8,641.9z"/>
	<path class="st5" d="M1161.3,311.7c-1.5,0-2.8,1.2-2.8,2.8c0,1.5,1.2,2.8,2.8,2.8c1.5,0,2.8-1.2,2.8-2.8
		C1164,312.9,1162.8,311.7,1161.3,311.7z"/>
	<path class="st5" d="M1097.3,686.3c-1.5,0-2.8,1.2-2.8,2.8c0,1.5,1.2,2.8,2.8,2.8c1.5,0,2.8-1.2,2.8-2.8S1098.9,686.3,1097.3,686.3
		z"/>
	<path class="st5" d="M975.9,992c-1.5,0-2.8,1.2-2.8,2.8c0,1.5,1.2,2.8,2.8,2.8c1.5,0,2.8-1.2,2.8-2.8
		C978.7,993.2,977.5,992,975.9,992z"/>
	<path class="st5" d="M1265.2,317.2c-1.5,0-2.8,1.2-2.8,2.8c0,1.5,1.2,2.8,2.8,2.8c1.5,0,2.8-1.2,2.8-2.8
		C1268,318.4,1266.8,317.2,1265.2,317.2z"/>
	<path class="st5" d="M987.6,314.5c-1.5,0-2.8,1.2-2.8,2.8c0,1.5,1.2,2.8,2.8,2.8s2.8-1.2,2.8-2.8
		C990.4,315.7,989.2,314.5,987.6,314.5z"/>
	<path class="st5" d="M1151.1,392.9c-1.5,0-2.8,1.2-2.8,2.8c0,1.5,1.2,2.8,2.8,2.8c1.6,0,2.8-1.2,2.8-2.8
		C1153.8,394.2,1152.6,392.9,1151.1,392.9z"/>
	<path class="st5" d="M889.3,127.2c-1.5,0-2.8,1.2-2.8,2.8c0,1.5,1.2,2.8,2.8,2.8s2.8-1.2,2.8-2.8
		C892.1,128.5,890.9,127.2,889.3,127.2z"/>
	<path class="st5" d="M686.5,849.6c-1.5,0-2.8,1.2-2.8,2.8c0,1.5,1.2,2.8,2.8,2.8c1.5,0,2.8-1.2,2.8-2.8
		C689.2,850.9,688,849.6,686.5,849.6z"/>
	<path class="st5" d="M562.8,1004.4c-1.5,0-2.8,1.2-2.8,2.8c0,1.5,1.2,2.8,2.8,2.8c1.5,0,2.8-1.2,2.8-2.8
		C565.5,1005.7,564.3,1004.4,562.8,1004.4z"/>
	<path class="st5" d="M824.8,1007.2c-1.5,0-2.8,1.2-2.8,2.8c0,1.5,1.2,2.8,2.8,2.8c1.5,0,2.8-1.2,2.8-2.8
		C827.5,1008.4,826.3,1007.2,824.8,1007.2z"/>
	<path class="st5" d="M689.3,1045.2c-1.5,0-2.8,1.2-2.8,2.8c0,1.5,1.2,2.8,2.8,2.8c1.5,0,2.8-1.2,2.8-2.8
		C692,1046.5,690.8,1045.2,689.3,1045.2z"/>
	<path class="st5" d="M794.3,896.5c-1.5,0-2.8,1.2-2.8,2.8c0,1.5,1.2,2.8,2.8,2.8c1.5,0,2.8-1.2,2.8-2.8
		C797.1,897.6,795.8,896.5,794.3,896.5z"/>
	<path class="st5" d="M1220.1,867.7c-1.5,0-2.8,1.2-2.8,2.8c0,1.5,1.2,2.8,2.8,2.8c1.5,0,2.8-1.2,2.8-2.8S1221.6,867.7,1220.1,867.7
		z"/>
	<path class="st5" d="M579.2,771c-1.5,0-2.8,1.2-2.8,2.8c0,1.5,1.2,2.8,2.8,2.8s2.8-1.2,2.8-2.8C581.9,772.1,580.7,771,579.2,771z"
		/>
	<path class="st5" d="M425.1,408.1c-1.5,0-2.8,1.2-2.8,2.8c0,1.6,1.2,2.8,2.8,2.8c1.5,0,2.8-1.2,2.8-2.8
		C427.9,409.3,426.6,408.1,425.1,408.1z"/>
	<path class="st5" d="M645.5,309c-1.5,0-2.8,1.2-2.8,2.8c0,1.5,1.2,2.8,2.8,2.8s2.8-1.2,2.8-2.8C648.2,310.2,647,309,645.5,309z"/>
	<path class="st5" d="M390.3,155.9c-1,3.9,1.3,7.8,5.2,8.8c3.9,1,7.8-1.3,8.8-5.2c1-3.9-1.3-7.8-5.2-8.8
		C395.2,149.8,391.3,152.1,390.3,155.9z M401.7,158.9c-0.6,2.5-3.2,4-5.7,3.3c-2.5-0.6-4-3.2-3.3-5.7s3.2-4,5.7-3.3
		C400.9,153.9,402.4,156.5,401.7,158.9z"/>
	<path class="st5" d="M766.9,86.7c-1,3.9,1.3,7.8,5.2,8.8c3.9,1,7.8-1.3,8.8-5.2c1-3.9-1.3-7.8-5.2-8.8
		C771.9,80.6,767.9,82.9,766.9,86.7z M778.4,89.7c-0.6,2.5-3.2,4-5.7,3.3s-4-3.2-3.3-5.7c0.6-2.5,3.2-4,5.7-3.3
		C777.6,84.7,779,87.3,778.4,89.7z"/>
	<path class="st5" d="M124.8,437.6c-1,3.9,1.3,7.8,5.2,8.8c3.9,1,7.8-1.3,8.8-5.2s-1.3-7.8-5.2-8.8
		C129.8,431.5,125.8,433.8,124.8,437.6z M136.3,440.6c-0.6,2.5-3.2,4-5.7,3.3c-2.5-0.6-4-3.2-3.3-5.7c0.6-2.5,3.2-4,5.7-3.3
		C135.4,435.7,136.9,438.2,136.3,440.6z"/>
	<path class="st5" d="M206.6,740.1c-1,3.9,1.3,7.8,5.2,8.8c3.9,1,7.8-1.3,8.8-5.2s-1.3-7.8-5.2-8.8
		C211.6,734,207.6,736.3,206.6,740.1z M218.1,743.1c-0.6,2.5-3.2,4-5.7,3.3c-2.5-0.6-4-3.2-3.3-5.7c0.6-2.5,3.2-4,5.7-3.3
		C217.2,738.1,218.8,740.6,218.1,743.1z"/>
	<path class="st5" d="M403.1,331l2.3,3.9c0.3,0.6,1.2,0.8,1.7,0.4c0.6-0.3,0.8-1.2,0.4-1.7l-2.3-3.9l3.9-2.3
		c0.6-0.3,0.8-1.2,0.4-1.7c-0.3-0.6-1.2-0.8-1.7-0.4l-3.9,2.3l-2.3-3.9c-0.3-0.6-1.2-0.8-1.7-0.4c-0.6,0.3-0.8,1.2-0.4,1.7l2.3,3.9
		l-3.9,2.3c-0.6,0.3-0.8,1.2-0.4,1.7c0.3,0.6,1.2,0.8,1.7,0.4L403.1,331z"/>
	<path class="st5" d="M208.5,256.3l2.3,3.9c0.3,0.6,1.2,0.8,1.7,0.4c0.6-0.3,0.8-1.2,0.4-1.7l-2.3-3.9l3.9-2.3
		c0.6-0.3,0.8-1.2,0.4-1.7c-0.3-0.6-1.2-0.8-1.7-0.4l-3.9,2.3l-2.3-3.9c-0.3-0.6-1.2-0.8-1.7-0.4c-0.6,0.3-0.8,1.2-0.4,1.7l2.3,3.9
		l-3.9,2.3c-0.6,0.3-0.8,1.2-0.4,1.7c0.3,0.6,1.2,0.8,1.7,0.4L208.5,256.3z"/>
	<path class="st5" d="M1021.8,226l-0.6,4.5c-0.1,0.6,0.4,1.3,1.1,1.4s1.3-0.4,1.4-1.1l0.6-4.5l4.5,0.6c0.6,0.1,1.3-0.4,1.4-1.1
		s-0.4-1.3-1.1-1.4l-4.5-0.6l0.6-4.5c0.1-0.6-0.4-1.3-1.1-1.4c-0.6-0.1-1.3,0.4-1.4,1.1l-0.6,4.5l-4.5-0.6c-0.6-0.1-1.3,0.4-1.4,1.1
		c-0.1,0.6,0.4,1.3,1.1,1.4L1021.8,226z"/>
	<path class="st5" d="M1277.8,777.5l-0.6,4.5c-0.1,0.6,0.4,1.3,1.1,1.4s1.3-0.4,1.4-1.1l0.6-4.5l4.5,0.6c0.6,0.1,1.3-0.4,1.4-1.1
		c0.1-0.6-0.4-1.3-1.1-1.4l-4.5-0.6l0.6-4.5c0.1-0.6-0.4-1.3-1.1-1.4c-0.6-0.1-1.3,0.4-1.4,1.1l-0.6,4.5l-4.5-0.6
		c-0.6-0.1-1.3,0.4-1.4,1.1c-0.1,0.6,0.4,1.3,1.1,1.4L1277.8,777.5z"/>
	<path class="st5" d="M536.9,197.2c0.4-1.5-0.4-3-2-3.4c-1.5-0.4-3,0.4-3.4,2c-0.4,1.5,0.4,3,2,3.4
		C535,199.5,536.5,198.7,536.9,197.2z"/>
	<path class="st5" d="M642.6,116.4c0.4-1.5-0.4-3-2-3.4c-1.5-0.4-3,0.4-3.4,2s0.4,3,2,3.4C640.7,118.6,642.2,117.8,642.6,116.4z"/>
	<path class="st5" d="M306.3,408.8c0.4-1.5-0.4-3-2-3.4c-1.5-0.4-3,0.4-3.4,2c-0.4,1.5,0.4,3,2,3.4
		C304.5,411.2,306,410.2,306.3,408.8z"/>
	<path class="st5" d="M454.2,244.2c0.4-1.5-0.4-3-2-3.4c-1.5-0.4-3,0.4-3.4,2c-0.4,1.5,0.4,3,2,3.4
		C452.3,246.5,453.8,245.6,454.2,244.2z"/>
	<path class="st5" d="M903.4,37.2c0.4-1.5-0.4-3-2-3.4c-1.5-0.4-3,0.4-3.4,2c-0.4,1.5,0.4,3,2,3.4C901.5,39.5,903,38.6,903.4,37.2z"
		/>
	<path class="st5" d="M903.5,319.9c1.4,0,2.6-1.2,2.6-2.6c0-1.4-1.2-2.6-2.6-2.6c-1.4,0-2.6,1.2-2.6,2.6
		C901,318.7,902.1,319.9,903.5,319.9z"/>
	<path class="st5" d="M412,733.2c1.4,0,2.6-1.2,2.6-2.6s-1.2-2.6-2.6-2.6s-2.6,1.2-2.6,2.6C409.4,732.1,410.5,733.2,412,733.2z"/>
	<path class="st5" d="M990.3,862.5c1.4,0,2.6-1.2,2.6-2.6s-1.2-2.6-2.6-2.6s-2.6,1.2-2.6,2.6C987.7,861.4,988.8,862.5,990.3,862.5z"
		/>
	<path class="st5" d="M1114.7,817.9c1.4,0,2.6-1.2,2.6-2.6s-1.2-2.6-2.6-2.6s-2.6,1.2-2.6,2.6
		C1112.2,816.8,1113.3,817.9,1114.7,817.9z"/>
	<path class="st5" d="M834.2,301.8c-1.4,0-2.6-0.5-3.6-1.6c-1.1-1.1-1.6-2.5-1.6-4.1c0-1.6,0.5-3,1.6-4.1l17.4-18.6
		c0.9-0.9,1.9-1.5,3.1-1.8c1.2-0.3,2.4-0.2,3.5,0.2c1.2,0.4,2.3,1.1,3.3,2.1c0.3,0.3,0.7,0.7,0.9,1.1s0.5,0.9,0.7,1.3
		c0.2,0.5,0.3,0.9,0.4,1.4c0.1,0.5,0.1,1,0.1,1.5c-0.1,2.2-0.8,3.9-2.2,5.4l-13.2,14c-0.2,0.2-0.4,0.3-0.7,0.3s-0.5-0.1-0.7-0.3
		c-0.2-0.2-0.3-0.4-0.3-0.7c0-0.3,0.1-0.5,0.3-0.7l13.2-14c1-1.1,1.6-2.4,1.6-4.1s-0.5-3-1.6-4c-0.7-0.7-1.4-1.2-2.2-1.5
		c-0.8-0.3-1.6-0.5-2.6-0.3s-1.7,0.5-2.4,1.2l-17.4,18.6c-0.7,0.7-1.1,1.6-1.1,2.7c0,1,0.4,2,1.1,2.7c0.3,0.3,0.7,0.6,1.1,0.8
		c0.4,0.2,0.9,0.3,1.2,0.2c0.9-0.1,1.7-0.5,2.5-1.2l13.9-14.8c0.1-0.1,0.2-0.2,0.3-0.3c0.1-0.1,0.2-0.3,0.3-0.4
		c0.1-0.1,0.2-0.3,0.3-0.5c0.1-0.2,0.1-0.3,0.1-0.5s0-0.3-0.1-0.5c-0.1-0.2-0.2-0.3-0.4-0.5c-0.4-0.4-0.8-0.6-1.1-0.5
		c-0.4,0.1-0.9,0.3-1.3,0.8l-10.4,11.1c-0.1,0.1-0.3,0.2-0.4,0.3c-0.1,0.1-0.3,0.1-0.5,0s-0.3-0.1-0.5-0.3c-0.2-0.2-0.3-0.4-0.3-0.7
		s0.1-0.5,0.3-0.7l10.4-11.1c0.9-0.8,1.6-1.2,2.5-1.3c1-0.1,1.8,0.3,2.7,1.1c0.8,0.7,1.1,1.6,1,2.6c-0.1,1-0.6,2-1.4,2.9l-13.9,14.7
		c-1.1,1.1-2.4,1.8-3.8,1.8c-0.1,0-0.1,0-0.1,0C834.3,301.8,834.2,301.8,834.2,301.8z"/>
	<path class="st5" d="M476.7,837.9c0.2,0.1,0.4,0.3,0.5,0.5c0.1,0.2,0.2,0.5,0.2,0.7v16.6c0,0.4-0.1,0.7-0.4,1
		c-0.3,0.3-0.6,0.4-1,0.4h-20.2c-0.4,0-0.7-0.1-1-0.4c-0.3-0.3-0.4-0.6-0.4-1v-16.6c0-0.4,0.1-0.7,0.4-1c0.3-0.3,0.6-0.4,1-0.4H476
		C476.2,837.7,476.5,837.8,476.7,837.9z M476,839.2h-20.2v10.3l5.3-5.1c0.1-0.1,0.3-0.2,0.5-0.2s0.4,0.1,0.5,0.3l5.9,5.9l2.7-2.4
		c0.1-0.1,0.3-0.2,0.5-0.1c0.2,0,0.3,0.1,0.5,0.2l4.2,4.3L476,839.2L476,839.2z M476,854.4C475.9,854.4,475.9,854.4,476,854.4
		l-4.8-5l-2.6,2.4c-0.1,0.1-0.3,0.2-0.5,0.2s-0.3,0-0.5-0.2l-6-5.9l-5.8,5.6v4.2h20.2L476,854.4L476,854.4z M469.9,844.5
		c-0.3-0.3-0.4-0.6-0.4-1s0.1-0.7,0.4-1c0.3-0.3,0.6-0.4,1-0.4c0.4,0,0.7,0.1,1,0.4c0.3,0.3,0.4,0.6,0.4,1c0,0.3,0,0.5-0.2,0.7
		c-0.1,0.2-0.3,0.4-0.5,0.5c-0.2,0.1-0.5,0.2-0.7,0.2C470.5,844.9,470.2,844.8,469.9,844.5z"/>
	<path class="st5" d="M552.3,268.2c0,0,0.1,0,0.1,0.1s0.1,0.1,0.2,0.1c0.1,0,0.2,0.1,0.3,0.2c0.1,0.1,0.1,0.1,0.2,0.2
		c0,0.1,0.1,0.1,0.1,0.2c0,0.1,0,0.2,0,0.3v1.9c0,0.3-0.1,0.6-0.3,0.9c-0.2,0.2-0.5,0.3-0.9,0.3h-15.6c-0.3,0-0.6-0.1-0.9-0.3
		c-0.2-0.2-0.3-0.5-0.3-0.9v-1.9c0-0.2,0.1-0.4,0.3-0.6c0.2-0.2,0.4-0.3,0.5-0.4c0.1-0.1,0.2-0.1,0.3-0.2l4.7-2.5
		c-0.8-0.6-1.4-1.5-1.7-2.5c-0.4-1.1-0.6-2-0.6-2.9v-3.1c0-0.4,0.1-0.8,0.3-1.2c0.2-0.4,0.5-0.8,0.8-1.2c0.3-0.3,0.8-0.7,1.2-1
		s0.9-0.5,1.5-0.7c0.5-0.1,1.1-0.2,1.6-0.2c0.9,0,1.8,0.2,2.6,0.6s1.5,1,2,1.7s0.8,1.3,0.8,2v3.1c0,0.9-0.1,1.9-0.5,3
		c-0.3,1-0.9,1.9-1.7,2.5l4.5,2.5L552.3,268.2z M552,269.7c-0.1-0.1-0.2-0.1-0.3-0.2l-0.1,0L547,267c-0.4-0.2-0.7-0.6-0.7-1.2
		c0-0.5,0.1-0.9,0.5-1.3c0.5-0.4,1-1.1,1.2-1.9c0.2-0.8,0.4-1.6,0.4-2.3v-3.1c0-0.6-0.4-1.2-1.2-1.9c-0.8-0.6-1.7-1-2.7-1
		c-1,0-1.9,0.3-2.7,1c-0.8,0.6-1.3,1.3-1.3,1.9v3.1c0,0.3,0,0.6,0.1,1c0,0.4,0.1,0.8,0.3,1.2c0.1,0.4,0.3,0.8,0.5,1.2
		c0.2,0.4,0.5,0.7,0.8,0.9c0.4,0.3,0.6,0.7,0.5,1.3c0,0.1,0,0.1,0,0.2c0,0.1,0,0.1-0.1,0.2c0,0.1,0,0.1-0.1,0.2c0,0-0.1,0.1-0.1,0.2
		c0,0-0.1,0.1-0.1,0.1c0,0-0.1,0.1-0.2,0.1l-4.7,2.5l-0.1,0c-0.1,0-0.2,0.1-0.3,0.2v1.3H552V269.7z M557.5,264.7
		c0.2,0.1,0.4,0.2,0.6,0.5c0.2,0.2,0.3,0.4,0.3,0.6v1.8c0,0.2,0,0.4-0.1,0.6c-0.1,0.2-0.2,0.3-0.4,0.4c-0.2,0.1-0.4,0.1-0.6,0.1
		h-2.4c-0.1-0.2-0.1-0.4-0.2-0.6c0-0.1-0.1-0.3-0.2-0.4s-0.2-0.3-0.3-0.4h2.9v-1.4c0,0,0,0-0.1,0c0,0,0,0-0.1,0s0,0-0.1,0s0,0-0.1,0
		l0,0c0,0,0,0-0.1,0l-4.6-2.5c-0.1,0-0.2-0.1-0.2-0.2c-0.1,0-0.1-0.1-0.2-0.2c0-0.1-0.1-0.1-0.1-0.2s-0.1-0.1-0.1-0.2
		c0-0.1,0-0.2,0-0.3c0-0.5,0.1-0.9,0.5-1.3c0.5-0.4,1-1.1,1.3-1.9c0.3-0.8,0.4-1.6,0.4-2.3v-3.1c0-0.6-0.4-1.2-1.3-1.9s-1.8-1-2.8-1
		c-1,0-1.9,0.3-2.8,0.9c-0.1,0-0.2,0-0.3-0.1c-0.1,0-0.2,0-0.4,0c-0.1,0-0.2,0-0.3,0c-0.1,0-0.2,0-0.4,0c-0.1,0-0.3,0-0.3,0
		c0.5-0.6,1.2-1.2,2-1.6s1.7-0.6,2.5-0.6c0.7,0,1.3,0.1,2,0.4c0.7,0.2,1.3,0.6,1.8,1c0.5,0.4,0.9,0.9,1.2,1.4c0.3,0.5,0.5,1,0.5,1.5
		v3.1c0,0.4,0,0.8-0.1,1.3c-0.1,0.4-0.2,0.9-0.3,1.5c-0.1,0.5-0.4,1-0.7,1.5c-0.3,0.5-0.6,0.9-1,1.2l4.6,2.5L557.5,264.7z"/>
	<path class="st5" d="M513.8,809.5v4.5c0,0.7,0.6,1.2,1.2,1.2s1.2-0.6,1.2-1.2v-4.5h4.5c0.7,0,1.2-0.6,1.2-1.2s-0.6-1.2-1.2-1.2
		h-4.5v-4.5c0-0.7-0.6-1.2-1.2-1.2s-1.2,0.6-1.2,1.2v4.5h-4.5c-0.7,0-1.2,0.6-1.2,1.2s0.6,1.2,1.2,1.2H513.8z"/>
	<path class="st5" d="M857.6,395.7c-1.6,0-2.7,0-3.6,0c-0.9,0-1.5-0.1-2-0.2s-0.8-0.2-0.9-0.2s-0.3-0.2-0.6-0.4
		c-0.2-0.2-0.6-0.3-1.2-0.4c-0.6-0.1-1.5-0.2-2.8-0.3c-0.2,0-0.4-0.1-0.5-0.2c0,0-0.1-0.1-0.2-0.3c-0.1-0.1-0.2-0.4-0.3-0.7
		c-0.1-0.3-0.3-0.7-0.4-1.1c-0.1-0.4-0.2-0.9-0.3-1.5c-0.1-0.6-0.1-1.2-0.1-1.8c0-2.1,0.3-3.7,1.1-4.8c0.1-0.2,0.3-0.3,0.6-0.3
		c1.2,0,2.5-0.7,3.9-2.2s2.7-3.5,3.7-5.9c0,0,0.1-0.1,0.1-0.3c0-0.1,0.1-0.2,0.1-0.3c0,0,0-0.1,0.1-0.2c0-0.1,0.1-0.2,0.2-0.2
		c0,0,0.1-0.1,0.2-0.1s0.2-0.1,0.3-0.1c0.1,0,0.2,0,0.3,0c0.1,0,0.3,0,0.4,0c0.2,0,0.5,0,0.8,0.2c0.3,0.1,0.5,0.3,0.7,0.4
		c0.2,0.2,0.4,0.4,0.5,0.6c0.3,0.4,0.4,1.1,0.5,1.9c0,0.8,0,1.6-0.1,2.3c-0.1,0.7-0.2,1.4-0.4,2c2.5,0,4.3,0,5.2,0
		c0.8,0,1.5,0.2,2,0.7c0.5,0.4,0.8,1.1,0.8,1.8c0,0.6,0,1.1-0.2,1.4c0.2,0.2,0.4,0.5,0.6,0.8c0.1,0.2,0.2,0.6,0.3,0.9
		c0,0.7-0.3,1.4-1,2c0,0,0,0.1,0.1,0.2c0,0.1,0.1,0.2,0.1,0.3c0,0,0,0.1,0,0.3c0,0.1,0,0.2,0,0.3c0,0.8-0.5,1.5-1.4,2.1
		c0,0.5,0,0.9,0,1.3C864,394.9,861.8,395.7,857.6,395.7z M846.9,392.8c2.3,0.2,3.8,0.5,4.5,1c0.2,0.2,0.4,0.3,0.6,0.3
		c0.2,0,0.7,0.1,1.6,0.1s2.2,0.1,4.1,0.1c0.6,0,1.1,0,1.6,0c0.5,0,1-0.1,1.7-0.1c0.6,0,1.1-0.2,1.5-0.4c0.4-0.2,0.6-0.4,0.7-0.7
		c0-0.3-0.1-0.6-0.4-1c0-0.2,0-0.3,0-0.5c0-0.2,0.2-0.3,0.3-0.4l0,0c0,0,0.1,0,0.2-0.1c0.1,0,0.2-0.1,0.4-0.2
		c0.2-0.1,0.3-0.2,0.5-0.4c0.1-0.1,0.2-0.3,0.2-0.5c0,0,0-0.1,0-0.1s0-0.1,0-0.1s0-0.1,0-0.1c0,0,0-0.1,0-0.1c0,0,0,0,0-0.1
		c0,0,0,0,0-0.1l0,0l0,0c0,0-0.1-0.1-0.1-0.2s0-0.2,0-0.2c0-0.1,0-0.1,0.1-0.2c0-0.1,0.1-0.1,0.2-0.2c0.1,0,0.2-0.1,0.3-0.2
		s0.2-0.2,0.4-0.4c0.1-0.2,0.2-0.4,0.2-0.6c0-0.3-0.3-0.7-0.8-1c-0.1,0-0.1-0.1-0.2-0.2c0-0.1-0.1-0.1-0.1-0.3c0,0,0-0.1,0-0.2
		c0,0,0-0.1,0-0.2c0,0,0-0.1,0.1-0.2l0,0c0,0,0-0.1,0.1-0.1s0.1-0.1,0.1-0.2c0-0.1,0-0.2,0.1-0.3c0-0.1,0-0.2,0-0.3
		c0-0.2-0.1-0.5-0.2-0.6c-0.1-0.2-0.3-0.3-0.5-0.3c-0.2,0-0.3-0.1-0.4-0.1c-0.1,0-0.2,0-0.3,0c-0.5,0-1.3,0-2.3,0c-1,0-1.9,0-2.7,0
		h-1.2c0,0-0.1,0-0.2,0c0,0-0.1,0-0.1,0c0,0-0.1,0-0.1-0.1c0,0-0.1-0.1-0.1-0.1c-0.1-0.2-0.1-0.4,0-0.6c0.2-0.6,0.4-1.4,0.5-2.1
		c0.1-0.8,0.2-1.6,0.2-2.2c0-0.7-0.1-1.2-0.3-1.6c0,0,0-0.1-0.1-0.1c0,0,0-0.1-0.1-0.1c0,0,0,0-0.1-0.1s-0.1-0.1-0.1-0.1
		c0,0-0.1,0-0.2,0c-0.1,0-0.2,0-0.3,0c0,0-0.1,0-0.1,0s-0.1,0.1-0.2,0.2c-0.1,0.1-0.1,0.2-0.2,0.4c-1.1,2.7-2.4,4.8-4,6.3
		c-1.6,1.6-3.1,2.4-4.5,2.6c-0.1,0.2-0.2,0.5-0.3,0.8c-0.1,0.2-0.2,0.7-0.3,1.2c-0.1,0.5-0.1,1.2-0.1,1.8s0,1.3,0.2,1.9
		c0.1,0.6,0.2,1.1,0.4,1.5C846.6,392.2,846.7,392.5,846.9,392.8z"/>
	<path class="st5" d="M1163.9,453.5c0.3,0.2,0.6,0.5,0.7,0.8c0.1,0.3,0.2,0.6,0.2,0.8v11c0,0.3-0.1,0.7-0.3,1
		c-0.2,0.3-0.5,0.6-0.8,0.8s-0.6,0.3-0.9,0.3h-18c-0.4,0-0.9-0.2-1.3-0.6c-0.4-0.4-0.6-0.9-0.6-1.4v-11c0-0.6,0.2-1.1,0.7-1.5
		c0.5-0.4,0.9-0.5,1.4-0.5h3.2l1.7-2.7h8.2l1.7,2.7h3.2C1163.2,453.1,1163.6,453.2,1163.9,453.5z M1163.5,455.2c0,0,0-0.1,0-0.2
		c0-0.1-0.1-0.2-0.2-0.3c-0.1-0.1-0.2-0.2-0.4-0.2h-3.9l-0.4-0.7l-1.2-2.1h-6.7l-1.7,2.7h-3.9c-0.1,0-0.2,0.1-0.4,0.2
		c-0.2,0.1-0.3,0.3-0.3,0.4v11.1c0,0.2,0,0.3,0.2,0.4c0.1,0.1,0.2,0.2,0.3,0.2h18c0.1,0,0.2-0.1,0.4-0.2c0.1-0.1,0.2-0.3,0.2-0.4
		L1163.5,455.2L1163.5,455.2z M1158.6,460c0,1.3-0.5,2.5-1.4,3.4c-0.9,0.9-2,1.4-3.4,1.4c-1.3,0-2.5-0.5-3.4-1.4
		c-0.9-0.9-1.4-2-1.4-3.4c0-1.3,0.5-2.5,1.4-3.4s2-1.4,3.4-1.4c1.3,0,2.5,0.5,3.4,1.4C1158.2,457.5,1158.6,458.6,1158.6,460z
		 M1157.3,460c0-0.9-0.3-1.8-1-2.4c-0.7-0.7-1.5-1-2.4-1c-0.9,0-1.8,0.3-2.4,1s-1,1.5-1,2.4c0,1,0.3,1.8,1,2.4c0.7,0.7,1.5,1,2.4,1
		c0.9,0,1.8-0.3,2.4-1C1156.9,461.7,1157.3,460.9,1157.3,460z"/>
	<path class="st5" d="M865.2,853.8c0.8,0.4,1.2,0.9,1.2,1.6v1.8c0,0.4-0.1,0.7-0.4,0.9c-0.2,0.2-0.6,0.4-1,0.4h-19.2
		c-0.2,0-0.3,0-0.5-0.1c-0.2,0-0.3-0.1-0.4-0.3c-0.1-0.1-0.2-0.2-0.3-0.4c0-0.1-0.1-0.3-0.1-0.5v-1.8c0-0.2,0-0.4,0.1-0.6
		c0.1-0.2,0.2-0.3,0.3-0.4c0.1-0.1,0.2-0.2,0.4-0.3c0.1-0.1,0.2-0.1,0.3-0.2c0,0,0.1,0,0.1,0l5.9-2.8c-0.1-0.1-0.5-0.2-0.9-0.3
		c-0.5-0.1-0.9-0.2-1.4-0.2c-0.4,0-0.8-0.1-1.2-0.3c-0.4-0.1-0.6-0.3-0.6-0.4l0.3-0.5c0.2-0.3,0.4-0.9,0.7-1.6
		c0.2-0.7,0.4-1.5,0.5-2.2c0-0.2,0-0.6,0.1-1c0-0.4,0.1-0.9,0.2-1.4c0-0.5,0.1-1,0.2-1.6c0.1-0.9,0.4-1.8,0.9-2.5
		c0.5-0.7,1.2-1.3,2-1.7s1.8-0.6,2.8-0.6c1.5,0,2.8,0.4,3.9,1.4s1.7,2,1.9,3.5c0.1,0.7,0.2,1.5,0.3,2.4c0.1,0.9,0.2,1.4,0.2,1.6
		c0,0.4,0.1,0.9,0.3,1.4s0.2,0.9,0.4,1.2c0.1,0.3,0.2,0.6,0.4,0.9c0.1,0.3,0.2,0.5,0.3,0.6c0,0.1,0.1,0.1,0.1,0.2
		c0,0.2-0.3,0.3-0.6,0.4c-0.4,0.1-0.8,0.2-1.2,0.3c-0.4,0-0.9,0.1-1.4,0.2c-0.5,0.1-0.8,0.2-0.9,0.3L865.2,853.8
		C865.1,853.7,865.1,853.7,865.2,853.8z M865,857.1v-1.8c0,0,0-0.1-0.2-0.1c-0.1,0-0.2-0.1-0.3-0.1l-0.1,0l-6-2.9c0,0-0.1,0-0.2-0.1
		c0,0-0.1-0.1-0.2-0.2c0,0-0.1-0.1-0.1-0.2s-0.1-0.1-0.1-0.2c0-0.1,0-0.1,0-0.2s0-0.2,0-0.2c0-0.2,0-0.3,0.1-0.5
		c0-0.1,0.1-0.3,0.3-0.4c0.1-0.1,0.2-0.2,0.4-0.3c0.3-0.1,1-0.3,2-0.5c0.3,0,0.6-0.1,0.8-0.1c-0.5-1.2-0.8-2.3-1-3.5
		c0,0,0-0.1,0-0.2c0-0.1,0-0.2,0-0.3c0-0.1,0-0.2,0-0.3c0-0.1,0-0.2,0-0.3c-0.1-1-0.3-1.9-0.3-2.8c-0.1-1.1-0.6-1.9-1.4-2.6
		c-0.8-0.7-1.8-1-3-1s-2.1,0.3-3,1c-0.8,0.7-1.3,1.6-1.4,2.6c0,0.5-0.1,1-0.2,1.4c0,0.4-0.1,0.9-0.2,1.4c0,0.5-0.1,0.9-0.1,1.2
		c-0.1,1.2-0.5,2.3-1,3.5c0.2,0,0.5,0.1,0.8,0.1c1,0.2,1.7,0.3,2,0.5c0,0,0.1,0,0.1,0.1c0,0,0.1,0,0.1,0.1c0,0,0.1,0.1,0.1,0.1
		c0,0,0.1,0.1,0.1,0.1c0,0,0,0.1,0.1,0.1s0,0.1,0.1,0.1c0,0,0,0.1,0,0.1s0,0.1,0,0.1c0,0,0,0.1,0,0.2c0,0.3,0,0.5-0.2,0.7
		c-0.1,0.2-0.3,0.4-0.5,0.5l-6,2.8l-0.1,0c-0.1,0-0.2,0.1-0.3,0.2c-0.1,0-0.1,0.1-0.1,0.1v1.8L865,857.1L865,857.1z"/>
	<path class="st5" d="M277.2,337.4l-3.6,3l3,2.4c0.1,0,0.1,0.1,0.2,0.2c0,0.1,0,0.2,0,0.3c0,0.2-0.1,0.4-0.3,0.5l-2.7,1.8
		c0,0,0,0.1,0,0.1v3.2c0,0.2-0.1,0.4-0.3,0.6l-6.8,3.9c0,0-0.1,0-0.2,0.1c0,0-0.1,0-0.2,0c-0.1,0-0.2,0-0.3-0.1l-6.9-3.9
		c-0.2-0.1-0.3-0.3-0.3-0.6v-2.8c0-0.2,0.1-0.3,0.2-0.5l-2.8-1.9c-0.2-0.1-0.3-0.3-0.3-0.5c0-0.2,0.1-0.4,0.3-0.5l3-2.4l-3.6-3
		c-0.2-0.1-0.3-0.3-0.2-0.6c0-0.2,0.1-0.4,0.3-0.5l6.1-3.8c0.3-0.2,0.5-0.1,0.8,0l3.8,3l3.8-3c0.2-0.2,0.5-0.2,0.8,0l6.1,3.8
		c0.2,0.1,0.3,0.3,0.3,0.5C277.4,337.1,277.4,337.3,277.2,337.4z M260.4,339.6l4.9-3.2l-3.1-2.5l-4.9,3.1L260.4,339.6z M257.8,343.3
		l4.7,3.1l2.7-2.1l-4.8-3L257.8,343.3z M260.2,348.7l5.5,3.1v-6l-2.8,2.1c-0.1,0.1-0.2,0.1-0.4,0.1c-0.1,0-0.3,0-0.4-0.1l-1.9-1.3
		L260.2,348.7L260.2,348.7z M266.5,337.3l-4.8,3.2l4.8,3l4.8-3L266.5,337.3z M272.6,348.7v-2.1l-1.9,1.3c0,0-0.1,0-0.2,0.1
		c0,0-0.1,0-0.2,0c0,0-0.1,0-0.2,0c0,0-0.1,0-0.2-0.1l-2.9-2.2v6.1L272.6,348.7z M275.6,337l-4.9-3.1l-3.1,2.5l4.9,3.2L275.6,337z
		 M272.5,341.3l-4.8,3l2.7,2.1l4.7-3.1L272.5,341.3z"/>
	<path class="st5" d="M266.3,584.8c-0.1,0.1-0.2,0.3-0.3,0.4c-0.1,0.1-0.3,0.1-0.5,0.1l-5.3,0.2l-3.3,4.3c-0.2,0.3-0.5,0.4-0.7,0.4
		c-0.1,0-0.1,0-0.1,0c-0.3-0.1-0.6-0.3-0.7-0.6l-1.6-4.3c-0.1,0.1-0.1,0.1-0.1,0.2l-15.3,15.3c-0.2,0.2-0.4,0.3-0.7,0.3
		s-0.5-0.1-0.7-0.3c-0.1-0.1-0.2-0.3-0.3-0.5c-0.1-0.1-0.1-0.3,0-0.5c0.1-0.1,0.1-0.3,0.3-0.4l15.3-15.3c0,0,0-0.1,0.1-0.1l-4-1.4
		c-0.1,0-0.1-0.1-0.2-0.1c-0.1-0.1-0.1-0.1-0.1-0.1c-0.1-0.1-0.1-0.1-0.1-0.1c0-0.1-0.1-0.1-0.1-0.2s-0.1-0.1-0.1-0.2
		c-0.1-0.2,0-0.3,0.1-0.5c0.1-0.1,0.1-0.3,0.3-0.4l4.3-3.3l0.1-5.4c0-0.4,0.2-0.7,0.5-0.8c0.3-0.1,0.7-0.1,0.9,0.1l4.5,3l5.1-1.5
		c0.3-0.1,0.7,0,0.9,0.3s0.3,0.6,0.3,0.9l-1.4,5.2l3,4.4C266.4,584.1,266.4,584.5,266.3,584.8z M263.8,583.5l-2.4-3.4
		c0-0.1-0.1-0.1-0.1-0.1c0-0.1-0.1-0.1-0.1-0.1c0-0.1,0-0.1,0-0.1c0-0.1,0-0.1,0-0.1s0-0.1,0-0.2l1.1-3.9l-3.9,1.2
		c-0.3,0.1-0.5,0.1-0.8-0.1l-3.4-2.3l-0.1,4.1c0,0.1,0,0.2-0.1,0.3s-0.1,0.1-0.1,0.3c-0.1,0.1-0.1,0.1-0.2,0.2l-3.2,2.6l3.9,1.4
		c0.3,0.1,0.5,0.3,0.5,0.5l1.4,3.9l2.6-3.3c0.2-0.3,0.4-0.3,0.7-0.3L263.8,583.5z"/>
	<path class="st5" d="M800.4,204.1c0,0.1,0.1,0.2,0.1,0.4c0,0.2,0.1,0.3,0.1,0.4c0,0.1,0,0.2,0,0.3c0,0.1,0,0.2,0,0.3
		c0,0.1,0,0.2-0.1,0.3c0,0.1-0.1,0.2-0.2,0.3c-0.4,0.4-1,0.4-1.9,0.1l-4-1.3c-0.3,1-1,1.8-1.9,2.2c-0.9,0.5-1.9,0.5-2.9,0.2
		c-1-0.3-1.8-1-2.2-1.9c-0.5-0.9-0.5-1.9-0.2-2.9l-3.9-1.3c-0.9-0.3-1.5-0.7-1.6-1.3c0-0.1,0-0.3,0-0.5s0.1-0.3,0.2-0.4
		c0.1-0.1,0.2-0.2,0.4-0.4c0.2-0.1,0.3-0.3,0.4-0.4c0.1-0.1,0.3-0.2,0.6-0.4c0,0,0.3-0.2,0.7-0.4c0.4-0.3,0.6-0.4,0.8-0.6
		c0.1-0.1,0.4-0.3,0.6-0.5c0.3-0.2,0.5-0.5,0.7-0.7c0.1-0.2,0.3-0.5,0.3-0.7l1.5-4.5c0.4-1.3,1.1-2.3,2-3.3c0.9-0.9,2-1.5,3.2-1.8
		c1.2-0.3,2.4-0.2,3.6,0.1c0.9,0.3,1.7,0.8,2.4,1.4c0.7,0.6,1.2,1.4,1.6,2.2s0.6,1.7,0.6,2.7s0,1.9-0.4,2.9l-1.5,4.5
		c0,0.2-0.1,0.4-0.1,0.7c0,0.2,0,0.5,0,0.8c0,0.3,0,0.5,0.1,0.7c0,0.2,0.1,0.5,0.2,0.8s0.1,0.5,0.2,0.7c0,0.2,0.1,0.4,0.2,0.7
		C800.3,203.8,800.4,204,800.4,204.1z M799,204.9C799,204.9,799.1,204.9,799,204.9C799.1,204.9,799.1,204.9,799,204.9
		c0-0.1,0-0.2,0-0.2c0,0,0-0.1,0-0.1c0,0,0-0.1,0-0.1c0,0,0-0.1,0-0.1c-0.2-0.5-0.3-0.9-0.4-1.2c-0.1-0.3-0.2-0.7-0.3-1.3
		c-0.1-0.5-0.2-1-0.1-1.5c0-0.5,0.1-1,0.2-1.4l1.5-4.5c0.1-0.4,0.2-0.9,0.3-1.3c0-0.4,0-0.9,0-1.3c0-0.4-0.1-0.8-0.3-1.2
		s-0.3-0.8-0.5-1.1c-0.2-0.3-0.4-0.7-0.7-1s-0.6-0.5-0.9-0.8s-0.7-0.4-1.2-0.5c-1.4-0.5-2.8-0.3-4.1,0.4c-1.3,0.8-2.2,1.9-2.8,3.5
		l-1.5,4.5c-0.1,0.3-0.2,0.6-0.4,0.9c-0.2,0.3-0.3,0.5-0.5,0.7c-0.1,0.2-0.4,0.4-0.7,0.7c-0.3,0.3-0.5,0.5-0.7,0.5
		c-0.1,0.1-0.4,0.2-0.8,0.5s-0.6,0.4-0.6,0.4c-0.4,0.2-0.6,0.4-0.7,0.6h0c0,0,0,0,0.1,0c0,0,0,0,0.1,0L799,204.9
		C799,204.9,799,204.9,799,204.9z M791.9,205.9c0.6-0.3,1-0.7,1.2-1.4l-4.5-1.5c-0.1,0.3-0.1,0.6-0.1,0.9c0,0.3,0.1,0.6,0.2,0.9
		c0.1,0.2,0.3,0.5,0.5,0.7c0.2,0.2,0.5,0.3,0.8,0.4C790.7,206.3,791.3,206.2,791.9,205.9z"/>
</g>
<g>
	<path class="st6" d="M1371.8,537.2c0,0,0,0.1,0,0.1s0,0.1,0,0.2c0,1.5-0.5,2.9-1.6,4c-1.1,1.1-2.4,1.6-4,1.6c-1.5,0-2.9-0.5-4-1.6
		c-1.1-1.1-1.7-2.4-1.7-4c0-0.2,0-0.5,0.1-0.7c0-0.2,0.1-0.4,0.2-0.7c-0.2-0.1-0.5-0.2-0.8-0.2c-0.3-0.1-0.6-0.1-1-0.1
		c-0.3,0-0.5,0-0.8,0.1s-0.4,0.1-0.6,0.1c-0.2,0.1-0.3,0.1-0.4,0.2c0.1,0.4,0.2,0.9,0.2,1.4c0,1.5-0.5,2.9-1.6,4
		c-1.1,1.1-2.4,1.6-4,1.6c-1.5,0-2.9-0.5-4-1.6c-1.1-1.1-1.7-2.4-1.7-4c0-0.1,0-0.2,0-0.3c0-0.1,0-0.2,0-0.2l1.5-9.2v-0.3v-0.1
		c0.1-0.3,0.1-0.4,0.1-0.6c0-0.2,0.1-0.4,0.2-0.6c0.1-0.3,0.2-0.5,0.3-0.7c0.1-0.2,0.3-0.4,0.5-0.6c0.2-0.2,0.4-0.4,0.7-0.5
		c0.3-0.1,0.6-0.3,1-0.3c0.4-0.1,0.9-0.2,1.4-0.2c0.2,0,0.4,0.1,0.5,0.2c0.2,0.2,0.2,0.3,0.2,0.5c0,0.2-0.1,0.4-0.2,0.5
		c-0.2,0.2-0.3,0.2-0.5,0.2c-0.4,0-0.7,0-1,0.1c-0.3,0.1-0.5,0.1-0.7,0.2c-0.2,0.1-0.3,0.2-0.4,0.3c-0.1,0.1-0.2,0.3-0.3,0.4
		c-0.1,0.2-0.1,0.4-0.2,0.5c0,0.1-0.1,0.3-0.1,0.6l-0.1,0.4c0,0.1-0.2,0.7-0.4,1.9c-0.2,1.2-0.4,2.3-0.5,3.2c1-0.8,2.2-1.2,3.5-1.2
		c0.7,0,1.4,0.1,1.9,0.3c0.6,0.2,1.2,0.5,1.7,1c0.5,0.4,0.9,0.9,1.2,1.5c0.7-0.3,1.5-0.4,2.4-0.4c0.5,0,0.9,0.1,1.4,0.1
		c0.4,0.1,0.8,0.2,1,0.3c0.5-0.8,1.2-1.5,2.1-2c0.9-0.5,1.8-0.8,2.8-0.8c0.3,0,0.5,0,0.8,0.1s0.5,0.1,0.7,0.2
		c0.2,0.1,0.5,0.2,0.7,0.2c0.2,0.1,0.4,0.2,0.6,0.3c0.2,0.1,0.4,0.3,0.6,0.4c-0.1-0.9-0.3-1.9-0.5-3.1c-0.2-1.2-0.3-1.8-0.3-1.9
		c0-0.1-0.1-0.2-0.1-0.4c-0.1-0.3-0.1-0.5-0.1-0.7c0-0.2-0.1-0.3-0.2-0.5c-0.1-0.2-0.3-0.4-0.4-0.5c-0.2-0.1-0.4-0.2-0.7-0.3
		c-0.3-0.1-0.7-0.1-1.1-0.1c-0.2,0-0.4-0.1-0.6-0.2c-0.2-0.2-0.2-0.3-0.2-0.5c0-0.2,0.1-0.4,0.2-0.5c0.2-0.2,0.3-0.2,0.6-0.2
		c0.4,0,0.9,0.1,1.2,0.1c0.4,0.1,0.7,0.2,1,0.3s0.5,0.3,0.7,0.4c0.2,0.1,0.4,0.3,0.5,0.5c0.2,0.2,0.3,0.4,0.3,0.5
		c0.1,0.2,0.2,0.4,0.2,0.6c0.1,0.2,0.1,0.4,0.1,0.5c0,0.1,0.1,0.3,0.1,0.5v0.1c0.1,0.1,0.1,0.2,0.1,0.3c1,6.1,1.5,9.2,1.5,9.3
		C1371.9,537,1371.9,537.1,1371.8,537.2z M1354.6,540.3c0.8-0.8,1.2-1.7,1.2-2.8c0-0.8-0.2-1.4-0.5-2c-0.4-0.6-0.9-1.1-1.5-1.5
		c-0.6-0.4-1.3-0.5-2-0.5c-1.1,0-2.1,0.4-2.9,1.2c-0.8,0.8-1.2,1.7-1.2,2.8c0,1.1,0.4,2,1.2,2.8c0.8,0.8,1.7,1.2,2.9,1.2
		C1353,541.5,1353.9,541.1,1354.6,540.3z M1367.8,541.1c0.5-0.2,0.9-0.5,1.2-0.9c0.3-0.4,0.6-0.8,0.9-1.3c0.2-0.5,0.3-1,0.3-1.6
		c0,0,0-0.1,0-0.2c0-0.1-0.1-0.1-0.1-0.2c0-0.1,0-0.1,0-0.1s0-0.1,0-0.1s0-0.1,0-0.1c0-0.1,0-0.1,0-0.1c-0.1-0.6-0.4-1.1-0.8-1.6
		s-0.8-0.9-1.4-1.1s-1.1-0.4-1.8-0.4c-1.1,0-2.1,0.4-2.9,1.2c-0.8,0.8-1.2,1.7-1.2,2.8s0.4,2,1.2,2.8c0.8,0.8,1.7,1.2,2.9,1.2
		C1366.8,541.5,1367.4,541.4,1367.8,541.1z"/>
	<path class="st6" d="M1209,388.4c-0.2,0.4-0.4,0.6-0.9,0.6h-16.5c-0.2,0-0.3-0.1-0.5-0.2c-0.2-0.1-0.3-0.2-0.4-0.4
		c-0.2-0.4-0.1-0.7,0.2-1l5.1-6.1v-10.6h-0.6c-0.3,0-0.5-0.1-0.7-0.3c-0.2-0.2-0.3-0.4-0.3-0.7s0.1-0.5,0.3-0.6
		c0.2-0.2,0.4-0.3,0.7-0.3h1.6c0.3,0,0.5,0.1,0.6,0.3c0.2,0.2,0.3,0.4,0.3,0.7v11.9c0,0.3-0.1,0.5-0.2,0.6l-4,4.7h12.2l-4-4.7
		c-0.2-0.2-0.2-0.4-0.2-0.6v-11.9c0-0.3,0.1-0.5,0.3-0.7c0.2-0.2,0.4-0.3,0.6-0.3h1.6c0.3,0,0.5,0.1,0.7,0.3
		c0.2,0.2,0.3,0.4,0.3,0.6s-0.1,0.5-0.3,0.7c-0.2,0.2-0.4,0.3-0.7,0.3h-0.6v10.6l5.1,6.1C1209.1,387.7,1209.2,388,1209,388.4z
		 M1198.6,367.8c-0.1,0-0.2-0.1-0.3-0.1c-0.1-0.1-0.2-0.1-0.3-0.2c-0.1-0.1-0.2-0.1-0.3-0.2c-0.1-0.1-0.2-0.2-0.2-0.2
		c-0.1-0.1-0.1-0.2-0.2-0.3c-0.1-0.1-0.1-0.2-0.2-0.3c-0.1-0.1-0.1-0.2-0.1-0.3c0-0.1-0.1-0.2-0.1-0.3c0-0.3,0.1-0.5,0.2-0.8
		c0.1-0.2,0.2-0.4,0.4-0.6c0.2-0.2,0.4-0.3,0.6-0.4c0.2-0.1,0.5-0.2,0.8-0.2c0.5,0,1,0.2,1.4,0.5c0.4,0.4,0.6,0.8,0.6,1.4
		c0,0.5-0.2,1-0.6,1.4c-0.4,0.4-0.8,0.6-1.4,0.6C1198.8,367.8,1198.7,367.8,1198.6,367.8z M1201.8,361.6c0-0.9,0.3-1.7,1-2.4
		c0.6-0.6,1.5-1,2.4-1s1.7,0.3,2.4,1c0.6,0.6,1,1.5,1,2.4c0,0.9-0.3,1.7-1,2.4c-0.6,0.6-1.5,1-2.4,1s-1.7-0.3-2.4-1
		S1201.8,362.5,1201.8,361.6z M1204.1,360.6c-0.3,0.3-0.4,0.6-0.4,1c0,0.3,0.1,0.5,0.2,0.7c0.1,0.2,0.3,0.4,0.5,0.5
		c0.2,0.1,0.5,0.2,0.7,0.2c0.4,0,0.8-0.2,1-0.4c0.3-0.3,0.4-0.6,0.4-1c0-0.2-0.1-0.4-0.1-0.6c-0.1-0.2-0.2-0.3-0.3-0.5
		c-0.1-0.1-0.3-0.2-0.5-0.3c-0.2-0.1-0.4-0.1-0.6-0.1C1204.8,360.2,1204.5,360.3,1204.1,360.6z"/>
	<path class="st6" d="M178,521.9c-0.6,0-1.1-0.1-1.6-0.2s-1-0.3-1.4-0.5c-0.4-0.2-0.7-0.4-1-0.6c-0.2-0.2-0.5-0.4-0.8-0.6
		c-0.2-0.2-0.5-0.4-0.9-0.8c-0.1-0.1-0.2-0.2-0.2-0.2s-0.1-0.1-0.2-0.2c-0.1-0.1-0.2-0.1-0.2-0.2c-0.1-0.1-0.1-0.1-0.2-0.2
		c-0.1-0.1-0.1-0.1-0.2-0.1c-0.1,0-0.1-0.1-0.1-0.1c0,0-0.1,0-0.1,0c0,0-0.1,0-0.1,0l0,0c-0.1,0.1-0.4,0.3-0.9,0.7
		c-0.1,0.1-0.2,0.2-0.3,0.2c-0.1,0.1-0.2,0.1-0.2,0.2c-0.1,0.1-0.2,0.2-0.3,0.2c-0.1,0.1-0.2,0.2-0.3,0.2l-0.1,0.1
		c-0.4,0.3-0.6,0.5-0.9,0.6c-0.2,0.2-0.5,0.3-0.9,0.5c-0.4,0.2-0.9,0.4-1.3,0.5c-0.5,0.1-1,0.2-1.5,0.2c-0.9,0-1.7-0.2-2.4-0.5
		c-0.8-0.4-1.4-0.9-1.9-1.5c-1-1.2-1.3-2.7-0.9-4.5c0.1-0.3,0.2-0.5,0.5-0.6c0.3-0.1,0.5-0.1,0.8,0.2c0.4,0.3,0.9,0.4,1.4,0.4
		c0.4,0,0.9-0.1,1.4-0.3c0.2-0.1,0.5-0.3,0.7-0.5c0.2-0.2,0.4-0.5,0.7-0.9c0.3-0.4,0.4-0.6,0.5-0.7c0.3-0.3,0.5-0.5,0.6-0.7
		c0.2-0.2,0.4-0.4,0.7-0.6c0.3-0.2,0.6-0.4,0.9-0.5c0.3-0.1,0.6-0.2,1-0.2c0.5,0,1,0.1,1.5,0.3c0.5,0.2,0.9,0.5,1.4,0.9
		c0.4-0.4,0.9-0.6,1.4-0.9c0.5-0.2,1-0.3,1.5-0.3c0.4,0,0.8,0.1,1.1,0.2c0.3,0.1,0.6,0.3,0.9,0.5c0.3,0.2,0.5,0.4,0.7,0.6
		c0.2,0.2,0.4,0.4,0.7,0.8c0.1,0.1,0.3,0.3,0.5,0.7c0.3,0.3,0.5,0.6,0.8,0.9c0.3,0.2,0.4,0.4,0.7,0.5c0.5,0.2,0.9,0.3,1.4,0.3
		c0.6,0,1.1-0.2,1.5-0.4c0.2-0.2,0.5-0.2,0.8-0.1c0.3,0.1,0.4,0.3,0.5,0.6c0.1,0.5,0.1,1.1,0.1,1.5c0,0.4-0.1,0.8-0.2,1.2
		c-0.1,0.4-0.3,0.7-0.4,1s-0.3,0.5-0.5,0.8c-0.5,0.6-1.2,1.1-1.9,1.5C179.6,521.7,178.8,521.9,178,521.9z M171,516.8
		c0.1,0,0.1,0,0.1,0s0,0,0.1,0c0.1,0,0.1,0,0.1,0h0.1h0.1c0.2,0,0.4,0.1,0.6,0.2c0.2,0.1,0.4,0.3,0.5,0.4s0.4,0.3,0.8,0.6
		c0.3,0.3,0.6,0.5,0.9,0.7c0.3,0.2,0.5,0.4,0.7,0.5c0.2,0.1,0.4,0.3,0.8,0.5c0.3,0.2,0.7,0.3,1.1,0.4c0.4,0.1,0.8,0.1,1.2,0.1
		c0.4,0,0.8-0.1,1.2-0.2c0.4-0.1,0.8-0.3,1.1-0.5c0.3-0.2,0.6-0.5,0.9-0.8c0.3-0.3,0.4-0.6,0.5-1c0.1-0.4,0.2-0.8,0.2-1.1
		c-0.1,0.1-0.2,0.1-0.3,0.1c-0.1,0-0.2,0.1-0.3,0.1s-0.2,0.1-0.3,0.1c-0.1,0-0.3,0-0.4,0c-0.6,0-1.4-0.2-2-0.4
		c-0.2-0.1-0.4-0.2-0.6-0.4c-0.2-0.2-0.4-0.3-0.5-0.5c-0.2-0.2-0.3-0.4-0.5-0.5c-0.2-0.2-0.3-0.3-0.4-0.5c-0.2-0.2-0.3-0.4-0.4-0.5
		c-0.5-0.5-0.9-0.9-1.2-1.1c-0.3-0.2-0.6-0.3-1-0.3c-0.8,0-1.6,0.4-2.3,1.2c-0.1,0.1-0.1,0.1-0.1,0.1c-0.1,0-0.1,0.1-0.1,0.1
		s-0.1,0.1-0.1,0.1c-0.1,0-0.1,0.1-0.1,0.1s-0.1,0-0.1,0c-0.2,0-0.4-0.1-0.6-0.3c-0.3-0.3-0.6-0.6-1-0.9c-0.3-0.2-0.8-0.4-1.2-0.4
		c-0.4,0-0.8,0.1-1,0.3c-0.3,0.2-0.7,0.6-1.1,1.1c-0.1,0.1-0.3,0.3-0.5,0.6c-0.2,0.3-0.4,0.5-0.6,0.7c-0.2,0.2-0.4,0.4-0.6,0.6
		s-0.5,0.4-0.8,0.5c-0.6,0.3-1.4,0.4-2,0.4c-0.4,0-0.9-0.1-1.2-0.2c0,0.8,0.2,1.6,0.7,2.2c0.4,0.4,0.8,0.8,1.4,1.1s1.2,0.4,1.8,0.4
		c0.3,0,0.5,0,0.8-0.1c0.3-0.1,0.5-0.1,0.8-0.2c0.2-0.1,0.4-0.2,0.6-0.2c0.2-0.1,0.4-0.2,0.6-0.3c0.2-0.2,0.4-0.3,0.5-0.3
		c0.1-0.1,0.3-0.2,0.5-0.4l0.1-0.1c0.1-0.1,0.2-0.2,0.4-0.3c0.2-0.1,0.3-0.2,0.3-0.3c0.1-0.1,0.2-0.2,0.3-0.3
		c0.2-0.2,0.4-0.3,0.5-0.4c0.1-0.1,0.3-0.2,0.4-0.3c0.2-0.1,0.3-0.2,0.4-0.2c0.1,0,0.2-0.1,0.3-0.1l0,0c0.1,0,0.1,0,0.1,0
		C170.9,516.9,170.9,516.8,171,516.8z"/>
	<path class="st6" d="M721.6,332.2c-2.9,0-5.2-0.9-7-2.7s-2.8-4.1-2.8-6.8c0-0.5,0.1-1.1,0.2-1.8c0.1-0.6,0.3-1.2,0.4-1.6
		c0.2-0.5,0.3-0.9,0.5-1.4c0.2-0.5,0.3-0.8,0.4-1c0.1-0.2,0.2-0.3,0.2-0.4c0.2-0.3,0.4-0.4,0.8-0.4c0.2,0,0.3,0.1,0.4,0.2
		c0.1,0.1,0.2,0.2,0.2,0.4c0.3,1.1,0.6,2.1,1.1,2.8c0.4,0.6,0.9,1.1,1.4,1.5c-0.5-1.9-0.5-3.8-0.2-5.7c0.2-1.1,0.5-2.1,1-3
		c0.5-0.9,1-1.6,1.5-2.1c0.5-0.5,1-0.9,1.6-1.3c0.6-0.4,1-0.6,1.2-0.7c0.3-0.1,0.4-0.2,0.6-0.2c0.1-0.1,0.3-0.1,0.4,0
		c0.1,0,0.3,0.1,0.4,0.2c0.2,0.2,0.3,0.4,0.2,0.7c0,0.1-0.1,0.3-0.1,0.5c-0.1,0.2-0.1,0.6-0.1,1.2c-0.1,0.6-0.1,1.2,0,1.8
		c0.1,0.6,0.2,1.2,0.3,2.1c0.2,0.8,0.4,1.5,0.7,2.2c0.1,0.2,0.2,0.3,0.3,0.5c0.1,0.2,0.2,0.4,0.3,0.6c0.1-0.6,0.2-1.1,0.3-1.6
		c0.3-1.2,1-2.2,2-2.8c0.1-0.1,0.2-0.1,0.2-0.1c0.1-0.1,0.3-0.1,0.4-0.1c0.1,0,0.3,0.1,0.4,0.2c0.1,0.1,0.2,0.2,0.3,0.3
		c0.1,0.1,0.1,0.3,0.1,0.4c0,0.1,0,0.1,0,0.2c0,0.1,0,0.2,0,0.5c0,0.2,0.1,0.5,0.1,0.8s0.2,0.6,0.3,1c0.2,0.4,0.3,0.8,0.6,1.1
		c0.5,0.9,0.9,1.7,1.1,2.5c0.2,0.8,0.3,1.7,0.3,2.8c0,1.1-0.2,2.1-0.5,3.1c-0.3,1-0.8,1.8-1.4,2.6c-0.6,0.8-1.3,1.5-2.1,2
		c-0.8,0.5-1.7,1-2.8,1.3C723.9,332.1,722.7,332.2,721.6,332.2z M714.2,319c-0.6,1.4-0.9,2.7-0.9,3.7c0,2.3,0.8,4.2,2.3,5.7
		c1.6,1.5,3.5,2.2,6,2.2s4.5-0.8,6.1-2.2c1.6-1.5,2.4-3.4,2.4-5.7c0-0.6-0.1-1.2-0.1-1.7c-0.1-0.5-0.2-0.9-0.4-1.4
		c-0.2-0.4-0.4-0.9-0.7-1.5c-0.5-0.9-0.9-1.8-1.1-2.8c-0.2,0.3-0.3,0.6-0.4,0.9c-0.1,0.5-0.2,1-0.3,1.6s-0.1,1-0.1,1.3
		s0,0.5,0.1,0.6c0,0.2-0.1,0.3-0.1,0.5c-0.1,0.2-0.2,0.3-0.4,0.3c-0.1,0-0.2,0.1-0.2,0.1s-0.2,0-0.2-0.1c-0.1-0.1-0.2-0.1-0.2-0.1
		c-0.1-0.1-0.1-0.1-0.2-0.2c-1-1.4-1.6-2.4-2-3.3c-0.9-2.1-1.3-4.4-1.1-7.3c-0.4,0.2-0.7,0.5-1,0.8c-0.3,0.3-0.7,0.6-1.1,1.1
		c-0.4,0.4-0.7,1-1,1.7c-0.3,0.6-0.5,1.4-0.6,2.2c-0.1,0.6-0.2,1.2-0.2,1.9c0,0.6,0.1,1.2,0.1,1.8c0.1,0.5,0.2,1,0.3,1.5
		s0.2,0.8,0.3,1c0.1,0.2,0.1,0.3,0.1,0.4c0.1,0.1,0.1,0.1,0.1,0.2c0,0.1,0,0.2,0,0.2c0,0.1-0.1,0.1-0.1,0.2
		c-0.1,0.1-0.1,0.1-0.1,0.2c-0.2,0.2-0.4,0.3-0.8,0.2c-0.1,0-0.2-0.1-0.3-0.1c-0.1-0.1-0.3-0.1-0.6-0.3s-0.6-0.3-0.9-0.5
		c-0.3-0.2-0.6-0.4-0.9-0.8c-0.3-0.3-0.6-0.7-0.9-1.1c-0.1-0.2-0.2-0.4-0.3-0.6C714.4,319.4,714.3,319.2,714.2,319z"/>
	<path class="st6" d="M318.3,741.7c0.4,0.1,0.4,0.4,0.2,1l-9.7,22.7c-0.2,0.4-0.4,0.6-0.8,0.6c-0.1,0-0.3-0.1-0.4-0.1
		c-0.1-0.1-0.3-0.2-0.4-0.4l-3.8-6.3c-0.2-0.3-0.3-0.5-0.6-0.8c-0.3-0.3-0.5-0.5-0.8-0.8s-0.5-0.5-0.8-0.6l-6.4-4
		c-0.2-0.2-0.4-0.3-0.5-0.5c-0.1-0.2-0.1-0.4,0.1-0.5s0.3-0.3,0.5-0.4l22.7-9.6c0.2-0.1,0.4-0.1,0.5-0.1
		C318.2,741.7,318.2,741.7,318.3,741.7z M303,756.4l11.3-11.5l-17.5,7.4l5.2,3.2C302.3,755.8,302.6,756,303,756.4z M315.4,745.9
		L304,757.4c0.1,0.1,0.2,0.2,0.3,0.3c0.1,0.1,0.2,0.2,0.2,0.3c0.1,0.1,0.2,0.2,0.2,0.3l3.1,5.1L315.4,745.9z"/>
	<path class="st6" d="M1182,700.3c-1.1,1.1-2.3,1.9-3.7,2.5c-1.4,0.6-2.8,0.9-4.2,0.9c-1.4,0-2.8-0.3-4.2-0.9
		c-1.4-0.5-2.7-1.4-3.7-2.4c-0.8-0.8-1.4-1.5-1.8-2.4c-0.5-0.9-0.9-1.8-1.1-2.7c-0.2-0.9-0.4-1.9-0.4-2.9s0.1-1.9,0.4-2.9
		s0.6-1.8,1.1-2.7c0.5-0.9,1.1-1.7,1.8-2.4l7.3-7.3c0,0,0,0,0.1-0.1l2.3-2.3c0.2-0.2,0.3-0.2,0.5-0.2s0.4,0.1,0.6,0.2l4,4
		c0.2,0.2,0.3,0.4,0.2,0.6c0,0.2-0.1,0.4-0.2,0.5l-0.5,0.5l-8.9,8.9c-0.9,0.9-1.3,1.9-1.4,3.1c-0.1,1.2,0.4,2.2,1.2,3
		c0.8,0.8,1.8,1.2,2.8,1.1c1-0.1,2.1-0.6,2.9-1.5l7-7l2.3-2.3c0.2-0.2,0.3-0.2,0.5-0.2c0.2,0,0.4,0.1,0.6,0.2l4,4
		c0.2,0.2,0.3,0.4,0.2,0.6c0,0.2-0.1,0.4-0.2,0.5l-0.5,0.5L1182,700.3z M1176.4,676.5l-2.3,2.3l2.8,2.8l2.3-2.3L1176.4,676.5z
		 M1170.5,701.3c1.2,0.5,2.4,0.7,3.6,0.7c1.2,0,2.4-0.3,3.6-0.8c1.2-0.5,2.3-1.2,3.2-2.1l5.6-5.6l-2.8-2.8l-5.4,5.4
		c-0.8,0.8-1.7,1.4-2.6,1.7c-0.9,0.3-1.9,0.4-2.9,0.2c-1-0.2-1.8-0.7-2.6-1.5c-1.1-1.1-1.7-2.5-1.7-4.2c0-1.6,0.6-3,1.8-4.2l5.4-5.4
		l-2.8-2.8l-5.6,5.6c-1.2,1.2-2.1,2.7-2.5,4.3c-0.4,1.7-0.4,3.3,0,5c0.4,1.7,1.2,3.1,2.5,4.3
		C1168.2,700.1,1169.2,700.8,1170.5,701.3z M1187.1,687.2l-2.3,2.3l2.8,2.8l2.3-2.3L1187.1,687.2z"/>
	<path class="st6" d="M365.1,464.7C365.1,464.7,365.2,464.7,365.1,464.7C365.2,464.7,365.2,464.7,365.1,464.7c0.2,0,0.3,0,0.4,0.1
		c0.1,0.1,0.3,0.1,0.4,0.2c0.1,0.1,0.2,0.2,0.3,0.3c0.1,0.1,0.2,0.2,0.2,0.3c0.1,0.1,0.1,0.2,0.2,0.4c0.1,0.1,0.1,0.3,0.1,0.4
		c0,0.1,0,0.1,0,0.2c0,0.1,0,0.1-0.1,0.2l-1.5,7.5h4.7c0.6,0,1.1,0.3,1.4,0.9c0.3,0.6,0.3,1.1-0.1,1.7l-9,12.9
		c-0.3,0.4-0.8,0.6-1.2,0.6c-0.1,0-0.2,0-0.3,0c-0.1,0-0.2-0.1-0.3-0.1c-0.3-0.2-0.6-0.4-0.8-0.7c-0.2-0.3-0.2-0.6-0.2-1l1.5-8.6
		h-4.7c-0.1,0-0.2,0-0.3-0.1c-0.1,0-0.2-0.1-0.3-0.1c-0.1-0.1-0.2-0.1-0.3-0.2c-0.1-0.1-0.2-0.2-0.3-0.3c-0.1-0.1-0.2-0.2-0.2-0.3
		c-0.3-0.6-0.3-1.1,0.1-1.7l9-11.9l0.1-0.1c0,0,0-0.1,0.1-0.1c0.1-0.1,0.2-0.2,0.3-0.3c0.1-0.1,0.2-0.2,0.3-0.2
		c0.1-0.1,0.2-0.1,0.3-0.1C365,464.7,365,464.7,365.1,464.7L365.1,464.7z M356.2,478.2h6.5l-1.8,10.4l8.9-12.9h-6.5l1.8-9.5
		L356.2,478.2z"/>
	<path class="st5" d="M742.5,773.1c2.1,0.9,3.7,2.4,4.7,4.7c1.5,3.3,1.2,8.4-0.9,15.5c-0.1,0.5-0.4,0.8-0.8,1l0,0
		c-0.1,0.1-0.3,0.1-0.6,0.1c-0.2,0-0.4,0-0.5,0c-0.1,0-0.1,0-0.2-0.1c-0.1,0-0.3-0.1-0.5-0.2c-0.8-0.4-1.5-0.7-1.9-0.9s-1.1-0.5-2-1
		c-0.9-0.4-1.6-0.8-2.1-1.1c-0.5-0.3-1.2-0.7-1.9-1.2c-0.7-0.5-1.3-1-1.8-1.5c-0.5-0.4-0.9-1-1.4-1.6c-0.5-0.6-0.8-1.2-1.1-1.8
		c-0.5-1.1-0.7-2.2-0.8-3.4c0-1.2,0.1-2.3,0.5-3.4c0.4-1,1-2,1.8-2.9c0.8-0.9,1.7-1.6,2.8-2C738.1,772.2,740.3,772.1,742.5,773.1z
		 M745.9,778.4c-0.4-0.9-0.9-1.6-1.5-2.3c-0.6-0.7-1.3-1.2-2.1-1.6c-0.8-0.4-1.7-0.6-2.7-0.6c-1,0-2.1,0.2-3.2,0.7
		c-1.2,0.5-2.1,1.4-2.9,2.4c-0.7,1.1-1.2,2.2-1.3,3.6c-0.1,1.3,0.1,2.6,0.6,3.8c0.2,0.5,0.6,1.1,1,1.6c0.4,0.5,0.9,1,1.3,1.4
		c0.4,0.4,1,0.9,1.7,1.3c0.7,0.4,1.3,0.8,1.8,1.2c0.5,0.3,1.2,0.7,2,1.1s1.5,0.7,1.9,0.9c0.4,0.2,1.1,0.5,1.9,0.9l0.5,0.2
		c0,0,0.1,0,0.1,0c0,0,0-0.1,0-0.1C746.9,786.2,747.3,781.3,745.9,778.4z M739.2,776.9c0.6,0,1.1,0.1,1.7,0.2c0.5,0.2,1,0.5,1.4,0.9
		s0.8,0.9,1,1.4c0.5,1.1,0.5,2.2,0.1,3.3c-0.4,1.1-1.2,1.9-2.2,2.4c-1.1,0.5-2.2,0.5-3.3,0.1c-1.1-0.4-1.9-1.2-2.4-2.3
		c-0.2-0.4-0.3-0.9-0.4-1.3c0-0.4,0-0.9,0-1.4c0.1-0.4,0.2-0.9,0.5-1.2c0.2-0.4,0.5-0.7,0.8-1.1c0.3-0.3,0.7-0.6,1.2-0.8
		C738,777.1,738.6,777,739.2,776.9z M741.8,782.7c0.5-0.9,0.5-1.8,0.1-2.6c-0.3-0.7-0.9-1.2-1.6-1.5c-0.7-0.3-1.5-0.2-2.2,0.1
		c-0.7,0.3-1.2,0.9-1.5,1.6c-0.3,0.7-0.2,1.5,0.1,2.2c0.3,0.7,0.9,1.2,1.7,1.5c0.8,0.3,1.5,0.2,2.2,0
		C741.1,783.6,741.5,783.2,741.8,782.7z"/>
</g>
</svg>
